<?xml version="1.0" encoding="UTF-8"?>
<svg width="160px" height="36px" viewBox="0 0 160 36" version="1.1" xmlns="http://www.w3.org/2000/svg" xmlns:xlink="http://www.w3.org/1999/xlink">
    <!-- Generator: Sketch 49.3 (51167) - http://www.bohemiancoding.com/sketch -->
    <title>logo</title>
    <desc>Created with Sketch.</desc>
    <defs></defs>
    <g id="logo" stroke="none" stroke-width="1" fill="none" fill-rule="evenodd">
        <path d="M21.0771802,6 C15.8078025,6 9.34029319,9.17779922 8.94409938,14 L32.7950311,14 C32.5969342,9.0751992 26.4257966,6 21.0771802,6 Z M31.951087,24.7796313 L41.3806837,24.7796313 C40.1062064,31.5118525 32.1805509,36 21.5068038,36 C8.16461998,36 0,29.2045654 0,18.14223 C0,7.07989464 8.20444739,0 21.0687023,0 C33.6939927,0 41.7391304,6.70061457 41.7391304,17.2888499 L41.7391304,20.1334504 L9.06974638,20.1334504 L9.06974638,20.7023705 C9.06974638,25.7278314 15.5725191,29.1097454 21.7059409,29.1097454 C26.0869565,29.1097454 30.8359193,27.4661984 31.951087,24.7796313 Z M83.4782609,0 L68.9270044,36 L56.3669725,36 L41.7391304,0 L51.8960379,0 L62.6469884,27.4659401 L62.8767451,27.4659401 L73.6395512,0 L83.4782609,0 Z M97.8431877,29 C102.856476,29 108.322981,26.3604238 108.322981,23.1601708 L108.322981,21 L99.7446881,21.4267004 C95.2141609,21.6400506 89.4409938,21.4267004 89.4409938,24.8003004 C89.4409938,28.1739005 93.906828,29 97.8431877,29 Z M94.8170321,36 C87.2019756,36 81.4906832,31.7740512 81.4906832,25.5145631 C81.4906832,19.1597529 86.9864551,15.5692851 97.079997,15.0291262 L108.803069,14.4889673 L108.803069,12.1694616 C108.803069,8.80141218 104.335853,6.95851721 100.025443,6.95851721 C96.2179151,6.95851721 92.2940758,8.73786408 91.7911947,11.2797882 L83.4662875,11.2797882 C83.7536481,4.60723742 90.5784629,0 100.456484,0 C110.621866,0 117.267081,4.60723742 117.267081,11.5975287 L117.267081,35.5869373 L108.803069,35.5869373 L108.803069,32.3147978 L108.587549,32.3147978 C106.432344,35.9688137 99.8817631,36 94.8170321,36 Z M122.236025,36 L122.236025,0.515666965 L131.196923,0.515666965 L131.196923,5.17895508 L131.420379,5.17895508 C133.766661,0.699098319 139.479339,0 145.773335,0 C154.860524,0 160,4.96329454 160,13.2461952 L160,36 L149.971306,36 L149.971306,15.7600716 C149.971306,11.0546106 148.193671,7.83169203 141.453196,7.83169203 C134.71272,7.83169203 131.569349,11.0546106 131.569349,15.7600716 L131.569349,36 L122.236025,36 Z" id="evan" fill="#000000"></path>
    </g>
</svg>