<?xml version="1.0" standalone="no"?><!DOCTYPE svg PUBLIC "-//W3C//DTD SVG 1.1//EN" "http://www.w3.org/Graphics/SVG/1.1/DTD/svg11.dtd"><svg width="100%" height="100%" viewBox="0 0 203 64" version="1.1" xmlns="http://www.w3.org/2000/svg" xmlns:xlink="http://www.w3.org/1999/xlink" xml:space="preserve" style="fill-rule:evenodd;clip-rule:evenodd;stroke-linejoin:round;stroke-miterlimit:1.41421;"><g><g><path d="M4.503,14.333l0,20.256l6.816,0l0,-20.256l4.704,0l0,-4.56l-4.704,0l0,-1.488c0,-1.024 0.2,-1.752 0.6,-2.184c0.4,-0.432 1.064,-0.648 1.992,-0.648c0.864,0 1.696,0.048 2.496,0.144l0,-5.088c-0.576,-0.032 -1.168,-0.072 -1.776,-0.12c-0.608,-0.048 -1.216,-0.072 -1.824,-0.072c-2.784,0 -4.864,0.704 -6.24,2.112c-1.376,1.408 -2.064,3.216 -2.064,5.424l0,1.92l-4.08,0l0,4.56l4.08,0Z" style="fill:#000;fill-rule:nonzero;"/><path d="M35.703,19.517l-11.088,0c0.032,-0.48 0.136,-1.024 0.312,-1.632c0.176,-0.608 0.48,-1.184 0.912,-1.728c0.432,-0.544 1.008,-1 1.728,-1.368c0.72,-0.368 1.624,-0.552 2.712,-0.552c1.664,0 2.904,0.448 3.72,1.344c0.816,0.896 1.384,2.208 1.704,3.936ZM24.615,23.837l17.904,0c0.128,-1.92 -0.032,-3.76 -0.48,-5.52c-0.448,-1.76 -1.176,-3.328 -2.184,-4.704c-1.008,-1.376 -2.296,-2.472 -3.864,-3.288c-1.568,-0.816 -3.408,-1.224 -5.52,-1.224c-1.888,0 -3.608,0.336 -5.16,1.008c-1.552,0.672 -2.888,1.592 -4.008,2.76c-1.12,1.168 -1.984,2.552 -2.592,4.152c-0.608,1.6 -0.912,3.328 -0.912,5.184c0,1.92 0.296,3.68 0.888,5.28c0.592,1.6 1.432,2.976 2.52,4.128c1.088,1.152 2.416,2.04 3.984,2.664c1.568,0.624 3.328,0.936 5.28,0.936c2.816,0 5.216,-0.64 7.2,-1.92c1.984,-1.28 3.456,-3.408 4.416,-6.384l-6,0c-0.224,0.768 -0.832,1.496 -1.824,2.184c-0.992,0.688 -2.176,1.032 -3.552,1.032c-1.92,0 -3.392,-0.496 -4.416,-1.488c-1.024,-0.992 -1.584,-2.592 -1.68,-4.8Z" style="fill:#000;fill-rule:nonzero;"/><path d="M46.551,9.773l0,24.816l6.816,0l0,-13.008c0,-2.528 0.416,-4.344 1.248,-5.448c0.832,-1.104 2.176,-1.656 4.032,-1.656c1.632,0 2.768,0.504 3.408,1.512c0.64,1.008 0.96,2.536 0.96,4.584l0,14.016l6.816,0l0,-15.264c0,-1.536 -0.136,-2.936 -0.408,-4.2c-0.272,-1.264 -0.744,-2.336 -1.416,-3.216c-0.672,-0.88 -1.592,-1.568 -2.76,-2.064c-1.168,-0.496 -2.664,-0.744 -4.488,-0.744c-1.44,0 -2.848,0.328 -4.224,0.984c-1.376,0.656 -2.496,1.704 -3.36,3.144l-0.144,0l0,-3.456l-6.48,0Z" style="fill:#000;fill-rule:nonzero;"/><path d="M86.583,28.733c-1.056,0 -1.936,-0.224 -2.64,-0.672c-0.704,-0.448 -1.272,-1.024 -1.704,-1.728c-0.432,-0.704 -0.736,-1.496 -0.912,-2.376c-0.176,-0.88 -0.264,-1.768 -0.264,-2.664c0,-0.928 0.104,-1.816 0.312,-2.664c0.208,-0.848 0.544,-1.6 1.008,-2.256c0.464,-0.656 1.04,-1.176 1.728,-1.56c0.688,-0.384 1.512,-0.576 2.472,-0.576c1.12,0 2.048,0.208 2.784,0.624c0.736,0.416 1.328,0.976 1.776,1.68c0.448,0.704 0.768,1.512 0.96,2.424c0.192,0.912 0.288,1.88 0.288,2.904c0,0.896 -0.12,1.752 -0.36,2.568c-0.24,0.816 -0.6,1.544 -1.08,2.184c-0.48,0.64 -1.088,1.152 -1.824,1.536c-0.736,0.384 -1.584,0.576 -2.544,0.576ZM98.871,33.005l0,-23.232l-6.48,0l0,3.312l-0.096,0c-0.832,-1.44 -1.864,-2.464 -3.096,-3.072c-1.232,-0.608 -2.664,-0.912 -4.296,-0.912c-1.728,0 -3.256,0.336 -4.584,1.008c-1.328,0.672 -2.44,1.576 -3.336,2.712c-0.896,1.136 -1.576,2.448 -2.04,3.936c-0.464,1.488 -0.696,3.032 -0.696,4.632c0,1.696 0.2,3.304 0.6,4.824c0.4,1.52 1.032,2.848 1.896,3.984c0.864,1.136 1.968,2.032 3.312,2.688c1.344,0.656 2.944,0.984 4.8,0.984c1.504,0 2.936,-0.312 4.296,-0.936c1.36,-0.624 2.408,-1.592 3.144,-2.904l0.096,0l0,3.264c0.032,1.76 -0.392,3.216 -1.272,4.368c-0.88,1.152 -2.28,1.728 -4.2,1.728c-1.216,0 -2.288,-0.248 -3.216,-0.744c-0.928,-0.496 -1.552,-1.384 -1.872,-2.664l-6.768,0c0.096,1.408 0.488,2.616 1.176,3.624c0.688,1.008 1.552,1.832 2.592,2.472c1.04,0.64 2.192,1.112 3.456,1.416c1.264,0.304 2.504,0.456 3.72,0.456c2.848,0 5.12,-0.384 6.816,-1.152c1.696,-0.768 2.992,-1.704 3.888,-2.808c0.896,-1.104 1.48,-2.296 1.752,-3.576c0.272,-1.28 0.408,-2.416 0.408,-3.408Z" style="fill:#000;fill-rule:nonzero;"/><path d="M116.151,29.453l0,5.136l22.8,0l0,-5.136l-13.824,0l12.912,-14.544l0,-5.136l-20.928,0l0,5.136l11.952,0l-12.912,14.544Z" style="fill:#000;fill-rule:nonzero;"/><path d="M159.303,19.517l-11.088,0c0.032,-0.48 0.136,-1.024 0.312,-1.632c0.176,-0.608 0.48,-1.184 0.912,-1.728c0.432,-0.544 1.008,-1 1.728,-1.368c0.72,-0.368 1.624,-0.552 2.712,-0.552c1.664,0 2.904,0.448 3.72,1.344c0.816,0.896 1.384,2.208 1.704,3.936ZM148.215,23.837l17.904,0c0.128,-1.92 -0.032,-3.76 -0.48,-5.52c-0.448,-1.76 -1.176,-3.328 -2.184,-4.704c-1.008,-1.376 -2.296,-2.472 -3.864,-3.288c-1.568,-0.816 -3.408,-1.224 -5.52,-1.224c-1.888,0 -3.608,0.336 -5.16,1.008c-1.552,0.672 -2.888,1.592 -4.008,2.76c-1.12,1.168 -1.984,2.552 -2.592,4.152c-0.608,1.6 -0.912,3.328 -0.912,5.184c0,1.92 0.296,3.68 0.888,5.28c0.592,1.6 1.432,2.976 2.52,4.128c1.088,1.152 2.416,2.04 3.984,2.664c1.568,0.624 3.328,0.936 5.28,0.936c2.816,0 5.216,-0.64 7.2,-1.92c1.984,-1.28 3.456,-3.408 4.416,-6.384l-6,0c-0.224,0.768 -0.832,1.496 -1.824,2.184c-0.992,0.688 -2.176,1.032 -3.552,1.032c-1.92,0 -3.392,-0.496 -4.416,-1.488c-1.024,-0.992 -1.584,-2.592 -1.68,-4.8Z" style="fill:#000;fill-rule:nonzero;"/><path d="M176.487,21.533l-8.928,13.056l7.632,0l5.184,-7.824l5.184,7.824l7.776,0l-9.168,-13.2l8.16,-11.616l-7.536,0l-4.32,6.48l-4.368,-6.48l-7.776,0l8.16,11.76Z" style="fill:#000;fill-rule:nonzero;"/><path d="M202.935,5.933l0,-5.616l-6.816,0l0,5.616l6.816,0ZM196.119,9.773l0,24.816l6.816,0l0,-24.816l-6.816,0Z" style="fill:#000;fill-rule:nonzero;"/></g><path d="M2.199,49.858l-0.976,0.608c1.04,1.36 1.872,2.592 2.48,3.696l0.96,-0.672c-0.576,-1.024 -1.392,-2.24 -2.464,-3.632ZM3.831,56.466c-0.736,2.256 -1.6,4.464 -2.608,6.624l1.088,0.48c0.944,-2.096 1.792,-4.32 2.56,-6.688l-1.04,-0.416ZM7.511,52.018l-1.136,5.344l7.648,0c0,2.528 -0.16,4.064 -0.464,4.592c-0.304,0.512 -1.2,0.784 -2.704,0.784c-0.304,0 -0.832,-0.032 -1.584,-0.096l0.304,1.088c0.544,0.032 1.056,0.048 1.536,0.048c1.664,0 2.752,-0.288 3.264,-0.864c0.512,-0.608 0.768,-2.816 0.768,-6.624l-2.208,0l1.056,-6.336l-8.096,0l0,1.088l6.816,0l-0.912,5.248l-4.064,0l0.88,-4.208l-1.104,-0.064ZM5.175,59.378l0,1.088l7.376,0l0,-1.088l-7.376,0Z" style="fill:#000;fill-rule:nonzero;"/><g><path d="M120.792,49.938l0,1.04l0.976,0c0.48,1.216 1.248,2.24 2.304,3.056c-1.104,0.512 -2.432,0.944 -4,1.296l0.56,0.976c1.76,-0.416 3.248,-0.944 4.496,-1.584c1.28,0.704 2.88,1.184 4.832,1.44l0.416,-1.04c-1.632,-0.192 -3.024,-0.544 -4.176,-1.056c1.264,-0.864 2.144,-1.92 2.624,-3.168l0,-0.96l-8.032,0ZM122.872,50.978l4.736,0c-0.512,0.96 -1.36,1.792 -2.512,2.496c-1.024,-0.656 -1.76,-1.488 -2.224,-2.496ZM121.096,57.33l0,1.056l3.488,0l0,1.776l-4.384,0l0,1.104l4.384,0l0,2.688l1.104,0l0,-2.688l4.352,0l0,-1.104l-4.352,0l0,-1.776l3.472,0l0,-1.056l-3.472,0l0,-1.248l-1.104,0l0,1.248l-3.488,0ZM117.032,49.554l-0.816,0.784c1.28,0.864 2.272,1.664 3.008,2.432l0.816,-0.832c-0.8,-0.8 -1.808,-1.584 -3.008,-2.384ZM116.664,53.282l-0.816,0.8c1.2,0.864 2.144,1.664 2.816,2.432l0.816,-0.816c-0.752,-0.8 -1.696,-1.616 -2.816,-2.416ZM118.904,57.762c-0.8,1.888 -1.744,3.728 -2.832,5.52l1.152,0.512c0.992,-1.76 1.904,-3.632 2.72,-5.616l-1.04,-0.416Z" style="fill:#000;fill-rule:nonzero;"/><path d="M131.784,49.986l0,1.12l4.768,0l0,2.448l-3.808,0l0,10.32l1.152,0l0,-0.72l10.08,0l0,0.72l1.152,0l0,-10.32l-3.904,0l0,-2.448l4.832,0l0,-1.12l-14.272,0ZM133.896,62.066l0,-7.424l2.656,0l0,0.32c-0.032,2.176 -0.832,3.76 -2.4,4.752l0.896,0.784c1.728,-1.168 2.608,-3.008 2.64,-5.536l0,-0.32l2.4,0l0,3.312c0,1.04 0.512,1.568 1.568,1.568l2.32,0l0,2.544l-10.08,0ZM137.688,51.106l2.4,0l0,2.448l-2.4,0l0,-2.448ZM141.224,54.642l2.752,0l0,3.824l-2.016,0c-0.496,0 -0.736,-0.256 -0.736,-0.752l0,-3.072Z" style="fill:#000;fill-rule:nonzero;"/></g></g></svg>