<?xml version="1.0" standalone="no"?><!DOCTYPE svg PUBLIC "-//W3C//DTD SVG 1.1//EN" "http://www.w3.org/Graphics/SVG/1.1/DTD/svg11.dtd"><svg width="100%" height="100%" viewBox="0 0 81 81" version="1.1" xmlns="http://www.w3.org/2000/svg" xmlns:xlink="http://www.w3.org/1999/xlink" xml:space="preserve" style="fill-rule:evenodd;clip-rule:evenodd;stroke-linecap:round;stroke-linejoin:round;stroke-miterlimit:1.41421;"><g id="icon"><clipPath id="_clip1"><rect x="0.282" y="0.719" width="80" height="80"/></clipPath><g clip-path="url(#_clip1)"><g><path id="圆角矩形 1" d="M80.282,17.806c0,-9.43 -7.656,-17.087 -17.087,-17.087l-45.825,0c-9.431,0 -17.088,7.657 -17.088,17.087l0,45.826c0,9.431 7.657,17.087 17.088,17.087l45.825,0c9.431,0 17.087,-7.656 17.087,-17.087l0,-45.826Z" style="fill:#2e2e2e;"/><circle cx="40.282" cy="19.192" r="3.107" style="fill:#6bff00;"/><path d="M52.625,19.288c1.485,0.858 1.995,2.759 1.137,4.244c-0.857,1.485 -2.759,1.995 -4.244,1.138c-1.485,-0.858 -1.994,-2.759 -1.137,-4.244c0.858,-1.485 2.759,-1.995 4.244,-1.138Z" style="fill:#6bff00;"/><path d="M61.972,28.294c0.857,1.485 0.348,3.386 -1.137,4.244c-1.485,0.857 -3.387,0.347 -4.244,-1.138c-0.857,-1.484 -0.348,-3.386 1.137,-4.243c1.485,-0.858 3.387,-0.348 4.244,1.137Z" style="fill:#6bff00;"/><path d="M65.304,40.719c0,1.715 -1.392,3.107 -3.106,3.107c-1.715,0 -3.107,-1.392 -3.107,-3.107c0,-1.715 1.392,-3.107 3.107,-3.107c1.714,0 3.106,1.392 3.106,3.107Z" style="fill:#6bff00;"/><path d="M61.781,53.206c-0.857,1.485 -2.759,1.995 -4.244,1.138c-1.485,-0.858 -1.994,-2.759 -1.137,-4.244c0.858,-1.485 2.759,-1.995 4.244,-1.138c1.485,0.858 1.995,2.759 1.137,4.244Z" style="fill:#6bff00;"/><path d="M50.991,59.61c-10.426,5.696 -23.515,1.856 -29.211,-8.57c-5.696,-10.426 -1.856,-23.515 8.57,-29.211" style="fill:none;stroke-width:6.21px;stroke:#dfdfdf;"/></g></g></g></svg>