<?xml version="1.0" standalone="no"?><!DOCTYPE svg PUBLIC "-//W3C//DTD SVG 1.1//EN" "http://www.w3.org/Graphics/SVG/1.1/DTD/svg11.dtd"><svg width="100%" height="100%" viewBox="0 0 81 81" version="1.1" xmlns="http://www.w3.org/2000/svg" xmlns:xlink="http://www.w3.org/1999/xlink" xml:space="preserve" style="fill-rule:evenodd;clip-rule:evenodd;stroke-linecap:round;stroke-linejoin:round;stroke-miterlimit:1.41421;"><g id="icon"><clipPath id="_clip1"><rect x="0.9" y="0.719" width="80" height="80"/></clipPath><g clip-path="url(#_clip1)"><g><path id="圆角矩形 1" d="M80.9,17.806c0,-9.43 -7.656,-17.087 -17.087,-17.087l-45.825,0c-9.431,0 -17.088,7.657 -17.088,17.087l0,45.826c0,9.431 7.657,17.087 17.088,17.087l45.825,0c9.431,0 17.087,-7.656 17.087,-17.087l0,-45.826Z" style="fill:#2e2e2e;"/><path d="M51.165,39.259l0,-10.738c0,-5.666 -4.599,-10.265 -10.265,-10.265c-5.665,0 -10.265,4.599 -10.265,10.265l0,2.07" style="fill:none;stroke-width:4.02px;stroke:#9c9c9c;"/><path d="M54.921,35.344c2.08,0 3.769,1.689 3.769,3.769l0,17.11c0,3.841 -3.119,6.96 -6.96,6.96l-21.659,0c-3.841,0 -6.96,-3.119 -6.96,-6.96l0,-17.11c0,-2.08 1.689,-3.769 3.769,-3.769l28.041,0ZM40.9,43.802c5.586,0 10.12,2.447 10.12,5.461c0,3.014 -4.534,5.461 -10.12,5.461c-5.585,0 -10.119,-2.447 -10.119,-5.461c0,-3.014 4.534,-5.461 10.119,-5.461Z" style="fill:#dfdfdf;"/><path d="M40.9,45.643c1.999,0 3.621,1.622 3.621,3.62c0,1.999 -1.622,3.621 -3.621,3.621c-1.998,0 -3.62,-1.622 -3.62,-3.621c0,-1.998 1.622,-3.62 3.62,-3.62ZM40.9,48.03c0.681,0 1.234,0.552 1.234,1.233c0,0.681 -0.553,1.234 -1.234,1.234c-0.68,0 -1.233,-0.553 -1.233,-1.234c0,-0.681 0.553,-1.233 1.233,-1.233Z" style="fill:#00e6ff;"/></g></g></g></svg>