<?xml version="1.0" standalone="no"?><!DOCTYPE svg PUBLIC "-//W3C//DTD SVG 1.1//EN" "http://www.w3.org/Graphics/SVG/1.1/DTD/svg11.dtd"><svg width="100%" height="100%" viewBox="0 0 81 81" version="1.1" xmlns="http://www.w3.org/2000/svg" xmlns:xlink="http://www.w3.org/1999/xlink" xml:space="preserve" style="fill-rule:evenodd;clip-rule:evenodd;stroke-linejoin:round;stroke-miterlimit:1.41421;"><g id="icon_sv"><path id="圆角矩形 1" d="M80.686,17.755c0,-9.431 -7.657,-17.087 -17.088,-17.087l-45.825,0c-9.431,0 -17.087,7.656 -17.087,17.087l0,45.825c0,9.431 7.656,17.088 17.087,17.088l45.825,0c9.431,0 17.088,-7.657 17.088,-17.088l0,-45.825Z" style="fill:#2e2e2e;"/><path d="M44.827,20.244c-2.286,-2.285 -5.997,-2.285 -8.283,0l-16.282,16.282c-2.286,2.286 -2.286,5.998 0,8.283l16.282,16.282c2.286,2.286 5.997,2.286 8.283,0l16.282,-16.282c2.286,-2.285 2.286,-5.997 0,-8.283l-16.282,-16.282ZM40.703,54.569c1.364,0 2.471,-1.107 2.471,-2.472l0,-14.967c0,-1.365 -1.107,-2.472 -2.471,-2.472l-0.035,0c-1.364,0 -2.471,1.107 -2.471,2.472l0,14.967c0,1.365 1.107,2.472 2.471,2.472l0.035,0ZM40.686,26.767c1.373,0 2.488,1.115 2.488,2.488c0,1.374 -1.115,2.489 -2.488,2.489c-1.374,0 -2.489,-1.115 -2.489,-2.489c0,-1.373 1.115,-2.488 2.489,-2.488Z" style="fill:#fff100;"/></g></svg>