<?xml version="1.0" standalone="no"?><!DOCTYPE svg PUBLIC "-//W3C//DTD SVG 1.1//EN" "http://www.w3.org/Graphics/SVG/1.1/DTD/svg11.dtd"><svg width="100%" height="100%" viewBox="0 0 64 63" version="1.1" xmlns="http://www.w3.org/2000/svg" xmlns:xlink="http://www.w3.org/1999/xlink" xml:space="preserve" style="fill-rule:evenodd;clip-rule:evenodd;stroke-linejoin:round;stroke-miterlimit:1.41421;"><path d="M31.912,0.438c-17.489,0 -31.672,14.181 -31.672,31.678c0,13.993 9.075,25.866 21.662,30.055c1.585,0.289 2.162,-0.689 2.162,-1.527c0,-0.752 -0.027,-2.744 -0.042,-5.388c-8.811,1.915 -10.67,-4.245 -10.67,-4.245c-1.441,-3.66 -3.518,-4.634 -3.518,-4.634c-2.876,-1.966 0.218,-1.925 0.218,-1.925c3.179,0.224 4.852,3.263 4.852,3.263c2.825,4.842 7.414,3.444 9.219,2.633c0.287,-2.048 1.106,-3.444 2.01,-4.235c-7.033,-0.799 -14.428,-3.518 -14.428,-15.656c0,-3.457 1.235,-6.284 3.261,-8.499c-0.327,-0.801 -1.414,-4.021 0.311,-8.383c0,0 2.658,-0.852 8.71,3.247c2.526,-0.702 5.236,-1.054 7.929,-1.065c2.692,0.011 5.4,0.363 7.93,1.065c6.048,-4.099 8.702,-3.247 8.702,-3.247c1.729,4.362 0.642,7.582 0.317,8.383c2.03,2.215 3.255,5.042 3.255,8.499c0,12.169 -7.407,14.847 -14.461,15.63c1.135,0.979 2.148,2.911 2.148,5.867c0,4.235 -0.039,7.652 -0.039,8.69c0,0.846 0.572,1.832 2.178,1.523c12.577,-4.197 21.645,-16.062 21.645,-30.051c0,-17.497 -14.184,-31.678 -31.679,-31.678Z" style="fill:#181717;"/></svg>