<?xml version="1.0" standalone="no"?><!DOCTYPE svg PUBLIC "-//W3C//DTD SVG 1.1//EN" "http://www.w3.org/Graphics/SVG/1.1/DTD/svg11.dtd"><svg width="100%" height="100%" viewBox="0 0 37 22" version="1.1" xmlns="http://www.w3.org/2000/svg" xmlns:xlink="http://www.w3.org/1999/xlink" xml:space="preserve" style="fill-rule:evenodd;clip-rule:evenodd;stroke-linejoin:round;stroke-miterlimit:1.41421;"><g><path d="M2.55,9.425l0,12.298l4.26,0l0,-12.298l2.94,0l0,-3.212l-2.94,0l0,-0.93c0,-0.64 0.125,-1.095 0.375,-1.365c0.25,-0.27 0.665,-0.405 1.245,-0.405c0.54,0 1.06,0.03 1.56,0.09l0,-3.18c-0.36,-0.02 -0.73,-0.045 -1.11,-0.075c-0.38,-0.03 -0.76,-0.045 -1.14,-0.045c-1.74,0 -3.04,0.44 -3.9,1.32c-0.86,0.88 -1.29,2.01 -1.29,3.39l0,1.2l-2.55,0l0,3.212l2.55,0Z" style="fill:#000;fill-rule:nonzero;"/><path d="M7.83,18.513l0,3.21l14.25,0l0,-3.21l-8.64,0l8.914,-9.421l-0.844,-2.879l-13.08,0l0,3.21l7.47,0l-8.07,9.09Z" style="fill:#000;fill-rule:nonzero;"/><path d="M25.5,13.563l-5.58,8.16l4.77,0l3.24,-4.89l3.24,4.89l4.86,0l-5.73,-8.25l5.1,-7.26l-4.71,0l-2.7,4.05l-2.73,-4.05l-4.86,0l5.1,7.35Z" style="fill:#000;fill-rule:nonzero;"/></g></svg>