<?xml version="1.0" standalone="no"?><!DOCTYPE svg PUBLIC "-//W3C//DTD SVG 1.1//EN" "http://www.w3.org/Graphics/SVG/1.1/DTD/svg11.dtd"><svg width="100%" height="100%" viewBox="0 0 188 217" version="1.1" xmlns="http://www.w3.org/2000/svg" xmlns:xlink="http://www.w3.org/1999/xlink" xml:space="preserve" style="fill-rule:evenodd;clip-rule:evenodd;stroke-linecap:round;stroke-linejoin:round;stroke-miterlimit:1.41421;"><g><g><path d="M187.418,5.956c0,-2.208 -1.792,-4 -4,-4l-172,0c-2.207,0 -4,1.792 -4,4l0,24c0,2.207 1.793,4 4,4l172,0c2.208,0 4,-1.793 4,-4l0,-24Z" style="fill:#e0e0e0;"/><path d="M24.457,23.683c2.192,0 3.952,-1.12 4.832,-3.184l-1.84,-0.752c-0.592,1.488 -1.568,2.048 -2.992,2.048c-2.368,0 -3.376,-1.68 -3.376,-3.872c0,-2.048 1.008,-3.728 3.344,-3.728c1.44,0 2.576,0.56 2.992,2.016l1.856,-0.736c-0.896,-2.064 -2.64,-3.168 -4.832,-3.168c-3.632,0 -5.328,2.672 -5.328,5.696c0,3.024 1.712,5.68 5.344,5.68Z" style="fill:#5b5b5b;fill-rule:nonzero;"/><path d="M33.113,23.683c1.04,0 1.84,-0.304 2.512,-1.28l0.208,1.12l1.488,0l0,-4.736c0,-1.904 -1.248,-3.2 -3.376,-3.2c-1.472,0 -2.48,0.592 -3.28,1.68l1.456,1.056c0.304,-0.544 0.976,-1.072 1.76,-1.072c1.136,0 1.616,0.624 1.616,1.616l-2.032,0c-1.744,0 -3.2,0.528 -3.2,2.32c0,1.536 1.36,2.496 2.848,2.496ZM33.465,22.067c-0.736,0 -1.248,-0.368 -1.248,-0.88c0,-0.496 0.496,-0.944 1.36,-0.944l1.92,0c-0.032,0.976 -0.944,1.824 -2.032,1.824Z" style="fill:#5b5b5b;fill-rule:nonzero;"/><path d="M39.241,23.523l1.84,0l0,-3.616c0,-1.392 0.736,-2.496 1.808,-2.496c0.416,0 0.64,0.08 0.864,0.272l0.864,-1.568c-0.464,-0.368 -1.136,-0.512 -1.648,-0.512c-0.656,0 -1.328,0.304 -1.872,1.104l0,-0.992l-1.856,0l0,7.808Z" style="fill:#5b5b5b;fill-rule:nonzero;"/><path d="M48.185,23.683c0.832,0 1.648,-0.224 2.24,-0.944l0,0.784l1.936,0l0,-11.04l-1.936,0l0,4.016c-0.544,-0.672 -1.392,-0.944 -2.24,-0.944c-2.128,0 -3.328,1.904 -3.328,4.064c0,2.16 1.2,4.064 3.328,4.064ZM48.665,21.923c-1.264,0 -1.872,-0.992 -1.872,-2.304c0,-1.296 0.608,-2.336 1.872,-2.336c1.28,0 1.84,1.024 1.84,2.336c0,1.328 -0.56,2.304 -1.84,2.304Z" style="fill:#5b5b5b;fill-rule:nonzero;"/><rect x="54.761" y="17.923" width="4.56" height="1.44" style="fill:#5b5b5b;fill-rule:nonzero;"/><path d="M65.065,23.651c2.112,0 3.84,-1.264 3.84,-3.328c0,-3.664 -5.312,-3.264 -5.312,-5.024c0,-0.672 0.624,-1.216 1.376,-1.216c0.72,0 1.376,0.432 1.76,1.184l1.648,-1.008c-0.752,-1.344 -1.984,-1.936 -3.408,-1.936c-1.808,0 -3.392,1.136 -3.392,2.96c0,3.504 5.312,3.104 5.312,5.008c0,0.992 -0.656,1.52 -1.824,1.52c-1.184,0 -2.128,-0.672 -2.256,-1.904l-1.968,0.496c0.352,2.176 2.272,3.248 4.224,3.248Z" style="fill:#5b5b5b;fill-rule:nonzero;"/><path d="M73.737,23.619c1.296,0 2.336,-0.368 3.248,-1.344l-1.312,-1.152c-0.56,0.576 -1.104,0.72 -1.952,0.72c-1.136,0 -1.744,-0.64 -1.872,-1.6l5.36,0c0,0 0.064,-0.24 0.064,-0.592c0,-2.016 -0.832,-4.032 -3.68,-4.032c-2.544,0 -3.76,2 -3.76,4.048c0,2.08 1.296,3.952 3.904,3.952ZM71.849,18.867c0.16,-0.944 0.688,-1.648 1.744,-1.648c1.136,0 1.68,0.592 1.808,1.648l-3.552,0Z" style="fill:#5b5b5b;fill-rule:nonzero;"/><path d="M80.553,23.683c0.576,0 1.376,-0.16 1.376,-0.16l0,-1.6c0,0 -0.352,0.048 -0.48,0.048c-0.448,0 -0.672,-0.16 -0.672,-0.528l0,-8.96l-1.904,0l0,9.488c0,1.392 0.736,1.712 1.68,1.712Z" style="fill:#5b5b5b;fill-rule:nonzero;"/><path d="M86.697,23.619c1.296,0 2.336,-0.368 3.248,-1.344l-1.312,-1.152c-0.56,0.576 -1.104,0.72 -1.952,0.72c-1.136,0 -1.744,-0.64 -1.872,-1.6l5.36,0c0,0 0.064,-0.24 0.064,-0.592c0,-2.016 -0.832,-4.032 -3.68,-4.032c-2.544,0 -3.76,2 -3.76,4.048c0,2.08 1.296,3.952 3.904,3.952ZM84.809,18.867c0.16,-0.944 0.688,-1.648 1.744,-1.648c1.136,0 1.68,0.592 1.808,1.648l-3.552,0Z" style="fill:#5b5b5b;fill-rule:nonzero;"/><path d="M94.969,23.683c1.552,0 2.768,-0.864 3.28,-2.32l-1.728,-0.656c-0.208,0.736 -0.8,1.184 -1.568,1.184c-1.328,0 -1.824,-1.072 -1.824,-2.256c0,-1.168 0.512,-2.256 1.824,-2.256c0.784,0 1.36,0.432 1.568,1.184l1.808,-0.704c-0.592,-1.392 -1.824,-2.272 -3.376,-2.272c-2.544,0 -3.76,2 -3.76,4.048c0,2.064 1.232,4.048 3.776,4.048Z" style="fill:#5b5b5b;fill-rule:nonzero;"/><path d="M102.345,23.683c0.784,0 1.408,-0.24 1.408,-0.24l0,-1.728c0,0 -0.56,0.272 -1.184,0.272c-0.592,0 -0.848,-0.256 -0.848,-0.64l0,-3.904l2.032,0l0,-1.728l-2.032,0l0,-3.296l-1.792,1.36l0,1.936l-1.296,0l0,1.728l1.264,0l0,3.92c0,1.424 0.912,2.32 2.448,2.32Z" style="fill:#5b5b5b;fill-rule:nonzero;"/><path d="M105.177,14.259l2,0l0,-1.76l-2,0l0,1.76ZM105.241,23.523l1.888,0l0,-7.808l-1.888,0l0,7.808Z" style="fill:#5b5b5b;fill-rule:nonzero;"/><path d="M112.825,23.683c2.416,0 4.08,-1.824 4.08,-4.032c0,-2.208 -1.664,-4.032 -4.08,-4.032c-2.416,0 -4.08,1.824 -4.08,4.032c0,2.208 1.664,4.032 4.08,4.032ZM112.825,22.035c-1.44,0 -2.016,-1.104 -2.016,-2.384c0,-1.28 0.576,-2.384 2.016,-2.384c1.44,0 2.016,1.104 2.016,2.384c0,1.28 -0.576,2.384 -2.016,2.384Z" style="fill:#5b5b5b;fill-rule:nonzero;"/><path d="M118.585,23.523l1.936,0l0,-4.272c0,-0.976 0.896,-1.888 1.952,-1.888c0.992,0 1.248,0.752 1.248,1.712l0,4.448l1.936,0l0,-4.688c0,-1.632 -0.832,-3.248 -2.88,-3.248c-0.768,0 -1.632,0.272 -2.256,1.04l0,-0.912l-1.936,0l0,7.808Z" style="fill:#5b5b5b;fill-rule:nonzero;"/><path d="M134.553,23.523l1.984,0l0,-9.264l3.456,0l0,-1.776l-8.896,0l0,1.776l3.456,0l0,9.264Z" style="fill:#5b5b5b;fill-rule:nonzero;"/><path d="M142.937,23.619c1.296,0 2.336,-0.368 3.248,-1.344l-1.312,-1.152c-0.56,0.576 -1.104,0.72 -1.952,0.72c-1.136,0 -1.744,-0.64 -1.872,-1.6l5.36,0c0,0 0.064,-0.24 0.064,-0.592c0,-2.016 -0.832,-4.032 -3.68,-4.032c-2.544,0 -3.76,2 -3.76,4.048c0,2.08 1.296,3.952 3.904,3.952ZM141.049,18.867c0.16,-0.944 0.688,-1.648 1.744,-1.648c1.136,0 1.68,0.592 1.808,1.648l-3.552,0Z" style="fill:#5b5b5b;fill-rule:nonzero;"/><path d="M150.473,23.683c1.472,0 3.04,-0.8 3.04,-2.608c0,-2.864 -3.968,-2.16 -3.968,-3.344c0,-0.368 0.384,-0.624 1.008,-0.624c0.848,0 1.28,0.464 1.552,0.944l1.36,-0.736c-0.512,-0.912 -1.488,-1.712 -2.928,-1.712c-1.392,0 -2.816,0.736 -2.816,2.384c0,2.736 3.92,1.872 3.92,3.184c0,0.416 -0.384,0.928 -1.264,0.928c-1.04,0 -1.456,-0.72 -1.664,-1.28l-1.52,0.672c0.384,1.2 1.632,2.192 3.28,2.192Z" style="fill:#5b5b5b;fill-rule:nonzero;"/><path d="M157.865,23.683c0.784,0 1.408,-0.24 1.408,-0.24l0,-1.728c0,0 -0.56,0.272 -1.184,0.272c-0.592,0 -0.848,-0.256 -0.848,-0.64l0,-3.904l2.032,0l0,-1.728l-2.032,0l0,-3.296l-1.792,1.36l0,1.936l-1.296,0l0,1.728l1.264,0l0,3.92c0,1.424 0.912,2.32 2.448,2.32Z" style="fill:#5b5b5b;fill-rule:nonzero;"/></g><g><path d="M187.418,128.261c0,-2.207 -1.792,-4 -4,-4l-172,0c-2.207,0 -4,1.793 -4,4l0,24c0,2.208 1.793,4 4,4l172,0c2.208,0 4,-1.792 4,-4l0,-24Z" style="fill:#dce9ff;"/><path d="M24.457,145.989c2.192,0 3.952,-1.12 4.832,-3.184l-1.84,-0.752c-0.592,1.488 -1.568,2.048 -2.992,2.048c-2.368,0 -3.376,-1.68 -3.376,-3.872c0,-2.048 1.008,-3.728 3.344,-3.728c1.44,0 2.576,0.56 2.992,2.016l1.856,-0.736c-0.896,-2.064 -2.64,-3.168 -4.832,-3.168c-3.632,0 -5.328,2.672 -5.328,5.696c0,3.024 1.712,5.68 5.344,5.68Z" style="fill:#008be3;fill-rule:nonzero;"/><path d="M34.233,145.989c2.416,0 4.08,-1.824 4.08,-4.032c0,-2.208 -1.664,-4.032 -4.08,-4.032c-2.416,0 -4.08,1.824 -4.08,4.032c0,2.208 1.664,4.032 4.08,4.032ZM34.233,144.341c-1.44,0 -2.016,-1.104 -2.016,-2.384c0,-1.28 0.576,-2.384 2.016,-2.384c1.44,0 2.016,1.104 2.016,2.384c0,1.28 -0.576,2.384 -2.016,2.384Z" style="fill:#008be3;fill-rule:nonzero;"/><path d="M39.993,145.829l1.92,0l0,-4.288c0,-1.04 0.608,-1.888 1.632,-1.888c0.992,0 1.248,0.752 1.248,1.696l0,4.48l1.936,0l0,-4.288c0,-1.04 0.608,-1.888 1.632,-1.888c0.992,0 1.264,0.768 1.264,1.728l0,4.448l1.936,0l0,-4.688c0,-1.632 -0.864,-3.248 -2.896,-3.248c-0.976,0 -1.968,0.384 -2.576,1.184c-0.512,-0.768 -1.232,-1.2 -2.24,-1.2c-0.672,0 -1.424,0.256 -1.936,0.96l0,-0.816l-1.92,0l0,7.808Z" style="fill:#008be3;fill-rule:nonzero;"/><path d="M53.545,149.253l1.936,0l0,-4.208c0.544,0.672 1.392,0.944 2.24,0.944c2.128,0 3.328,-1.904 3.328,-4.064c0,-2.16 -1.2,-4.064 -3.328,-4.064c-0.832,0 -1.648,0.224 -2.24,0.944l0,-0.784l-1.936,0l0,11.232ZM57.241,144.229c-1.28,0 -1.856,-0.992 -1.856,-2.304c0,-1.312 0.576,-2.352 1.856,-2.352c1.264,0 1.872,1.04 1.872,2.352c0,1.312 -0.608,2.304 -1.872,2.304Z" style="fill:#008be3;fill-rule:nonzero;"/><path d="M65.993,145.925c1.296,0 2.336,-0.368 3.248,-1.344l-1.312,-1.152c-0.56,0.576 -1.104,0.72 -1.952,0.72c-1.136,0 -1.744,-0.64 -1.872,-1.6l5.36,0c0,0 0.064,-0.24 0.064,-0.592c0,-2.016 -0.832,-4.032 -3.68,-4.032c-2.544,0 -3.76,2 -3.76,4.048c0,2.08 1.296,3.952 3.904,3.952ZM64.105,141.173c0.16,-0.944 0.688,-1.648 1.744,-1.648c1.136,0 1.68,0.592 1.808,1.648l-3.552,0Z" style="fill:#008be3;fill-rule:nonzero;"/><path d="M73.881,145.989c0.784,0 1.408,-0.24 1.408,-0.24l0,-1.728c0,0 -0.56,0.272 -1.184,0.272c-0.592,0 -0.848,-0.256 -0.848,-0.64l0,-3.904l2.032,0l0,-1.728l-2.032,0l0,-3.296l-1.792,1.36l0,1.936l-1.296,0l0,1.728l1.264,0l0,3.92c0,1.424 0.912,2.32 2.448,2.32Z" style="fill:#008be3;fill-rule:nonzero;"/><path d="M76.713,136.565l2,0l0,-1.76l-2,0l0,1.76ZM76.777,145.829l1.888,0l0,-7.808l-1.888,0l0,7.808Z" style="fill:#008be3;fill-rule:nonzero;"/><path d="M83.753,145.989c0.784,0 1.408,-0.24 1.408,-0.24l0,-1.728c0,0 -0.56,0.272 -1.184,0.272c-0.592,0 -0.848,-0.256 -0.848,-0.64l0,-3.904l2.032,0l0,-1.728l-2.032,0l0,-3.296l-1.792,1.36l0,1.936l-1.296,0l0,1.728l1.264,0l0,3.92c0,1.424 0.912,2.32 2.448,2.32Z" style="fill:#008be3;fill-rule:nonzero;"/><path d="M90.057,145.989c2.416,0 4.08,-1.824 4.08,-4.032c0,-2.208 -1.664,-4.032 -4.08,-4.032c-2.416,0 -4.08,1.824 -4.08,4.032c0,2.208 1.664,4.032 4.08,4.032ZM90.057,144.341c-1.44,0 -2.016,-1.104 -2.016,-2.384c0,-1.28 0.576,-2.384 2.016,-2.384c1.44,0 2.016,1.104 2.016,2.384c0,1.28 -0.576,2.384 -2.016,2.384Z" style="fill:#008be3;fill-rule:nonzero;"/><path d="M95.817,145.829l1.84,0l0,-3.616c0,-1.392 0.736,-2.496 1.808,-2.496c0.416,0 0.64,0.08 0.864,0.272l0.864,-1.568c-0.464,-0.368 -1.136,-0.512 -1.648,-0.512c-0.656,0 -1.328,0.304 -1.872,1.104l0,-0.992l-1.856,0l0,7.808Z" style="fill:#008be3;fill-rule:nonzero;"/><path d="M106.393,145.845l1.984,0l0,-4.736l1.344,0l2.72,4.736l2.256,0l-3.072,-4.928c1.248,-0.432 2.16,-1.488 2.16,-2.88c0,-2.048 -1.76,-3.232 -3.824,-3.232l-3.568,0l0,11.04ZM108.393,139.493l0,-2.912l1.584,0c1.136,0 1.84,0.592 1.84,1.488c0,0.832 -0.624,1.376 -1.68,1.424l-1.744,0Z" style="fill:#008be3;fill-rule:nonzero;"/><path d="M118.921,145.925c1.296,0 2.336,-0.368 3.248,-1.344l-1.312,-1.152c-0.56,0.576 -1.104,0.72 -1.952,0.72c-1.136,0 -1.744,-0.64 -1.872,-1.6l5.36,0c0,0 0.064,-0.24 0.064,-0.592c0,-2.016 -0.832,-4.032 -3.68,-4.032c-2.544,0 -3.76,2 -3.76,4.048c0,2.08 1.296,3.952 3.904,3.952ZM117.033,141.173c0.16,-0.944 0.688,-1.648 1.744,-1.648c1.136,0 1.68,0.592 1.808,1.648l-3.552,0Z" style="fill:#008be3;fill-rule:nonzero;"/><path d="M126.121,145.829l1.568,0l3.184,-7.808l-2.064,0l-1.904,5.344l-1.888,-5.344l-2.08,0l3.184,7.808Z" style="fill:#008be3;fill-rule:nonzero;"/><path d="M132.041,136.565l2,0l0,-1.76l-2,0l0,1.76ZM132.105,145.829l1.888,0l0,-7.808l-1.888,0l0,7.808Z" style="fill:#008be3;fill-rule:nonzero;"/><path d="M139.593,145.925c1.296,0 2.336,-0.368 3.248,-1.344l-1.312,-1.152c-0.56,0.576 -1.104,0.72 -1.952,0.72c-1.136,0 -1.744,-0.64 -1.872,-1.6l5.36,0c0,0 0.064,-0.24 0.064,-0.592c0,-2.016 -0.832,-4.032 -3.68,-4.032c-2.544,0 -3.76,2 -3.76,4.048c0,2.08 1.296,3.952 3.904,3.952ZM137.705,141.173c0.16,-0.944 0.688,-1.648 1.744,-1.648c1.136,0 1.68,0.592 1.808,1.648l-3.552,0Z" style="fill:#008be3;fill-rule:nonzero;"/><path d="M146.009,145.861l1.712,0l1.536,-5.152l1.536,5.12l1.712,0l2.416,-7.808l-2.032,0l-1.344,4.88l-1.472,-4.88l-1.632,0l-1.472,4.896l-1.328,-4.896l-2.032,0l2.4,7.84Z" style="fill:#008be3;fill-rule:nonzero;"/></g><g><path d="M187.418,42.08c0,-2.208 -1.792,-4 -4,-4l-172,0c-2.207,0 -4,1.792 -4,4l0,46.544c0,2.208 1.793,4 4,4l172,0c2.208,0 4,-1.792 4,-4l0,-46.544Z" style="fill:#e0e0e0;"/><g transform="matrix(1,0,0,1,-801.686,-1078.51)"><path d="M824.639,1138.28c2.112,0 3.84,-1.264 3.84,-3.328c0,-3.664 -5.312,-3.264 -5.312,-5.024c0,-0.672 0.624,-1.216 1.376,-1.216c0.72,0 1.376,0.432 1.76,1.184l1.648,-1.008c-0.752,-1.344 -1.984,-1.936 -3.408,-1.936c-1.808,0 -3.392,1.136 -3.392,2.96c0,3.504 5.312,3.104 5.312,5.008c0,0.992 -0.656,1.52 -1.824,1.52c-1.184,0 -2.128,-0.672 -2.256,-1.904l-1.968,0.496c0.352,2.176 2.272,3.248 4.224,3.248Z" style="fill:#5b5b5b;fill-rule:nonzero;"/><path d="M833.183,1138.31c1.552,0 2.768,-0.864 3.28,-2.32l-1.728,-0.656c-0.208,0.736 -0.8,1.184 -1.568,1.184c-1.328,0 -1.824,-1.072 -1.824,-2.256c0,-1.168 0.512,-2.256 1.824,-2.256c0.784,0 1.36,0.432 1.568,1.184l1.808,-0.704c-0.592,-1.392 -1.824,-2.272 -3.376,-2.272c-2.544,0 -3.76,2 -3.76,4.048c0,2.064 1.232,4.048 3.776,4.048Z" style="fill:#5b5b5b;fill-rule:nonzero;"/><path d="M841.071,1138.25c1.296,0 2.336,-0.368 3.248,-1.344l-1.312,-1.152c-0.56,0.576 -1.104,0.72 -1.952,0.72c-1.136,0 -1.744,-0.64 -1.872,-1.6l5.36,0c0,0 0.064,-0.24 0.064,-0.592c0,-2.016 -0.832,-4.032 -3.68,-4.032c-2.544,0 -3.76,2 -3.76,4.048c0,2.08 1.296,3.952 3.904,3.952ZM839.183,1133.5c0.16,-0.944 0.688,-1.648 1.744,-1.648c1.136,0 1.68,0.592 1.808,1.648l-3.552,0Z" style="fill:#5b5b5b;fill-rule:nonzero;"/><path d="M846.207,1138.15l1.936,0l0,-4.272c0,-0.976 0.896,-1.888 1.952,-1.888c0.992,0 1.248,0.752 1.248,1.712l0,4.448l1.936,0l0,-4.688c0,-1.632 -0.832,-3.248 -2.88,-3.248c-0.768,0 -1.632,0.272 -2.256,1.04l0,-0.912l-1.936,0l0,7.808Z" style="fill:#5b5b5b;fill-rule:nonzero;"/><path d="M857.759,1138.31c1.04,0 1.84,-0.304 2.512,-1.28l0.208,1.12l1.488,0l0,-4.736c0,-1.904 -1.248,-3.2 -3.376,-3.2c-1.472,0 -2.48,0.592 -3.28,1.68l1.456,1.056c0.304,-0.544 0.976,-1.072 1.76,-1.072c1.136,0 1.616,0.624 1.616,1.616l-2.032,0c-1.744,0 -3.2,0.528 -3.2,2.32c0,1.536 1.36,2.496 2.848,2.496ZM858.111,1136.7c-0.736,0 -1.248,-0.368 -1.248,-0.88c0,-0.496 0.496,-0.944 1.36,-0.944l1.92,0c-0.032,0.976 -0.944,1.824 -2.032,1.824Z" style="fill:#5b5b5b;fill-rule:nonzero;"/><path d="M863.887,1138.15l1.84,0l0,-3.616c0,-1.392 0.736,-2.496 1.808,-2.496c0.416,0 0.64,0.08 0.864,0.272l0.864,-1.568c-0.464,-0.368 -1.136,-0.512 -1.648,-0.512c-0.656,0 -1.328,0.304 -1.872,1.104l0,-0.992l-1.856,0l0,7.808Z" style="fill:#5b5b5b;fill-rule:nonzero;"/><path d="M870.031,1128.89l2,0l0,-1.76l-2,0l0,1.76ZM870.095,1138.15l1.888,0l0,-7.808l-1.888,0l0,7.808Z" style="fill:#5b5b5b;fill-rule:nonzero;"/><path d="M877.679,1138.31c2.416,0 4.08,-1.824 4.08,-4.032c0,-2.208 -1.664,-4.032 -4.08,-4.032c-2.416,0 -4.08,1.824 -4.08,4.032c0,2.208 1.664,4.032 4.08,4.032ZM877.679,1136.66c-1.44,0 -2.016,-1.104 -2.016,-2.384c0,-1.28 0.576,-2.384 2.016,-2.384c1.44,0 2.016,1.104 2.016,2.384c0,1.28 -0.576,2.384 -2.016,2.384Z" style="fill:#5b5b5b;fill-rule:nonzero;"/><rect x="883.439" y="1132.55" width="4.56" height="1.44" style="fill:#5b5b5b;fill-rule:nonzero;"/><path d="M894.607,1138.31c2.128,0 3.328,-1.904 3.328,-4.064c0,-2.16 -1.2,-4.064 -3.328,-4.064c-0.832,0 -1.648,0.224 -2.24,0.944l0,-4.016l-1.968,0l0,11.04l1.968,0l0,-0.784c0.544,0.672 1.392,0.944 2.24,0.944ZM894.127,1136.55c-1.264,0 -1.856,-0.992 -1.856,-2.304c0,-1.312 0.592,-2.336 1.856,-2.336c1.28,0 1.888,1.04 1.888,2.336c0,1.312 -0.608,2.304 -1.888,2.304Z" style="fill:#5b5b5b;fill-rule:nonzero;"/><path d="M901.791,1138.31c1.04,0 1.84,-0.304 2.512,-1.28l0.208,1.12l1.488,0l0,-4.736c0,-1.904 -1.248,-3.2 -3.376,-3.2c-1.472,0 -2.48,0.592 -3.28,1.68l1.456,1.056c0.304,-0.544 0.976,-1.072 1.76,-1.072c1.136,0 1.616,0.624 1.616,1.616l-2.032,0c-1.744,0 -3.2,0.528 -3.2,2.32c0,1.536 1.36,2.496 2.848,2.496ZM902.143,1136.7c-0.736,0 -1.248,-0.368 -1.248,-0.88c0,-0.496 0.496,-0.944 1.36,-0.944l1.92,0c-0.032,0.976 -0.944,1.824 -2.032,1.824Z" style="fill:#5b5b5b;fill-rule:nonzero;"/><path d="M910.319,1138.31c1.472,0 3.04,-0.8 3.04,-2.608c0,-2.864 -3.968,-2.16 -3.968,-3.344c0,-0.368 0.384,-0.624 1.008,-0.624c0.848,0 1.28,0.464 1.552,0.944l1.36,-0.736c-0.512,-0.912 -1.488,-1.712 -2.928,-1.712c-1.392,0 -2.816,0.736 -2.816,2.384c0,2.736 3.92,1.872 3.92,3.184c0,0.416 -0.384,0.928 -1.264,0.928c-1.04,0 -1.456,-0.72 -1.664,-1.28l-1.52,0.672c0.384,1.2 1.632,2.192 3.28,2.192Z" style="fill:#5b5b5b;fill-rule:nonzero;"/><path d="M918.223,1138.25c1.296,0 2.336,-0.368 3.248,-1.344l-1.312,-1.152c-0.56,0.576 -1.104,0.72 -1.952,0.72c-1.136,0 -1.744,-0.64 -1.872,-1.6l5.36,0c0,0 0.064,-0.24 0.064,-0.592c0,-2.016 -0.832,-4.032 -3.68,-4.032c-2.544,0 -3.76,2 -3.76,4.048c0,2.08 1.296,3.952 3.904,3.952ZM916.335,1133.5c0.16,-0.944 0.688,-1.648 1.744,-1.648c1.136,0 1.68,0.592 1.808,1.648l-3.552,0Z" style="fill:#5b5b5b;fill-rule:nonzero;"/><path d="M926.047,1138.31c0.832,0 1.648,-0.224 2.24,-0.944l0,0.784l1.936,0l0,-11.04l-1.936,0l0,4.016c-0.544,-0.672 -1.392,-0.944 -2.24,-0.944c-2.128,0 -3.328,1.904 -3.328,4.064c0,2.16 1.2,4.064 3.328,4.064ZM926.527,1136.55c-1.264,0 -1.872,-0.992 -1.872,-2.304c0,-1.296 0.608,-2.336 1.872,-2.336c1.28,0 1.84,1.024 1.84,2.336c0,1.328 -0.56,2.304 -1.84,2.304Z" style="fill:#5b5b5b;fill-rule:nonzero;"/><path d="M940.895,1138.31c2.96,0 4.224,-1.76 4.224,-4.544l0,-6.656l-1.984,0l0,6.512c0,1.776 -0.464,2.768 -2.24,2.768c-1.776,0 -2.24,-0.992 -2.24,-2.768l0,-6.512l-1.984,0l0,6.736c0,2.704 1.264,4.464 4.224,4.464Z" style="fill:#5b5b5b;fill-rule:nonzero;"/><path d="M949.583,1138.31c1.472,0 3.04,-0.8 3.04,-2.608c0,-2.864 -3.968,-2.16 -3.968,-3.344c0,-0.368 0.384,-0.624 1.008,-0.624c0.848,0 1.28,0.464 1.552,0.944l1.36,-0.736c-0.512,-0.912 -1.488,-1.712 -2.928,-1.712c-1.392,0 -2.816,0.736 -2.816,2.384c0,2.736 3.92,1.872 3.92,3.184c0,0.416 -0.384,0.928 -1.264,0.928c-1.04,0 -1.456,-0.72 -1.664,-1.28l-1.52,0.672c0.384,1.2 1.632,2.192 3.28,2.192Z" style="fill:#5b5b5b;fill-rule:nonzero;"/><path d="M957.487,1138.25c1.296,0 2.336,-0.368 3.248,-1.344l-1.312,-1.152c-0.56,0.576 -1.104,0.72 -1.952,0.72c-1.136,0 -1.744,-0.64 -1.872,-1.6l5.36,0c0,0 0.064,-0.24 0.064,-0.592c0,-2.016 -0.832,-4.032 -3.68,-4.032c-2.544,0 -3.76,2 -3.76,4.048c0,2.08 1.296,3.952 3.904,3.952ZM955.599,1133.5c0.16,-0.944 0.688,-1.648 1.744,-1.648c1.136,0 1.68,0.592 1.808,1.648l-3.552,0Z" style="fill:#5b5b5b;fill-rule:nonzero;"/><path d="M962.623,1138.15l1.84,0l0,-3.616c0,-1.392 0.736,-2.496 1.808,-2.496c0.416,0 0.64,0.08 0.864,0.272l0.864,-1.568c-0.464,-0.368 -1.136,-0.512 -1.648,-0.512c-0.656,0 -1.328,0.304 -1.872,1.104l0,-0.992l-1.856,0l0,7.808Z" style="fill:#5b5b5b;fill-rule:nonzero;"/><rect x="821.295" y="1147.11" width="1.984" height="11.04" style="fill:#5b5b5b;fill-rule:nonzero;"/><path d="M825.679,1158.15l1.936,0l0,-4.272c0,-0.976 0.896,-1.888 1.952,-1.888c0.992,0 1.248,0.752 1.248,1.712l0,4.448l1.936,0l0,-4.688c0,-1.632 -0.832,-3.248 -2.88,-3.248c-0.768,0 -1.632,0.272 -2.256,1.04l0,-0.912l-1.936,0l0,7.808Z" style="fill:#5b5b5b;fill-rule:nonzero;"/><path d="M837.743,1158.31c0.784,0 1.408,-0.24 1.408,-0.24l0,-1.728c0,0 -0.56,0.272 -1.184,0.272c-0.592,0 -0.848,-0.256 -0.848,-0.64l0,-3.904l2.032,0l0,-1.728l-2.032,0l0,-3.296l-1.792,1.36l0,1.936l-1.296,0l0,1.728l1.264,0l0,3.92c0,1.424 0.912,2.32 2.448,2.32Z" style="fill:#5b5b5b;fill-rule:nonzero;"/><path d="M843.951,1158.25c1.296,0 2.336,-0.368 3.248,-1.344l-1.312,-1.152c-0.56,0.576 -1.104,0.72 -1.952,0.72c-1.136,0 -1.744,-0.64 -1.872,-1.6l5.36,0c0,0 0.064,-0.24 0.064,-0.592c0,-2.016 -0.832,-4.032 -3.68,-4.032c-2.544,0 -3.76,2 -3.76,4.048c0,2.08 1.296,3.952 3.904,3.952ZM842.063,1153.5c0.16,-0.944 0.688,-1.648 1.744,-1.648c1.136,0 1.68,0.592 1.808,1.648l-3.552,0Z" style="fill:#5b5b5b;fill-rule:nonzero;"/><path d="M849.087,1158.15l1.84,0l0,-3.616c0,-1.392 0.736,-2.496 1.808,-2.496c0.416,0 0.64,0.08 0.864,0.272l0.864,-1.568c-0.464,-0.368 -1.136,-0.512 -1.648,-0.512c-0.656,0 -1.328,0.304 -1.872,1.104l0,-0.992l-1.856,0l0,7.808Z" style="fill:#5b5b5b;fill-rule:nonzero;"/><path d="M857.407,1158.15l1.568,0l3.184,-7.808l-2.064,0l-1.904,5.344l-1.888,-5.344l-2.08,0l3.184,7.808Z" style="fill:#5b5b5b;fill-rule:nonzero;"/><path d="M863.327,1148.89l2,0l0,-1.76l-2,0l0,1.76ZM863.391,1158.15l1.888,0l0,-7.808l-1.888,0l0,7.808Z" style="fill:#5b5b5b;fill-rule:nonzero;"/><path d="M870.879,1158.25c1.296,0 2.336,-0.368 3.248,-1.344l-1.312,-1.152c-0.56,0.576 -1.104,0.72 -1.952,0.72c-1.136,0 -1.744,-0.64 -1.872,-1.6l5.36,0c0,0 0.064,-0.24 0.064,-0.592c0,-2.016 -0.832,-4.032 -3.68,-4.032c-2.544,0 -3.76,2 -3.76,4.048c0,2.08 1.296,3.952 3.904,3.952ZM868.991,1153.5c0.16,-0.944 0.688,-1.648 1.744,-1.648c1.136,0 1.68,0.592 1.808,1.648l-3.552,0Z" style="fill:#5b5b5b;fill-rule:nonzero;"/><path d="M877.295,1158.18l1.712,0l1.536,-5.152l1.536,5.12l1.712,0l2.416,-7.808l-2.032,0l-1.344,4.88l-1.472,-4.88l-1.632,0l-1.472,4.896l-1.328,-4.896l-2.032,0l2.4,7.84Z" style="fill:#5b5b5b;fill-rule:nonzero;"/></g></g><g><path d="M187.418,164.386c0,-2.208 -1.792,-4 -4,-4l-172,0c-2.207,0 -4,1.792 -4,4l0,46.544c0,2.208 1.793,4 4,4l172,0c2.208,0 4,-1.792 4,-4l0,-46.544Z" style="fill:#dce9ff;"/><g transform="matrix(1,0,0,1,-801.686,-956.201)"><path d="M821.295,1138.15l1.984,0l0,-4.608l5.152,0l0,-1.824l-5.152,0l0,-2.784l5.84,0l0,-1.824l-7.824,0l0,11.04Z" style="fill:#008be3;fill-rule:nonzero;"/><path d="M833.663,1138.25c1.296,0 2.336,-0.368 3.248,-1.344l-1.312,-1.152c-0.56,0.576 -1.104,0.72 -1.952,0.72c-1.136,0 -1.744,-0.64 -1.872,-1.6l5.36,0c0,0 0.064,-0.24 0.064,-0.592c0,-2.016 -0.832,-4.032 -3.68,-4.032c-2.544,0 -3.76,2 -3.76,4.048c0,2.08 1.296,3.952 3.904,3.952ZM831.775,1133.5c0.16,-0.944 0.688,-1.648 1.744,-1.648c1.136,0 1.68,0.592 1.808,1.648l-3.552,0Z" style="fill:#008be3;fill-rule:nonzero;"/><path d="M841.039,1138.31c1.04,0 1.84,-0.304 2.512,-1.28l0.208,1.12l1.488,0l0,-4.736c0,-1.904 -1.248,-3.2 -3.376,-3.2c-1.472,0 -2.48,0.592 -3.28,1.68l1.456,1.056c0.304,-0.544 0.976,-1.072 1.76,-1.072c1.136,0 1.616,0.624 1.616,1.616l-2.032,0c-1.744,0 -3.2,0.528 -3.2,2.32c0,1.536 1.36,2.496 2.848,2.496ZM841.391,1136.7c-0.736,0 -1.248,-0.368 -1.248,-0.88c0,-0.496 0.496,-0.944 1.36,-0.944l1.92,0c-0.032,0.976 -0.944,1.824 -2.032,1.824Z" style="fill:#008be3;fill-rule:nonzero;"/><path d="M849.919,1138.31c0.784,0 1.408,-0.24 1.408,-0.24l0,-1.728c0,0 -0.56,0.272 -1.184,0.272c-0.592,0 -0.848,-0.256 -0.848,-0.64l0,-3.904l2.032,0l0,-1.728l-2.032,0l0,-3.296l-1.792,1.36l0,1.936l-1.296,0l0,1.728l1.264,0l0,3.92c0,1.424 0.912,2.32 2.448,2.32Z" style="fill:#008be3;fill-rule:nonzero;"/><path d="M855.567,1138.33c0.848,0 1.696,-0.352 2.256,-1.088l0,0.912l1.936,0l0,-7.808l-1.936,0l0,4.32c0,0.976 -0.912,1.856 -1.968,1.856c-0.992,0 -1.248,-0.72 -1.248,-1.68l0,-4.496l-1.936,0l0,4.592c0,1.696 0.848,3.392 2.896,3.392Z" style="fill:#008be3;fill-rule:nonzero;"/><path d="M862.079,1138.15l1.84,0l0,-3.616c0,-1.392 0.736,-2.496 1.808,-2.496c0.416,0 0.64,0.08 0.864,0.272l0.864,-1.568c-0.464,-0.368 -1.136,-0.512 -1.648,-0.512c-0.656,0 -1.328,0.304 -1.872,1.104l0,-0.992l-1.856,0l0,7.808Z" style="fill:#008be3;fill-rule:nonzero;"/><path d="M871.599,1138.25c1.296,0 2.336,-0.368 3.248,-1.344l-1.312,-1.152c-0.56,0.576 -1.104,0.72 -1.952,0.72c-1.136,0 -1.744,-0.64 -1.872,-1.6l5.36,0c0,0 0.064,-0.24 0.064,-0.592c0,-2.016 -0.832,-4.032 -3.68,-4.032c-2.544,0 -3.76,2 -3.76,4.048c0,2.08 1.296,3.952 3.904,3.952ZM869.711,1133.5c0.16,-0.944 0.688,-1.648 1.744,-1.648c1.136,0 1.68,0.592 1.808,1.648l-3.552,0Z" style="fill:#008be3;fill-rule:nonzero;"/><path d="M885.903,1138.31c1.472,0 2.528,-0.688 3.264,-1.712l0.176,1.552l1.568,0l0,-5.968l-4.432,0l0,1.6l2.512,0c-0.224,1.68 -1.504,2.752 -3.088,2.752c-2.368,0 -3.376,-1.792 -3.376,-3.984c0,-2.048 1.008,-3.888 3.344,-3.888c1.408,0 2.56,0.672 3.072,2.176l1.76,-0.736c-0.896,-2.064 -2.64,-3.168 -4.816,-3.168c-3.648,0 -5.328,2.672 -5.328,5.696c0,3.024 1.712,5.68 5.344,5.68Z" style="fill:#008be3;fill-rule:nonzero;"/><path d="M893.087,1138.15l1.84,0l0,-3.616c0,-1.392 0.736,-2.496 1.808,-2.496c0.416,0 0.64,0.08 0.864,0.272l0.864,-1.568c-0.464,-0.368 -1.136,-0.512 -1.648,-0.512c-0.656,0 -1.328,0.304 -1.872,1.104l0,-0.992l-1.856,0l0,7.808Z" style="fill:#008be3;fill-rule:nonzero;"/><path d="M899.231,1128.89l2,0l0,-1.76l-2,0l0,1.76ZM899.295,1138.15l1.888,0l0,-7.808l-1.888,0l0,7.808Z" style="fill:#008be3;fill-rule:nonzero;"/><path d="M906.207,1138.31c0.832,0 1.648,-0.224 2.24,-0.944l0,0.784l1.936,0l0,-11.04l-1.936,0l0,4.016c-0.544,-0.672 -1.392,-0.944 -2.24,-0.944c-2.128,0 -3.328,1.904 -3.328,4.064c0,2.16 1.2,4.064 3.328,4.064ZM906.687,1136.55c-1.264,0 -1.872,-0.992 -1.872,-2.304c0,-1.296 0.608,-2.336 1.872,-2.336c1.28,0 1.84,1.024 1.84,2.336c0,1.328 -0.56,2.304 -1.84,2.304Z" style="fill:#008be3;fill-rule:nonzero;"/><path d="M820.175,1158.15l2.16,0l0.864,-2.4l4.288,0l0.848,2.4l2.144,0l-4.4,-11.04l-1.488,0l-4.416,11.04ZM823.871,1154.06l1.472,-4.016l1.472,4.016l-2.944,0Z" style="fill:#008be3;fill-rule:nonzero;"/><path d="M831.759,1158.15l1.936,0l0,-4.272c0,-0.976 0.896,-1.888 1.952,-1.888c0.992,0 1.248,0.752 1.248,1.712l0,4.448l1.936,0l0,-4.688c0,-1.632 -0.832,-3.248 -2.88,-3.248c-0.768,0 -1.632,0.272 -2.256,1.04l0,-0.912l-1.936,0l0,7.808Z" style="fill:#008be3;fill-rule:nonzero;"/><path d="M843.311,1158.31c1.04,0 1.84,-0.304 2.512,-1.28l0.208,1.12l1.488,0l0,-4.736c0,-1.904 -1.248,-3.2 -3.376,-3.2c-1.472,0 -2.48,0.592 -3.28,1.68l1.456,1.056c0.304,-0.544 0.976,-1.072 1.76,-1.072c1.136,0 1.616,0.624 1.616,1.616l-2.032,0c-1.744,0 -3.2,0.528 -3.2,2.32c0,1.536 1.36,2.496 2.848,2.496ZM843.663,1156.7c-0.736,0 -1.248,-0.368 -1.248,-0.88c0,-0.496 0.496,-0.944 1.36,-0.944l1.92,0c-0.032,0.976 -0.944,1.824 -2.032,1.824Z" style="fill:#008be3;fill-rule:nonzero;"/><path d="M851.119,1158.31c0.576,0 1.376,-0.16 1.376,-0.16l0,-1.6c0,0 -0.352,0.048 -0.48,0.048c-0.448,0 -0.672,-0.16 -0.672,-0.528l0,-8.96l-1.904,0l0,9.488c0,1.392 0.736,1.712 1.68,1.712Z" style="fill:#008be3;fill-rule:nonzero;"/><path d="M854.495,1161.51l2.08,0l4.464,-11.168l-2.096,0l-2,5.424l-1.968,-5.424l-2.096,0l3.056,7.6l-1.44,3.568Z" style="fill:#008be3;fill-rule:nonzero;"/><path d="M864.719,1158.31c1.472,0 3.04,-0.8 3.04,-2.608c0,-2.864 -3.968,-2.16 -3.968,-3.344c0,-0.368 0.384,-0.624 1.008,-0.624c0.848,0 1.28,0.464 1.552,0.944l1.36,-0.736c-0.512,-0.912 -1.488,-1.712 -2.928,-1.712c-1.392,0 -2.816,0.736 -2.816,2.384c0,2.736 3.92,1.872 3.92,3.184c0,0.416 -0.384,0.928 -1.264,0.928c-1.04,0 -1.456,-0.72 -1.664,-1.28l-1.52,0.672c0.384,1.2 1.632,2.192 3.28,2.192Z" style="fill:#008be3;fill-rule:nonzero;"/><path d="M872.623,1158.25c1.296,0 2.336,-0.368 3.248,-1.344l-1.312,-1.152c-0.56,0.576 -1.104,0.72 -1.952,0.72c-1.136,0 -1.744,-0.64 -1.872,-1.6l5.36,0c0,0 0.064,-0.24 0.064,-0.592c0,-2.016 -0.832,-4.032 -3.68,-4.032c-2.544,0 -3.76,2 -3.76,4.048c0,2.08 1.296,3.952 3.904,3.952ZM870.735,1153.5c0.16,-0.944 0.688,-1.648 1.744,-1.648c1.136,0 1.68,0.592 1.808,1.648l-3.552,0Z" style="fill:#008be3;fill-rule:nonzero;"/><path d="M880.159,1158.31c1.472,0 3.04,-0.8 3.04,-2.608c0,-2.864 -3.968,-2.16 -3.968,-3.344c0,-0.368 0.384,-0.624 1.008,-0.624c0.848,0 1.28,0.464 1.552,0.944l1.36,-0.736c-0.512,-0.912 -1.488,-1.712 -2.928,-1.712c-1.392,0 -2.816,0.736 -2.816,2.384c0,2.736 3.92,1.872 3.92,3.184c0,0.416 -0.384,0.928 -1.264,0.928c-1.04,0 -1.456,-0.72 -1.664,-1.28l-1.52,0.672c0.384,1.2 1.632,2.192 3.28,2.192Z" style="fill:#008be3;fill-rule:nonzero;"/></g></g><path d="M1.94,1.956l0,90.668" style="fill:none;stroke-width:2px;stroke:#5b5b5b;"/><path d="M1.94,124.261l0,90.669" style="fill:none;stroke-width:2px;stroke:#008be3;"/><path d="M98.932,110.868c-0.202,0.32 -0.554,0.514 -0.932,0.514c-0.378,0 -0.73,-0.194 -0.932,-0.514c-0.965,-1.527 -2.468,-3.908 -3.479,-5.51c-0.215,-0.34 -0.227,-0.77 -0.034,-1.121c0.194,-0.352 0.564,-0.571 0.966,-0.571c1.976,0 4.982,0 6.958,0c0.402,0 0.772,0.219 0.966,0.571c0.194,0.351 0.181,0.781 -0.034,1.121c-1.011,1.602 -2.514,3.983 -3.479,5.51Z" style="fill:#008be3;"/></g></svg>