<?xml version="1.0" standalone="no"?><!DOCTYPE svg PUBLIC "-//W3C//DTD SVG 1.1//EN" "http://www.w3.org/Graphics/SVG/1.1/DTD/svg11.dtd"><svg width="100%" height="100%" viewBox="0 0 188 245" version="1.1" xmlns="http://www.w3.org/2000/svg" xmlns:xlink="http://www.w3.org/1999/xlink" xml:space="preserve" style="fill-rule:evenodd;clip-rule:evenodd;stroke-linecap:round;stroke-linejoin:round;stroke-miterlimit:1.41421;"><g><g><path d="M187.418,156.437c0,-2.208 -1.792,-4 -4,-4l-172,0c-2.207,0 -4,1.792 -4,4l0,24c0,2.208 1.793,4 4,4l172,0c2.208,0 4,-1.792 4,-4l0,-24Z" style="fill:#dce9ff;"/><path d="M23.561,174.164c2.96,0 4.224,-1.76 4.224,-4.544l0,-6.656l-1.984,0l0,6.512c0,1.776 -0.464,2.768 -2.24,2.768c-1.776,0 -2.24,-0.992 -2.24,-2.768l0,-6.512l-1.984,0l0,6.736c0,2.704 1.264,4.464 4.224,4.464Z" style="fill:#008be3;fill-rule:nonzero;"/><rect x="29.849" y="162.964" width="1.984" height="11.04" style="fill:#008be3;fill-rule:nonzero;"/><path d="M40.745,174.004l1.92,0l2.4,-6.944l2.4,6.944l1.92,0l3.312,-11.04l-2.064,0l-2.352,8.128l-2.448,-7.168l-1.536,0l-2.448,7.168l-2.352,-8.128l-2.064,0l3.312,11.04Z" style="fill:#008be3;fill-rule:nonzero;"/><path d="M53.385,164.74l2,0l0,-1.76l-2,0l0,1.76ZM53.449,174.004l1.888,0l0,-7.808l-1.888,0l0,7.808Z" style="fill:#008be3;fill-rule:nonzero;"/><path d="M57.673,174.004l1.84,0l0,-3.616c0,-1.392 0.736,-2.496 1.808,-2.496c0.416,0 0.64,0.08 0.864,0.272l0.864,-1.568c-0.464,-0.368 -1.136,-0.512 -1.648,-0.512c-0.656,0 -1.328,0.304 -1.872,1.104l0,-0.992l-1.856,0l0,7.808Z" style="fill:#008be3;fill-rule:nonzero;"/><path d="M67.193,174.1c1.296,0 2.336,-0.368 3.248,-1.344l-1.312,-1.152c-0.56,0.576 -1.104,0.72 -1.952,0.72c-1.136,0 -1.744,-0.64 -1.872,-1.6l5.36,0c0,0 0.064,-0.24 0.064,-0.592c0,-2.016 -0.832,-4.032 -3.68,-4.032c-2.544,0 -3.76,2 -3.76,4.048c0,2.08 1.296,3.952 3.904,3.952ZM65.305,169.348c0.16,-0.944 0.688,-1.648 1.744,-1.648c1.136,0 1.68,0.592 1.808,1.648l-3.552,0Z" style="fill:#008be3;fill-rule:nonzero;"/><path d="M72.745,174.004l1.968,0l0,-6.08l1.824,0l0,-1.728l-1.824,0l0,-1.008c0,-0.4 0.272,-0.656 0.72,-0.656c0.352,0 0.608,0.16 0.608,0.16l0.624,-1.568c-0.416,-0.192 -0.912,-0.32 -1.392,-0.32c-1.344,0 -2.512,0.832 -2.512,2.352l0,1.056l-1.44,0l0,1.712l1.424,0l0,6.08Z" style="fill:#008be3;fill-rule:nonzero;"/><path d="M77.897,174.004l1.84,0l0,-3.616c0,-1.392 0.736,-2.496 1.808,-2.496c0.416,0 0.64,0.08 0.864,0.272l0.864,-1.568c-0.464,-0.368 -1.136,-0.512 -1.648,-0.512c-0.656,0 -1.328,0.304 -1.872,1.104l0,-0.992l-1.856,0l0,7.808Z" style="fill:#008be3;fill-rule:nonzero;"/><path d="M86.393,174.164c1.04,0 1.84,-0.304 2.512,-1.28l0.208,1.12l1.488,0l0,-4.736c0,-1.904 -1.248,-3.2 -3.376,-3.2c-1.472,0 -2.48,0.592 -3.28,1.68l1.456,1.056c0.304,-0.544 0.976,-1.072 1.76,-1.072c1.136,0 1.616,0.624 1.616,1.616l-2.032,0c-1.744,0 -3.2,0.528 -3.2,2.32c0,1.536 1.36,2.496 2.848,2.496ZM86.745,172.548c-0.736,0 -1.248,-0.368 -1.248,-0.88c0,-0.496 0.496,-0.944 1.36,-0.944l1.92,0c-0.032,0.976 -0.944,1.824 -2.032,1.824Z" style="fill:#008be3;fill-rule:nonzero;"/><path d="M92.521,174.004l1.92,0l0,-4.288c0,-1.04 0.608,-1.888 1.632,-1.888c0.992,0 1.248,0.752 1.248,1.696l0,4.48l1.936,0l0,-4.288c0,-1.04 0.608,-1.888 1.632,-1.888c0.992,0 1.264,0.768 1.264,1.728l0,4.448l1.936,0l0,-4.688c0,-1.632 -0.864,-3.248 -2.896,-3.248c-0.976,0 -1.968,0.384 -2.576,1.184c-0.512,-0.768 -1.232,-1.2 -2.24,-1.2c-0.672,0 -1.424,0.256 -1.936,0.96l0,-0.816l-1.92,0l0,7.808Z" style="fill:#008be3;fill-rule:nonzero;"/><path d="M109.337,174.1c1.296,0 2.336,-0.368 3.248,-1.344l-1.312,-1.152c-0.56,0.576 -1.104,0.72 -1.952,0.72c-1.136,0 -1.744,-0.64 -1.872,-1.6l5.36,0c0,0 0.064,-0.24 0.064,-0.592c0,-2.016 -0.832,-4.032 -3.68,-4.032c-2.544,0 -3.76,2 -3.76,4.048c0,2.08 1.296,3.952 3.904,3.952ZM107.449,169.348c0.16,-0.944 0.688,-1.648 1.744,-1.648c1.136,0 1.68,0.592 1.808,1.648l-3.552,0Z" style="fill:#008be3;fill-rule:nonzero;"/><path d="M116.873,174.164c1.472,0 3.04,-0.8 3.04,-2.608c0,-2.864 -3.968,-2.16 -3.968,-3.344c0,-0.368 0.384,-0.624 1.008,-0.624c0.848,0 1.28,0.464 1.552,0.944l1.36,-0.736c-0.512,-0.912 -1.488,-1.712 -2.928,-1.712c-1.392,0 -2.816,0.736 -2.816,2.384c0,2.736 3.92,1.872 3.92,3.184c0,0.416 -0.384,0.928 -1.264,0.928c-1.04,0 -1.456,-0.72 -1.664,-1.28l-1.52,0.672c0.384,1.2 1.632,2.192 3.28,2.192Z" style="fill:#008be3;fill-rule:nonzero;"/></g><g><path d="M187.418,65.531c0,-2.207 -1.792,-4 -4,-4l-172,0c-2.207,0 -4,1.793 -4,4l0,46.545c0,2.207 1.793,4 4,4l172,0c2.208,0 4,-1.793 4,-4l0,-46.545Z" style="fill:#e0e0e0;"/><g transform="matrix(1,0,0,1,-801.686,-1055.05)"><rect x="821.295" y="1127.11" width="1.984" height="11.04" style="fill:#5b5b5b;fill-rule:nonzero;"/><path d="M825.679,1138.15l1.936,0l0,-4.272c0,-0.976 0.896,-1.888 1.952,-1.888c0.992,0 1.248,0.752 1.248,1.712l0,4.448l1.936,0l0,-4.688c0,-1.632 -0.832,-3.248 -2.88,-3.248c-0.768,0 -1.632,0.272 -2.256,1.04l0,-0.912l-1.936,0l0,7.808Z" style="fill:#5b5b5b;fill-rule:nonzero;"/><path d="M835.407,1138.15l1.968,0l0,-6.08l1.824,0l0,-1.728l-1.824,0l0,-1.008c0,-0.4 0.272,-0.656 0.72,-0.656c0.352,0 0.608,0.16 0.608,0.16l0.624,-1.568c-0.416,-0.192 -0.912,-0.32 -1.392,-0.32c-1.344,0 -2.512,0.832 -2.512,2.352l0,1.056l-1.44,0l0,1.712l1.424,0l0,6.08Z" style="fill:#5b5b5b;fill-rule:nonzero;"/><path d="M843.919,1138.31c2.416,0 4.08,-1.824 4.08,-4.032c0,-2.208 -1.664,-4.032 -4.08,-4.032c-2.416,0 -4.08,1.824 -4.08,4.032c0,2.208 1.664,4.032 4.08,4.032ZM843.919,1136.66c-1.44,0 -2.016,-1.104 -2.016,-2.384c0,-1.28 0.576,-2.384 2.016,-2.384c1.44,0 2.016,1.104 2.016,2.384c0,1.28 -0.576,2.384 -2.016,2.384Z" style="fill:#5b5b5b;fill-rule:nonzero;"/><path d="M849.679,1138.15l1.84,0l0,-3.616c0,-1.392 0.736,-2.496 1.808,-2.496c0.416,0 0.64,0.08 0.864,0.272l0.864,-1.568c-0.464,-0.368 -1.136,-0.512 -1.648,-0.512c-0.656,0 -1.328,0.304 -1.872,1.104l0,-0.992l-1.856,0l0,7.808Z" style="fill:#5b5b5b;fill-rule:nonzero;"/><path d="M855.935,1138.15l1.92,0l0,-4.288c0,-1.04 0.608,-1.888 1.632,-1.888c0.992,0 1.248,0.752 1.248,1.696l0,4.48l1.936,0l0,-4.288c0,-1.04 0.608,-1.888 1.632,-1.888c0.992,0 1.264,0.768 1.264,1.728l0,4.448l1.936,0l0,-4.688c0,-1.632 -0.864,-3.248 -2.896,-3.248c-0.976,0 -1.968,0.384 -2.576,1.184c-0.512,-0.768 -1.232,-1.2 -2.24,-1.2c-0.672,0 -1.424,0.256 -1.936,0.96l0,-0.816l-1.92,0l0,7.808Z" style="fill:#5b5b5b;fill-rule:nonzero;"/><path d="M871.727,1138.31c1.04,0 1.84,-0.304 2.512,-1.28l0.208,1.12l1.488,0l0,-4.736c0,-1.904 -1.248,-3.2 -3.376,-3.2c-1.472,0 -2.48,0.592 -3.28,1.68l1.456,1.056c0.304,-0.544 0.976,-1.072 1.76,-1.072c1.136,0 1.616,0.624 1.616,1.616l-2.032,0c-1.744,0 -3.2,0.528 -3.2,2.32c0,1.536 1.36,2.496 2.848,2.496ZM872.079,1136.7c-0.736,0 -1.248,-0.368 -1.248,-0.88c0,-0.496 0.496,-0.944 1.36,-0.944l1.92,0c-0.032,0.976 -0.944,1.824 -2.032,1.824Z" style="fill:#5b5b5b;fill-rule:nonzero;"/><path d="M880.607,1138.31c0.784,0 1.408,-0.24 1.408,-0.24l0,-1.728c0,0 -0.56,0.272 -1.184,0.272c-0.592,0 -0.848,-0.256 -0.848,-0.64l0,-3.904l2.032,0l0,-1.728l-2.032,0l0,-3.296l-1.792,1.36l0,1.936l-1.296,0l0,1.728l1.264,0l0,3.92c0,1.424 0.912,2.32 2.448,2.32Z" style="fill:#5b5b5b;fill-rule:nonzero;"/><path d="M883.439,1128.89l2,0l0,-1.76l-2,0l0,1.76ZM883.503,1138.15l1.888,0l0,-7.808l-1.888,0l0,7.808Z" style="fill:#5b5b5b;fill-rule:nonzero;"/><path d="M891.087,1138.31c2.416,0 4.08,-1.824 4.08,-4.032c0,-2.208 -1.664,-4.032 -4.08,-4.032c-2.416,0 -4.08,1.824 -4.08,4.032c0,2.208 1.664,4.032 4.08,4.032ZM891.087,1136.66c-1.44,0 -2.016,-1.104 -2.016,-2.384c0,-1.28 0.576,-2.384 2.016,-2.384c1.44,0 2.016,1.104 2.016,2.384c0,1.28 -0.576,2.384 -2.016,2.384Z" style="fill:#5b5b5b;fill-rule:nonzero;"/><path d="M896.847,1138.15l1.936,0l0,-4.272c0,-0.976 0.896,-1.888 1.952,-1.888c0.992,0 1.248,0.752 1.248,1.712l0,4.448l1.936,0l0,-4.688c0,-1.632 -0.832,-3.248 -2.88,-3.248c-0.768,0 -1.632,0.272 -2.256,1.04l0,-0.912l-1.936,0l0,7.808Z" style="fill:#5b5b5b;fill-rule:nonzero;"/><path d="M820.175,1158.15l2.16,0l0.864,-2.4l4.288,0l0.848,2.4l2.144,0l-4.4,-11.04l-1.488,0l-4.416,11.04ZM823.871,1154.06l1.472,-4.016l1.472,4.016l-2.944,0Z" style="fill:#5b5b5b;fill-rule:nonzero;"/><path d="M831.759,1158.15l1.84,0l0,-3.616c0,-1.392 0.736,-2.496 1.808,-2.496c0.416,0 0.64,0.08 0.864,0.272l0.864,-1.568c-0.464,-0.368 -1.136,-0.512 -1.648,-0.512c-0.656,0 -1.328,0.304 -1.872,1.104l0,-0.992l-1.856,0l0,7.808Z" style="fill:#5b5b5b;fill-rule:nonzero;"/><path d="M841.151,1158.31c1.552,0 2.768,-0.864 3.28,-2.32l-1.728,-0.656c-0.208,0.736 -0.8,1.184 -1.568,1.184c-1.328,0 -1.824,-1.072 -1.824,-2.256c0,-1.168 0.512,-2.256 1.824,-2.256c0.784,0 1.36,0.432 1.568,1.184l1.808,-0.704c-0.592,-1.392 -1.824,-2.272 -3.376,-2.272c-2.544,0 -3.76,2 -3.76,4.048c0,2.064 1.232,4.048 3.776,4.048Z" style="fill:#5b5b5b;fill-rule:nonzero;"/><path d="M845.775,1158.15l1.952,0l0,-4.704c0.192,-0.768 0.96,-1.408 1.904,-1.408c0.992,0 1.248,0.688 1.248,1.632l0,4.48l1.936,0l0,-4.576c0,-1.696 -0.816,-3.408 -3.04,-3.408c-0.752,0 -1.472,0.272 -2.048,1.008l0,-4.064l-1.952,0l0,11.04Z" style="fill:#5b5b5b;fill-rule:nonzero;"/><path d="M854.943,1148.89l2,0l0,-1.76l-2,0l0,1.76ZM855.007,1158.15l1.888,0l0,-7.808l-1.888,0l0,7.808Z" style="fill:#5b5b5b;fill-rule:nonzero;"/><path d="M861.983,1158.31c0.784,0 1.408,-0.24 1.408,-0.24l0,-1.728c0,0 -0.56,0.272 -1.184,0.272c-0.592,0 -0.848,-0.256 -0.848,-0.64l0,-3.904l2.032,0l0,-1.728l-2.032,0l0,-3.296l-1.792,1.36l0,1.936l-1.296,0l0,1.728l1.264,0l0,3.92c0,1.424 0.912,2.32 2.448,2.32Z" style="fill:#5b5b5b;fill-rule:nonzero;"/><path d="M868.191,1158.25c1.296,0 2.336,-0.368 3.248,-1.344l-1.312,-1.152c-0.56,0.576 -1.104,0.72 -1.952,0.72c-1.136,0 -1.744,-0.64 -1.872,-1.6l5.36,0c0,0 0.064,-0.24 0.064,-0.592c0,-2.016 -0.832,-4.032 -3.68,-4.032c-2.544,0 -3.76,2 -3.76,4.048c0,2.08 1.296,3.952 3.904,3.952ZM866.303,1153.5c0.16,-0.944 0.688,-1.648 1.744,-1.648c1.136,0 1.68,0.592 1.808,1.648l-3.552,0Z" style="fill:#5b5b5b;fill-rule:nonzero;"/><path d="M876.463,1158.31c1.552,0 2.768,-0.864 3.28,-2.32l-1.728,-0.656c-0.208,0.736 -0.8,1.184 -1.568,1.184c-1.328,0 -1.824,-1.072 -1.824,-2.256c0,-1.168 0.512,-2.256 1.824,-2.256c0.784,0 1.36,0.432 1.568,1.184l1.808,-0.704c-0.592,-1.392 -1.824,-2.272 -3.376,-2.272c-2.544,0 -3.76,2 -3.76,4.048c0,2.064 1.232,4.048 3.776,4.048Z" style="fill:#5b5b5b;fill-rule:nonzero;"/><path d="M883.839,1158.31c0.784,0 1.408,-0.24 1.408,-0.24l0,-1.728c0,0 -0.56,0.272 -1.184,0.272c-0.592,0 -0.848,-0.256 -0.848,-0.64l0,-3.904l2.032,0l0,-1.728l-2.032,0l0,-3.296l-1.792,1.36l0,1.936l-1.296,0l0,1.728l1.264,0l0,3.92c0,1.424 0.912,2.32 2.448,2.32Z" style="fill:#5b5b5b;fill-rule:nonzero;"/><path d="M889.487,1158.33c0.848,0 1.696,-0.352 2.256,-1.088l0,0.912l1.936,0l0,-7.808l-1.936,0l0,4.32c0,0.976 -0.912,1.856 -1.968,1.856c-0.992,0 -1.248,-0.72 -1.248,-1.68l0,-4.496l-1.936,0l0,4.592c0,1.696 0.848,3.392 2.896,3.392Z" style="fill:#5b5b5b;fill-rule:nonzero;"/><path d="M895.999,1158.15l1.84,0l0,-3.616c0,-1.392 0.736,-2.496 1.808,-2.496c0.416,0 0.64,0.08 0.864,0.272l0.864,-1.568c-0.464,-0.368 -1.136,-0.512 -1.648,-0.512c-0.656,0 -1.328,0.304 -1.872,1.104l0,-0.992l-1.856,0l0,7.808Z" style="fill:#5b5b5b;fill-rule:nonzero;"/><path d="M905.519,1158.25c1.296,0 2.336,-0.368 3.248,-1.344l-1.312,-1.152c-0.56,0.576 -1.104,0.72 -1.952,0.72c-1.136,0 -1.744,-0.64 -1.872,-1.6l5.36,0c0,0 0.064,-0.24 0.064,-0.592c0,-2.016 -0.832,-4.032 -3.68,-4.032c-2.544,0 -3.76,2 -3.76,4.048c0,2.08 1.296,3.952 3.904,3.952ZM903.631,1153.5c0.16,-0.944 0.688,-1.648 1.744,-1.648c1.136,0 1.68,0.592 1.808,1.648l-3.552,0Z" style="fill:#5b5b5b;fill-rule:nonzero;"/></g></g><g><path d="M187.418,6.686c0,-2.208 -1.792,-4 -4,-4l-172,0c-2.207,0 -4,1.792 -4,4l0,46.544c0,2.208 1.793,4 4,4l172,0c2.208,0 4,-1.792 4,-4l0,-46.544Z" style="fill:#e0e0e0;"/><g transform="matrix(1,0,0,1,-801.686,-1113.9)"><path d="M826.143,1138.31c2.192,0 3.952,-1.12 4.832,-3.184l-1.84,-0.752c-0.592,1.488 -1.568,2.048 -2.992,2.048c-2.368,0 -3.376,-1.68 -3.376,-3.872c0,-2.048 1.008,-3.728 3.344,-3.728c1.44,0 2.576,0.56 2.992,2.016l1.856,-0.736c-0.896,-2.064 -2.64,-3.168 -4.832,-3.168c-3.632,0 -5.328,2.672 -5.328,5.696c0,3.024 1.712,5.68 5.344,5.68Z" style="fill:#5b5b5b;fill-rule:nonzero;"/><path d="M835.263,1138.33c0.848,0 1.696,-0.352 2.256,-1.088l0,0.912l1.936,0l0,-7.808l-1.936,0l0,4.32c0,0.976 -0.912,1.856 -1.968,1.856c-0.992,0 -1.248,-0.72 -1.248,-1.68l0,-4.496l-1.936,0l0,4.592c0,1.696 0.848,3.392 2.896,3.392Z" style="fill:#5b5b5b;fill-rule:nonzero;"/><path d="M844.175,1138.31c1.472,0 3.04,-0.8 3.04,-2.608c0,-2.864 -3.968,-2.16 -3.968,-3.344c0,-0.368 0.384,-0.624 1.008,-0.624c0.848,0 1.28,0.464 1.552,0.944l1.36,-0.736c-0.512,-0.912 -1.488,-1.712 -2.928,-1.712c-1.392,0 -2.816,0.736 -2.816,2.384c0,2.736 3.92,1.872 3.92,3.184c0,0.416 -0.384,0.928 -1.264,0.928c-1.04,0 -1.456,-0.72 -1.664,-1.28l-1.52,0.672c0.384,1.2 1.632,2.192 3.28,2.192Z" style="fill:#5b5b5b;fill-rule:nonzero;"/><path d="M851.567,1138.31c0.784,0 1.408,-0.24 1.408,-0.24l0,-1.728c0,0 -0.56,0.272 -1.184,0.272c-0.592,0 -0.848,-0.256 -0.848,-0.64l0,-3.904l2.032,0l0,-1.728l-2.032,0l0,-3.296l-1.792,1.36l0,1.936l-1.296,0l0,1.728l1.264,0l0,3.92c0,1.424 0.912,2.32 2.448,2.32Z" style="fill:#5b5b5b;fill-rule:nonzero;"/><path d="M857.871,1138.31c2.416,0 4.08,-1.824 4.08,-4.032c0,-2.208 -1.664,-4.032 -4.08,-4.032c-2.416,0 -4.08,1.824 -4.08,4.032c0,2.208 1.664,4.032 4.08,4.032ZM857.871,1136.66c-1.44,0 -2.016,-1.104 -2.016,-2.384c0,-1.28 0.576,-2.384 2.016,-2.384c1.44,0 2.016,1.104 2.016,2.384c0,1.28 -0.576,2.384 -2.016,2.384Z" style="fill:#5b5b5b;fill-rule:nonzero;"/><path d="M863.631,1138.15l1.92,0l0,-4.288c0,-1.04 0.608,-1.888 1.632,-1.888c0.992,0 1.248,0.752 1.248,1.696l0,4.48l1.936,0l0,-4.288c0,-1.04 0.608,-1.888 1.632,-1.888c0.992,0 1.264,0.768 1.264,1.728l0,4.448l1.936,0l0,-4.688c0,-1.632 -0.864,-3.248 -2.896,-3.248c-0.976,0 -1.968,0.384 -2.576,1.184c-0.512,-0.768 -1.232,-1.2 -2.24,-1.2c-0.672,0 -1.424,0.256 -1.936,0.96l0,-0.816l-1.92,0l0,7.808Z" style="fill:#5b5b5b;fill-rule:nonzero;"/><path d="M880.447,1138.25c1.296,0 2.336,-0.368 3.248,-1.344l-1.312,-1.152c-0.56,0.576 -1.104,0.72 -1.952,0.72c-1.136,0 -1.744,-0.64 -1.872,-1.6l5.36,0c0,0 0.064,-0.24 0.064,-0.592c0,-2.016 -0.832,-4.032 -3.68,-4.032c-2.544,0 -3.76,2 -3.76,4.048c0,2.08 1.296,3.952 3.904,3.952ZM878.559,1133.5c0.16,-0.944 0.688,-1.648 1.744,-1.648c1.136,0 1.68,0.592 1.808,1.648l-3.552,0Z" style="fill:#5b5b5b;fill-rule:nonzero;"/><path d="M885.583,1138.15l1.84,0l0,-3.616c0,-1.392 0.736,-2.496 1.808,-2.496c0.416,0 0.64,0.08 0.864,0.272l0.864,-1.568c-0.464,-0.368 -1.136,-0.512 -1.648,-0.512c-0.656,0 -1.328,0.304 -1.872,1.104l0,-0.992l-1.856,0l0,7.808Z" style="fill:#5b5b5b;fill-rule:nonzero;"/><path d="M898.767,1138.31c2.704,0 3.728,-1.792 3.728,-4.144l0,-7.056l-6.144,0l0,1.824l4.16,0l0,5.264c0,1.44 -0.304,2.272 -1.744,2.272c-1.184,0 -1.696,-0.896 -1.776,-1.984l-1.952,0.224c0.144,1.952 1.472,3.6 3.728,3.6Z" style="fill:#5b5b5b;fill-rule:nonzero;"/><path d="M907.951,1138.31c2.416,0 4.08,-1.824 4.08,-4.032c0,-2.208 -1.664,-4.032 -4.08,-4.032c-2.416,0 -4.08,1.824 -4.08,4.032c0,2.208 1.664,4.032 4.08,4.032ZM907.951,1136.66c-1.44,0 -2.016,-1.104 -2.016,-2.384c0,-1.28 0.576,-2.384 2.016,-2.384c1.44,0 2.016,1.104 2.016,2.384c0,1.28 -0.576,2.384 -2.016,2.384Z" style="fill:#5b5b5b;fill-rule:nonzero;"/><path d="M916.415,1138.33c0.848,0 1.696,-0.352 2.256,-1.088l0,0.912l1.936,0l0,-7.808l-1.936,0l0,4.32c0,0.976 -0.912,1.856 -1.968,1.856c-0.992,0 -1.248,-0.72 -1.248,-1.68l0,-4.496l-1.936,0l0,4.592c0,1.696 0.848,3.392 2.896,3.392Z" style="fill:#5b5b5b;fill-rule:nonzero;"/><path d="M922.927,1138.15l1.84,0l0,-3.616c0,-1.392 0.736,-2.496 1.808,-2.496c0.416,0 0.64,0.08 0.864,0.272l0.864,-1.568c-0.464,-0.368 -1.136,-0.512 -1.648,-0.512c-0.656,0 -1.328,0.304 -1.872,1.104l0,-0.992l-1.856,0l0,7.808Z" style="fill:#5b5b5b;fill-rule:nonzero;"/><path d="M929.183,1138.15l1.936,0l0,-4.272c0,-0.976 0.896,-1.888 1.952,-1.888c0.992,0 1.248,0.752 1.248,1.712l0,4.448l1.936,0l0,-4.688c0,-1.632 -0.832,-3.248 -2.88,-3.248c-0.768,0 -1.632,0.272 -2.256,1.04l0,-0.912l-1.936,0l0,7.808Z" style="fill:#5b5b5b;fill-rule:nonzero;"/><path d="M941.759,1138.25c1.296,0 2.336,-0.368 3.248,-1.344l-1.312,-1.152c-0.56,0.576 -1.104,0.72 -1.952,0.72c-1.136,0 -1.744,-0.64 -1.872,-1.6l5.36,0c0,0 0.064,-0.24 0.064,-0.592c0,-2.016 -0.832,-4.032 -3.68,-4.032c-2.544,0 -3.76,2 -3.76,4.048c0,2.08 1.296,3.952 3.904,3.952ZM939.871,1133.5c0.16,-0.944 0.688,-1.648 1.744,-1.648c1.136,0 1.68,0.592 1.808,1.648l-3.552,0Z" style="fill:#5b5b5b;fill-rule:nonzero;"/><path d="M947.391,1141.51l2.08,0l4.464,-11.168l-2.096,0l-2,5.424l-1.968,-5.424l-2.096,0l3.056,7.6l-1.44,3.568Z" style="fill:#5b5b5b;fill-rule:nonzero;"/><path d="M820.175,1158.15l2.16,0l0.864,-2.4l4.288,0l0.848,2.4l2.144,0l-4.4,-11.04l-1.488,0l-4.416,11.04ZM823.871,1154.06l1.472,-4.016l1.472,4.016l-2.944,0Z" style="fill:#5b5b5b;fill-rule:nonzero;"/><path d="M831.759,1158.15l1.936,0l0,-4.272c0,-0.976 0.896,-1.888 1.952,-1.888c0.992,0 1.248,0.752 1.248,1.712l0,4.448l1.936,0l0,-4.688c0,-1.632 -0.832,-3.248 -2.88,-3.248c-0.768,0 -1.632,0.272 -2.256,1.04l0,-0.912l-1.936,0l0,7.808Z" style="fill:#5b5b5b;fill-rule:nonzero;"/><path d="M843.311,1158.31c1.04,0 1.84,-0.304 2.512,-1.28l0.208,1.12l1.488,0l0,-4.736c0,-1.904 -1.248,-3.2 -3.376,-3.2c-1.472,0 -2.48,0.592 -3.28,1.68l1.456,1.056c0.304,-0.544 0.976,-1.072 1.76,-1.072c1.136,0 1.616,0.624 1.616,1.616l-2.032,0c-1.744,0 -3.2,0.528 -3.2,2.32c0,1.536 1.36,2.496 2.848,2.496ZM843.663,1156.7c-0.736,0 -1.248,-0.368 -1.248,-0.88c0,-0.496 0.496,-0.944 1.36,-0.944l1.92,0c-0.032,0.976 -0.944,1.824 -2.032,1.824Z" style="fill:#5b5b5b;fill-rule:nonzero;"/><path d="M851.119,1158.31c0.576,0 1.376,-0.16 1.376,-0.16l0,-1.6c0,0 -0.352,0.048 -0.48,0.048c-0.448,0 -0.672,-0.16 -0.672,-0.528l0,-8.96l-1.904,0l0,9.488c0,1.392 0.736,1.712 1.68,1.712Z" style="fill:#5b5b5b;fill-rule:nonzero;"/><path d="M854.495,1161.51l2.08,0l4.464,-11.168l-2.096,0l-2,5.424l-1.968,-5.424l-2.096,0l3.056,7.6l-1.44,3.568Z" style="fill:#5b5b5b;fill-rule:nonzero;"/><path d="M864.719,1158.31c1.472,0 3.04,-0.8 3.04,-2.608c0,-2.864 -3.968,-2.16 -3.968,-3.344c0,-0.368 0.384,-0.624 1.008,-0.624c0.848,0 1.28,0.464 1.552,0.944l1.36,-0.736c-0.512,-0.912 -1.488,-1.712 -2.928,-1.712c-1.392,0 -2.816,0.736 -2.816,2.384c0,2.736 3.92,1.872 3.92,3.184c0,0.416 -0.384,0.928 -1.264,0.928c-1.04,0 -1.456,-0.72 -1.664,-1.28l-1.52,0.672c0.384,1.2 1.632,2.192 3.28,2.192Z" style="fill:#5b5b5b;fill-rule:nonzero;"/><path d="M872.623,1158.25c1.296,0 2.336,-0.368 3.248,-1.344l-1.312,-1.152c-0.56,0.576 -1.104,0.72 -1.952,0.72c-1.136,0 -1.744,-0.64 -1.872,-1.6l5.36,0c0,0 0.064,-0.24 0.064,-0.592c0,-2.016 -0.832,-4.032 -3.68,-4.032c-2.544,0 -3.76,2 -3.76,4.048c0,2.08 1.296,3.952 3.904,3.952ZM870.735,1153.5c0.16,-0.944 0.688,-1.648 1.744,-1.648c1.136,0 1.68,0.592 1.808,1.648l-3.552,0Z" style="fill:#5b5b5b;fill-rule:nonzero;"/></g></g><g><path d="M187.418,192.561c0,-2.207 -1.792,-4 -4,-4l-172,0c-2.207,0 -4,1.793 -4,4l0,46.545c0,2.207 1.793,4 4,4l172,0c2.208,0 4,-1.793 4,-4l0,-46.545Z" style="fill:#dce9ff;"/><g transform="matrix(1,0,0,1,-801.686,-928.025)"><rect x="821.295" y="1127.11" width="1.984" height="11.04" style="fill:#008be3;fill-rule:nonzero;"/><path d="M825.679,1138.15l1.936,0l0,-4.272c0,-0.976 0.896,-1.888 1.952,-1.888c0.992,0 1.248,0.752 1.248,1.712l0,4.448l1.936,0l0,-4.688c0,-1.632 -0.832,-3.248 -2.88,-3.248c-0.768,0 -1.632,0.272 -2.256,1.04l0,-0.912l-1.936,0l0,7.808Z" style="fill:#008be3;fill-rule:nonzero;"/><path d="M837.743,1138.31c0.784,0 1.408,-0.24 1.408,-0.24l0,-1.728c0,0 -0.56,0.272 -1.184,0.272c-0.592,0 -0.848,-0.256 -0.848,-0.64l0,-3.904l2.032,0l0,-1.728l-2.032,0l0,-3.296l-1.792,1.36l0,1.936l-1.296,0l0,1.728l1.264,0l0,3.92c0,1.424 0.912,2.32 2.448,2.32Z" style="fill:#008be3;fill-rule:nonzero;"/><path d="M843.951,1138.25c1.296,0 2.336,-0.368 3.248,-1.344l-1.312,-1.152c-0.56,0.576 -1.104,0.72 -1.952,0.72c-1.136,0 -1.744,-0.64 -1.872,-1.6l5.36,0c0,0 0.064,-0.24 0.064,-0.592c0,-2.016 -0.832,-4.032 -3.68,-4.032c-2.544,0 -3.76,2 -3.76,4.048c0,2.08 1.296,3.952 3.904,3.952ZM842.063,1133.5c0.16,-0.944 0.688,-1.648 1.744,-1.648c1.136,0 1.68,0.592 1.808,1.648l-3.552,0Z" style="fill:#008be3;fill-rule:nonzero;"/><path d="M849.087,1138.15l1.84,0l0,-3.616c0,-1.392 0.736,-2.496 1.808,-2.496c0.416,0 0.64,0.08 0.864,0.272l0.864,-1.568c-0.464,-0.368 -1.136,-0.512 -1.648,-0.512c-0.656,0 -1.328,0.304 -1.872,1.104l0,-0.992l-1.856,0l0,7.808Z" style="fill:#008be3;fill-rule:nonzero;"/><path d="M855.759,1138.15l1.968,0l0,-6.08l1.824,0l0,-1.728l-1.824,0l0,-1.008c0,-0.4 0.272,-0.656 0.72,-0.656c0.352,0 0.608,0.16 0.608,0.16l0.624,-1.568c-0.416,-0.192 -0.912,-0.32 -1.392,-0.32c-1.344,0 -2.512,0.832 -2.512,2.352l0,1.056l-1.44,0l0,1.712l1.424,0l0,6.08Z" style="fill:#008be3;fill-rule:nonzero;"/><path d="M863.151,1138.31c1.04,0 1.84,-0.304 2.512,-1.28l0.208,1.12l1.488,0l0,-4.736c0,-1.904 -1.248,-3.2 -3.376,-3.2c-1.472,0 -2.48,0.592 -3.28,1.68l1.456,1.056c0.304,-0.544 0.976,-1.072 1.76,-1.072c1.136,0 1.616,0.624 1.616,1.616l-2.032,0c-1.744,0 -3.2,0.528 -3.2,2.32c0,1.536 1.36,2.496 2.848,2.496ZM863.503,1136.7c-0.736,0 -1.248,-0.368 -1.248,-0.88c0,-0.496 0.496,-0.944 1.36,-0.944l1.92,0c-0.032,0.976 -0.944,1.824 -2.032,1.824Z" style="fill:#008be3;fill-rule:nonzero;"/><path d="M872.415,1138.31c1.552,0 2.768,-0.864 3.28,-2.32l-1.728,-0.656c-0.208,0.736 -0.8,1.184 -1.568,1.184c-1.328,0 -1.824,-1.072 -1.824,-2.256c0,-1.168 0.512,-2.256 1.824,-2.256c0.784,0 1.36,0.432 1.568,1.184l1.808,-0.704c-0.592,-1.392 -1.824,-2.272 -3.376,-2.272c-2.544,0 -3.76,2 -3.76,4.048c0,2.064 1.232,4.048 3.776,4.048Z" style="fill:#008be3;fill-rule:nonzero;"/><path d="M880.303,1138.25c1.296,0 2.336,-0.368 3.248,-1.344l-1.312,-1.152c-0.56,0.576 -1.104,0.72 -1.952,0.72c-1.136,0 -1.744,-0.64 -1.872,-1.6l5.36,0c0,0 0.064,-0.24 0.064,-0.592c0,-2.016 -0.832,-4.032 -3.68,-4.032c-2.544,0 -3.76,2 -3.76,4.048c0,2.08 1.296,3.952 3.904,3.952ZM878.415,1133.5c0.16,-0.944 0.688,-1.648 1.744,-1.648c1.136,0 1.68,0.592 1.808,1.648l-3.552,0Z" style="fill:#008be3;fill-rule:nonzero;"/><path d="M889.759,1138.15l3.184,0c3.712,0 5.76,-2 5.76,-5.44c0,-3.568 -1.984,-5.6 -5.744,-5.6l-3.2,0l0,11.04ZM891.743,1136.33l0,-7.392l1.184,0c2.72,0 3.792,1.088 3.792,3.696c0,2.752 -1.536,3.696 -3.968,3.696l-1.008,0Z" style="fill:#008be3;fill-rule:nonzero;"/><path d="M903.839,1138.25c1.296,0 2.336,-0.368 3.248,-1.344l-1.312,-1.152c-0.56,0.576 -1.104,0.72 -1.952,0.72c-1.136,0 -1.744,-0.64 -1.872,-1.6l5.36,0c0,0 0.064,-0.24 0.064,-0.592c0,-2.016 -0.832,-4.032 -3.68,-4.032c-2.544,0 -3.76,2 -3.76,4.048c0,2.08 1.296,3.952 3.904,3.952ZM901.951,1133.5c0.16,-0.944 0.688,-1.648 1.744,-1.648c1.136,0 1.68,0.592 1.808,1.648l-3.552,0Z" style="fill:#008be3;fill-rule:nonzero;"/><path d="M911.375,1138.31c1.472,0 3.04,-0.8 3.04,-2.608c0,-2.864 -3.968,-2.16 -3.968,-3.344c0,-0.368 0.384,-0.624 1.008,-0.624c0.848,0 1.28,0.464 1.552,0.944l1.36,-0.736c-0.512,-0.912 -1.488,-1.712 -2.928,-1.712c-1.392,0 -2.816,0.736 -2.816,2.384c0,2.736 3.92,1.872 3.92,3.184c0,0.416 -0.384,0.928 -1.264,0.928c-1.04,0 -1.456,-0.72 -1.664,-1.28l-1.52,0.672c0.384,1.2 1.632,2.192 3.28,2.192Z" style="fill:#008be3;fill-rule:nonzero;"/><path d="M915.903,1128.89l2,0l0,-1.76l-2,0l0,1.76ZM915.967,1138.15l1.888,0l0,-7.808l-1.888,0l0,7.808Z" style="fill:#008be3;fill-rule:nonzero;"/><path d="M923.391,1141.74c2.544,0 3.648,-0.832 3.648,-2.528c0,-1.76 -1.04,-2.432 -3.424,-2.448c-1.52,-0.016 -2.192,-0.224 -2.192,-0.64c0,-0.16 0.112,-0.352 0.288,-0.544c0.448,0.224 1.024,0.368 1.632,0.368c1.728,0 3.168,-1.072 3.168,-2.848c0,-0.624 -0.16,-1.104 -0.464,-1.568l1.168,-0.8l-1.12,-1.44l-1.344,1.248c-0.384,-0.16 -0.896,-0.288 -1.408,-0.288c-1.76,0 -3.184,1.088 -3.184,2.8c0,0.496 0.096,0.88 0.32,1.296c-0.448,0.464 -0.832,1.056 -0.832,1.696c0,0.448 0.272,1.216 0.944,1.712l-0.928,0.352c0,0.048 -0.16,0.352 -0.16,0.912c0,2.16 2.304,2.72 3.888,2.72ZM923.375,1134.42c-0.848,0 -1.312,-0.576 -1.312,-1.344c0,-0.768 0.464,-1.392 1.312,-1.392c0.832,0 1.296,0.624 1.296,1.392c0,0.768 -0.464,1.344 -1.296,1.344ZM923.407,1140.17c-1.2,0 -2.208,-0.448 -2.32,-1.12l0.832,-0.64c0.432,0.08 0.848,0.096 1.632,0.096c1.312,0 1.872,0.24 1.872,0.784c0,0.608 -0.608,0.88 -2.016,0.88Z" style="fill:#008be3;fill-rule:nonzero;"/><path d="M928.479,1138.15l1.936,0l0,-4.272c0,-0.976 0.896,-1.888 1.952,-1.888c0.992,0 1.248,0.752 1.248,1.712l0,4.448l1.936,0l0,-4.688c0,-1.632 -0.832,-3.248 -2.88,-3.248c-0.768,0 -1.632,0.272 -2.256,1.04l0,-0.912l-1.936,0l0,7.808Z" style="fill:#008be3;fill-rule:nonzero;"/><path d="M944.351,1138.31c1.04,0 1.84,-0.304 2.512,-1.28l0.208,1.12l1.488,0l0,-4.736c0,-1.904 -1.248,-3.2 -3.376,-3.2c-1.472,0 -2.48,0.592 -3.28,1.68l1.456,1.056c0.304,-0.544 0.976,-1.072 1.76,-1.072c1.136,0 1.616,0.624 1.616,1.616l-2.032,0c-1.744,0 -3.2,0.528 -3.2,2.32c0,1.536 1.36,2.496 2.848,2.496ZM944.703,1136.7c-0.736,0 -1.248,-0.368 -1.248,-0.88c0,-0.496 0.496,-0.944 1.36,-0.944l1.92,0c-0.032,0.976 -0.944,1.824 -2.032,1.824Z" style="fill:#008be3;fill-rule:nonzero;"/><path d="M950.479,1138.15l1.936,0l0,-4.272c0,-0.976 0.896,-1.888 1.952,-1.888c0.992,0 1.248,0.752 1.248,1.712l0,4.448l1.936,0l0,-4.688c0,-1.632 -0.832,-3.248 -2.88,-3.248c-0.768,0 -1.632,0.272 -2.256,1.04l0,-0.912l-1.936,0l0,7.808Z" style="fill:#008be3;fill-rule:nonzero;"/><path d="M962.479,1138.31c0.832,0 1.648,-0.224 2.24,-0.944l0,0.784l1.936,0l0,-11.04l-1.936,0l0,4.016c-0.544,-0.672 -1.392,-0.944 -2.24,-0.944c-2.128,0 -3.328,1.904 -3.328,4.064c0,2.16 1.2,4.064 3.328,4.064ZM962.959,1136.55c-1.264,0 -1.872,-0.992 -1.872,-2.304c0,-1.296 0.608,-2.336 1.872,-2.336c1.28,0 1.84,1.024 1.84,2.336c0,1.328 -0.56,2.304 -1.84,2.304Z" style="fill:#008be3;fill-rule:nonzero;"/><path d="M825.247,1158.31c2.96,0 4.224,-1.76 4.224,-4.544l0,-6.656l-1.984,0l0,6.512c0,1.776 -0.464,2.768 -2.24,2.768c-1.776,0 -2.24,-0.992 -2.24,-2.768l0,-6.512l-1.984,0l0,6.736c0,2.704 1.264,4.464 4.224,4.464Z" style="fill:#008be3;fill-rule:nonzero;"/><path d="M833.935,1158.31c1.472,0 3.04,-0.8 3.04,-2.608c0,-2.864 -3.968,-2.16 -3.968,-3.344c0,-0.368 0.384,-0.624 1.008,-0.624c0.848,0 1.28,0.464 1.552,0.944l1.36,-0.736c-0.512,-0.912 -1.488,-1.712 -2.928,-1.712c-1.392,0 -2.816,0.736 -2.816,2.384c0,2.736 3.92,1.872 3.92,3.184c0,0.416 -0.384,0.928 -1.264,0.928c-1.04,0 -1.456,-0.72 -1.664,-1.28l-1.52,0.672c0.384,1.2 1.632,2.192 3.28,2.192Z" style="fill:#008be3;fill-rule:nonzero;"/><path d="M841.839,1158.25c1.296,0 2.336,-0.368 3.248,-1.344l-1.312,-1.152c-0.56,0.576 -1.104,0.72 -1.952,0.72c-1.136,0 -1.744,-0.64 -1.872,-1.6l5.36,0c0,0 0.064,-0.24 0.064,-0.592c0,-2.016 -0.832,-4.032 -3.68,-4.032c-2.544,0 -3.76,2 -3.76,4.048c0,2.08 1.296,3.952 3.904,3.952ZM839.951,1153.5c0.16,-0.944 0.688,-1.648 1.744,-1.648c1.136,0 1.68,0.592 1.808,1.648l-3.552,0Z" style="fill:#008be3;fill-rule:nonzero;"/><path d="M846.975,1158.15l1.84,0l0,-3.616c0,-1.392 0.736,-2.496 1.808,-2.496c0.416,0 0.64,0.08 0.864,0.272l0.864,-1.568c-0.464,-0.368 -1.136,-0.512 -1.648,-0.512c-0.656,0 -1.328,0.304 -1.872,1.104l0,-0.992l-1.856,0l0,7.808Z" style="fill:#008be3;fill-rule:nonzero;"/><path d="M859.887,1158.15l1.984,0l0,-9.264l3.456,0l0,-1.776l-8.896,0l0,1.776l3.456,0l0,9.264Z" style="fill:#008be3;fill-rule:nonzero;"/><path d="M868.271,1158.25c1.296,0 2.336,-0.368 3.248,-1.344l-1.312,-1.152c-0.56,0.576 -1.104,0.72 -1.952,0.72c-1.136,0 -1.744,-0.64 -1.872,-1.6l5.36,0c0,0 0.064,-0.24 0.064,-0.592c0,-2.016 -0.832,-4.032 -3.68,-4.032c-2.544,0 -3.76,2 -3.76,4.048c0,2.08 1.296,3.952 3.904,3.952ZM866.383,1153.5c0.16,-0.944 0.688,-1.648 1.744,-1.648c1.136,0 1.68,0.592 1.808,1.648l-3.552,0Z" style="fill:#008be3;fill-rule:nonzero;"/><path d="M875.807,1158.31c1.472,0 3.04,-0.8 3.04,-2.608c0,-2.864 -3.968,-2.16 -3.968,-3.344c0,-0.368 0.384,-0.624 1.008,-0.624c0.848,0 1.28,0.464 1.552,0.944l1.36,-0.736c-0.512,-0.912 -1.488,-1.712 -2.928,-1.712c-1.392,0 -2.816,0.736 -2.816,2.384c0,2.736 3.92,1.872 3.92,3.184c0,0.416 -0.384,0.928 -1.264,0.928c-1.04,0 -1.456,-0.72 -1.664,-1.28l-1.52,0.672c0.384,1.2 1.632,2.192 3.28,2.192Z" style="fill:#008be3;fill-rule:nonzero;"/><path d="M883.199,1158.31c0.784,0 1.408,-0.24 1.408,-0.24l0,-1.728c0,0 -0.56,0.272 -1.184,0.272c-0.592,0 -0.848,-0.256 -0.848,-0.64l0,-3.904l2.032,0l0,-1.728l-2.032,0l0,-3.296l-1.792,1.36l0,1.936l-1.296,0l0,1.728l1.264,0l0,3.92c0,1.424 0.912,2.32 2.448,2.32Z" style="fill:#008be3;fill-rule:nonzero;"/><path d="M890.463,1158.15l4.304,0c1.872,0 3.6,-1.152 3.6,-3.2c0,-1.104 -0.768,-2.304 -1.776,-2.704c0.624,-0.336 1.232,-1.136 1.232,-2.144c0,-2.208 -1.856,-2.992 -3.536,-2.992l-3.824,0l0,11.04ZM892.447,1151.56l0,-2.656l1.872,0c0.944,0 1.68,0.448 1.68,1.312c0,1.088 -0.752,1.344 -1.52,1.344l-2.032,0ZM892.447,1156.27l0,-2.992l2.272,0c1.04,0 1.696,0.672 1.696,1.456c0,1.04 -0.592,1.536 -1.616,1.536l-2.352,0Z" style="fill:#008be3;fill-rule:nonzero;"/><path d="M902.623,1158.33c0.848,0 1.696,-0.352 2.256,-1.088l0,0.912l1.936,0l0,-7.808l-1.936,0l0,4.32c0,0.976 -0.912,1.856 -1.968,1.856c-0.992,0 -1.248,-0.72 -1.248,-1.68l0,-4.496l-1.936,0l0,4.592c0,1.696 0.848,3.392 2.896,3.392Z" style="fill:#008be3;fill-rule:nonzero;"/><path d="M909.023,1148.89l2,0l0,-1.76l-2,0l0,1.76ZM909.087,1158.15l1.888,0l0,-7.808l-1.888,0l0,7.808Z" style="fill:#008be3;fill-rule:nonzero;"/><path d="M914.991,1158.31c0.576,0 1.376,-0.16 1.376,-0.16l0,-1.6c0,0 -0.352,0.048 -0.48,0.048c-0.448,0 -0.672,-0.16 -0.672,-0.528l0,-8.96l-1.904,0l0,9.488c0,1.392 0.736,1.712 1.68,1.712Z" style="fill:#008be3;fill-rule:nonzero;"/><path d="M920.559,1158.31c0.832,0 1.648,-0.224 2.24,-0.944l0,0.784l1.936,0l0,-11.04l-1.936,0l0,4.016c-0.544,-0.672 -1.392,-0.944 -2.24,-0.944c-2.128,0 -3.328,1.904 -3.328,4.064c0,2.16 1.2,4.064 3.328,4.064ZM921.039,1156.55c-1.264,0 -1.872,-0.992 -1.872,-2.304c0,-1.296 0.608,-2.336 1.872,-2.336c1.28,0 1.84,1.024 1.84,2.336c0,1.328 -0.56,2.304 -1.84,2.304Z" style="fill:#008be3;fill-rule:nonzero;"/><path d="M927.023,1148.89l2,0l0,-1.76l-2,0l0,1.76ZM927.087,1158.15l1.888,0l0,-7.808l-1.888,0l0,7.808Z" style="fill:#008be3;fill-rule:nonzero;"/><path d="M931.311,1158.15l1.936,0l0,-4.272c0,-0.976 0.896,-1.888 1.952,-1.888c0.992,0 1.248,0.752 1.248,1.712l0,4.448l1.936,0l0,-4.688c0,-1.632 -0.832,-3.248 -2.88,-3.248c-0.768,0 -1.632,0.272 -2.256,1.04l0,-0.912l-1.936,0l0,7.808Z" style="fill:#008be3;fill-rule:nonzero;"/><path d="M943.823,1161.74c2.544,0 3.648,-0.832 3.648,-2.528c0,-1.76 -1.04,-2.432 -3.424,-2.448c-1.52,-0.016 -2.192,-0.224 -2.192,-0.64c0,-0.16 0.112,-0.352 0.288,-0.544c0.448,0.224 1.024,0.368 1.632,0.368c1.728,0 3.168,-1.072 3.168,-2.848c0,-0.624 -0.16,-1.104 -0.464,-1.568l1.168,-0.8l-1.12,-1.44l-1.344,1.248c-0.384,-0.16 -0.896,-0.288 -1.408,-0.288c-1.76,0 -3.184,1.088 -3.184,2.8c0,0.496 0.096,0.88 0.32,1.296c-0.448,0.464 -0.832,1.056 -0.832,1.696c0,0.448 0.272,1.216 0.944,1.712l-0.928,0.352c0,0.048 -0.16,0.352 -0.16,0.912c0,2.16 2.304,2.72 3.888,2.72ZM943.807,1154.42c-0.848,0 -1.312,-0.576 -1.312,-1.344c0,-0.768 0.464,-1.392 1.312,-1.392c0.832,0 1.296,0.624 1.296,1.392c0,0.768 -0.464,1.344 -1.296,1.344ZM943.839,1160.17c-1.2,0 -2.208,-0.448 -2.32,-1.12l0.832,-0.64c0.432,0.08 0.848,0.096 1.632,0.096c1.312,0 1.872,0.24 1.872,0.784c0,0.608 -0.608,0.88 -2.016,0.88Z" style="fill:#008be3;fill-rule:nonzero;"/></g></g><path d="M1.94,2.686l0,113.39" style="fill:none;stroke-width:2px;stroke:#5b5b5b;"/><path d="M1.94,152.437l0,90.669" style="fill:none;stroke-width:2px;stroke:#008be3;"/><path d="M98.932,139.044c-0.202,0.32 -0.554,0.514 -0.932,0.514c-0.378,0 -0.73,-0.194 -0.932,-0.514c-0.965,-1.527 -2.468,-3.909 -3.479,-5.511c-0.215,-0.339 -0.227,-0.769 -0.034,-1.121c0.194,-0.352 0.564,-0.57 0.966,-0.57c1.976,0 4.982,0 6.958,0c0.402,0 0.772,0.218 0.966,0.57c0.194,0.352 0.181,0.782 -0.034,1.121c-1.011,1.602 -2.514,3.984 -3.479,5.511Z" style="fill:#008be3;"/></g></svg>