<?xml version="1.0" standalone="no"?><!DOCTYPE svg PUBLIC "-//W3C//DTD SVG 1.1//EN" "http://www.w3.org/Graphics/SVG/1.1/DTD/svg11.dtd"><svg width="100%" height="100%" viewBox="0 0 244 65" version="1.1" xmlns="http://www.w3.org/2000/svg" xmlns:xlink="http://www.w3.org/1999/xlink" xml:space="preserve" style="fill-rule:evenodd;clip-rule:evenodd;stroke-linecap:round;stroke-linejoin:round;stroke-miterlimit:1.41421;"><g><path d="M32.008,0.845c-17.73,0 -32.008,14.371 -32.008,32.008c0,17.638 14.278,31.916 32.008,31.916c17.638,0 31.916,-14.278 31.916,-31.916c0,-17.637 -14.278,-32.008 -31.916,-32.008ZM32.008,50.771c-9.985,0 -18.01,-8.026 -18.01,-17.918c0,-9.891 8.025,-18.01 18.01,-18.01c9.892,0 17.918,8.119 17.918,18.01c0,9.892 -8.026,17.918 -17.918,17.918Z" style="fill:#00efff;fill-rule:nonzero;"/><g><path d="M121.858,0.845c-17.731,0 -32.008,14.371 -32.008,32.008c0,17.638 14.277,31.916 32.008,31.916c17.637,0 31.915,-14.278 31.915,-31.916c0,-17.637 -14.278,-32.008 -31.915,-32.008Z" style="fill:#ececec;fill-rule:nonzero;"/><g><path d="M105.512,25.683c0,0 11.039,-8.375 14.948,-11.34c0.799,-0.606 1.904,-0.606 2.703,0c3.909,2.965 14.948,11.34 14.948,11.34c0,0 0,12.092 0,18.102c0,0.878 -0.348,1.72 -0.969,2.34c-0.621,0.621 -1.462,0.969 -2.34,0.969c-6.252,0 -19.729,0 -25.981,0c-0.878,0 -1.72,-0.348 -2.34,-0.969c-0.621,-0.62 -0.969,-1.462 -0.969,-2.34c0,-6.01 0,-18.102 0,-18.102" style="fill:#fff;"/><g><circle cx="121.811" cy="36.933" r="1.98" style="fill:#b1b1b1;"/><path d="M117.163,33.24c1.088,-1.367 2.767,-2.245 4.648,-2.245c1.921,0 3.629,0.914 4.715,2.33" style="fill:none;stroke-width:1.5px;stroke:#b1b1b1;"/><path d="M114.049,30.422c1.804,-2.268 4.587,-3.722 7.708,-3.722c3.184,0 6.017,1.514 7.817,3.862" style="fill:none;stroke-width:1.5px;stroke:#b1b1b1;"/></g></g></g><g><path d="M211.708,0.845c-17.731,0 -32.009,14.371 -32.009,32.008c0,17.638 14.278,31.916 32.009,31.916c17.637,0 31.915,-14.278 31.915,-31.916c0,-17.637 -14.278,-32.008 -31.915,-32.008Z" style="fill:#ececec;fill-rule:nonzero;"/><g><path d="M228.182,24.546c0,-4.559 -3.702,-8.26 -8.261,-8.26l-16.52,0c-4.559,0 -8.261,3.701 -8.261,8.26l0,16.521c0,4.559 3.702,8.26 8.261,8.26l16.52,0c4.559,0 8.261,-3.701 8.261,-8.26l0,-16.521Z" style="fill:#fff;"/><path d="M204.715,37.743c-0.139,0.27 -0.128,0.594 0.031,0.853c0.158,0.26 0.44,0.418 0.744,0.418c0.019,0 0.038,0 0.057,0c0.33,0 0.632,-0.187 0.779,-0.482c0.159,-0.318 0.375,-0.75 0.579,-1.158c0.368,-0.736 1.12,-1.201 1.943,-1.201c1.482,0 3.855,0 5.337,0c0.822,0 1.575,0.465 1.942,1.201c0.204,0.408 0.42,0.84 0.58,1.158c0.147,0.295 0.449,0.482 0.779,0.482c0.011,0 0.022,0 0.033,0c0.304,0 0.586,-0.158 0.744,-0.417c0.158,-0.26 0.17,-0.582 0.032,-0.853c-1.411,-2.747 -4.702,-9.16 -5.737,-11.178c-0.196,-0.38 -0.587,-0.619 -1.015,-0.619c-0.018,0 -0.037,0 -0.055,0c-0.427,0 -0.818,0.239 -1.013,0.618c-1.039,2.016 -4.344,8.429 -5.76,11.178ZM208.084,34.923l3.446,-7.006l3.419,7.006l-6.865,0Z" style="fill:#b1b1b1;fill-rule:nonzero;"/></g></g></g></svg>