<?xml version="1.0" standalone="no"?><!DOCTYPE svg PUBLIC "-//W3C//DTD SVG 1.1//EN" "http://www.w3.org/Graphics/SVG/1.1/DTD/svg11.dtd"><svg width="100%" height="100%" viewBox="0 0 388 98" version="1.1" xmlns="http://www.w3.org/2000/svg" xmlns:xlink="http://www.w3.org/1999/xlink" xml:space="preserve" style="fill-rule:evenodd;clip-rule:evenodd;stroke-linejoin:round;stroke-miterlimit:1.41421;"><g><path d="M18.109,23.838c0,-3.235 -0.527,-5.692 -1.582,-7.372c-1.054,-1.679 -2.59,-2.519 -4.605,-2.519c-2.11,0 -3.719,0.84 -4.828,2.519c-1.11,1.68 -1.664,4.137 -1.664,7.372c0,3.234 0.558,5.699 1.675,7.394c1.118,1.695 2.739,2.543 4.864,2.543c1.984,0 3.504,-0.851 4.558,-2.555c1.055,-1.703 1.582,-4.164 1.582,-7.382ZM22.422,35.486c0,3.938 -0.93,6.922 -2.789,8.953c-1.86,2.031 -4.594,3.047 -8.203,3.047c-1.188,0 -2.43,-0.109 -3.727,-0.328c-1.297,-0.219 -2.594,-0.539 -3.89,-0.961l0,-4.266c1.531,0.719 2.921,1.25 4.171,1.594c1.25,0.344 2.399,0.516 3.446,0.516c2.328,0 4.023,-0.633 5.086,-1.899c1.062,-1.265 1.593,-3.273 1.593,-6.023l0,-0.188l0,-2.929c-0.687,1.468 -1.625,2.562 -2.812,3.281c-1.188,0.719 -2.633,1.078 -4.336,1.078c-3.063,0 -5.508,-1.227 -7.336,-3.68c-1.828,-2.453 -2.742,-5.734 -2.742,-9.843c0,-4.125 0.914,-7.414 2.742,-9.868c1.828,-2.453 4.273,-3.679 7.336,-3.679c1.687,0 3.117,0.336 4.289,1.008c1.172,0.671 2.125,1.71 2.859,3.117l0,-3.399l4.313,0l0,24.469Z" style="fill:#8aea41;fill-rule:nonzero;"/><path d="M33.825,11.017l11.039,0l0,22.805l8.554,0l0,3.352l-21.421,0l0,-3.352l8.554,0l0,-19.453l-6.726,0l0,-3.352ZM40.551,0.822l4.313,0l0,5.437l-4.313,0l0,-5.437Z" style="fill:#8aea41;fill-rule:nonzero;"/><path d="M69.227,3.47l0,7.454l9.797,0l0,3.351l-9.797,0l0,14.25c0,1.938 0.368,3.289 1.102,4.055c0.734,0.765 2.016,1.148 3.844,1.148l4.851,0l0,3.446l-5.273,0c-3.234,0 -5.516,-0.649 -6.844,-1.946c-1.328,-1.297 -1.992,-3.531 -1.992,-6.703l0,-14.25l-7.008,0l0,-3.351l7.008,0l0,-7.454l4.312,0Z" style="fill:#8aea41;fill-rule:nonzero;"/><path d="M136.541,35.838c-1.156,0.671 -2.348,1.175 -3.574,1.511c-1.227,0.336 -2.481,0.504 -3.762,0.504c-4.062,0 -7.238,-1.219 -9.527,-3.656c-2.289,-2.438 -3.434,-5.813 -3.434,-10.125c0,-4.313 1.145,-7.688 3.434,-10.125c2.289,-2.438 5.465,-3.656 9.527,-3.656c1.266,0 2.5,0.164 3.703,0.492c1.203,0.328 2.414,0.836 3.633,1.523l0,4.524c-1.141,-1.016 -2.285,-1.75 -3.434,-2.203c-1.148,-0.453 -2.449,-0.68 -3.902,-0.68c-2.703,0 -4.781,0.875 -6.234,2.625c-1.454,1.75 -2.18,4.25 -2.18,7.5c0,3.234 0.73,5.73 2.191,7.488c1.461,1.758 3.535,2.637 6.223,2.637c1.5,0 2.844,-0.231 4.031,-0.691c1.188,-0.461 2.289,-1.176 3.305,-2.145l0,4.477Z" style="fill:#8aea41;fill-rule:nonzero;"/><path d="M154.53,13.947c-2.188,0 -3.844,0.852 -4.969,2.555c-1.125,1.703 -1.688,4.226 -1.688,7.57c0,3.328 0.563,5.848 1.688,7.559c1.125,1.71 2.781,2.566 4.969,2.566c2.203,0 3.867,-0.856 4.992,-2.566c1.125,-1.711 1.687,-4.231 1.687,-7.559c0,-3.344 -0.562,-5.867 -1.687,-7.57c-1.125,-1.703 -2.789,-2.555 -4.992,-2.555ZM154.53,10.291c3.64,0 6.425,1.179 8.355,3.539c1.93,2.359 2.895,5.773 2.895,10.242c0,4.484 -0.961,7.902 -2.883,10.254c-1.922,2.351 -4.711,3.527 -8.367,3.527c-3.641,0 -6.422,-1.176 -8.344,-3.527c-1.922,-2.352 -2.883,-5.77 -2.883,-10.254c0,-4.469 0.961,-7.883 2.883,-10.242c1.922,-2.36 4.703,-3.539 8.344,-3.539Z" style="fill:#8aea41;fill-rule:nonzero;"/><path d="M184.354,13.595c0.532,-1.125 1.207,-1.957 2.028,-2.496c0.82,-0.539 1.808,-0.808 2.965,-0.808c2.109,0 3.597,0.816 4.464,2.449c0.868,1.633 1.301,4.707 1.301,9.223l0,15.211l-3.937,0l0,-15.024c0,-3.703 -0.207,-6.004 -0.621,-6.902c-0.414,-0.899 -1.168,-1.348 -2.262,-1.348c-1.25,0 -2.106,0.481 -2.567,1.441c-0.46,0.961 -0.691,3.231 -0.691,6.809l0,15.024l-3.937,0l0,-15.024c0,-3.75 -0.223,-6.062 -0.668,-6.937c-0.446,-0.875 -1.246,-1.313 -2.403,-1.313c-1.14,0 -1.933,0.481 -2.379,1.441c-0.445,0.961 -0.668,3.231 -0.668,6.809l0,15.024l-3.914,0l0,-26.25l3.914,0l0,2.25c0.516,-0.938 1.161,-1.653 1.934,-2.145c0.773,-0.492 1.652,-0.738 2.637,-0.738c1.187,0 2.175,0.273 2.965,0.82c0.789,0.547 1.402,1.375 1.839,2.484Z" style="fill:#8aea41;fill-rule:nonzero;"/><path d="M212.773,13.595c0.531,-1.125 1.207,-1.957 2.027,-2.496c0.82,-0.539 1.809,-0.808 2.965,-0.808c2.109,0 3.598,0.816 4.465,2.449c0.867,1.633 1.301,4.707 1.301,9.223l0,15.211l-3.938,0l0,-15.024c0,-3.703 -0.207,-6.004 -0.621,-6.902c-0.414,-0.899 -1.168,-1.348 -2.262,-1.348c-1.25,0 -2.105,0.481 -2.566,1.441c-0.461,0.961 -0.691,3.231 -0.691,6.809l0,15.024l-3.938,0l0,-15.024c0,-3.75 -0.223,-6.062 -0.668,-6.937c-0.445,-0.875 -1.246,-1.313 -2.402,-1.313c-1.141,0 -1.934,0.481 -2.379,1.441c-0.446,0.961 -0.668,3.231 -0.668,6.809l0,15.024l-3.914,0l0,-26.25l3.914,0l0,2.25c0.515,-0.938 1.16,-1.653 1.933,-2.145c0.774,-0.492 1.653,-0.738 2.637,-0.738c1.188,0 2.176,0.273 2.965,0.82c0.789,0.547 1.402,1.375 1.84,2.484Z" style="fill:#8aea41;fill-rule:nonzero;"/><path d="M232.754,11.017l11.039,0l0,22.805l8.555,0l0,3.352l-21.422,0l0,-3.352l8.554,0l0,-19.453l-6.726,0l0,-3.352ZM239.48,0.822l4.313,0l0,5.437l-4.313,0l0,-5.437Z" style="fill:#8aea41;fill-rule:nonzero;"/><path d="M268.157,3.47l0,7.454l9.796,0l0,3.351l-9.796,0l0,14.25c0,1.938 0.367,3.289 1.101,4.055c0.735,0.765 2.016,1.148 3.844,1.148l4.851,0l0,3.446l-5.273,0c-3.234,0 -5.516,-0.649 -6.844,-1.946c-1.328,-1.297 -1.992,-3.531 -1.992,-6.703l0,-14.25l-7.008,0l0,-3.351l7.008,0l0,-7.454l4.313,0Z" style="fill:#8aea41;fill-rule:nonzero;"/><rect x="312.993" y="20.205" width="24.844" height="3.961" style="fill:#8aea41;fill-rule:nonzero;"/><path d="M354.865,13.595c0.531,-1.125 1.207,-1.957 2.027,-2.496c0.821,-0.539 1.809,-0.808 2.965,-0.808c2.11,0 3.598,0.816 4.465,2.449c0.867,1.633 1.301,4.707 1.301,9.223l0,15.211l-3.938,0l0,-15.024c0,-3.703 -0.207,-6.004 -0.621,-6.902c-0.414,-0.899 -1.168,-1.348 -2.262,-1.348c-1.25,0 -2.105,0.481 -2.566,1.441c-0.461,0.961 -0.691,3.231 -0.691,6.809l0,15.024l-3.938,0l0,-15.024c0,-3.75 -0.222,-6.062 -0.668,-6.937c-0.445,-0.875 -1.246,-1.313 -2.402,-1.313c-1.141,0 -1.934,0.481 -2.379,1.441c-0.445,0.961 -0.668,3.231 -0.668,6.809l0,15.024l-3.914,0l0,-26.25l3.914,0l0,2.25c0.516,-0.938 1.16,-1.653 1.934,-2.145c0.773,-0.492 1.652,-0.738 2.636,-0.738c1.188,0 2.176,0.273 2.965,0.82c0.789,0.547 1.402,1.375 1.84,2.484Z" style="fill:#8aea41;fill-rule:nonzero;"/><path d="M20.148,60.916l0,14.343l-5.25,0l0,-14.343l5.25,0ZM7.656,60.916l0,14.343l-5.25,0l0,-14.343l5.25,0Z" style="fill:#8aea41;fill-rule:nonzero;"/><path d="M29.682,69.382l6,0l0,-5.28l-6,0l0,5.28ZM29.874,97.174l5.664,0l0,-23.424l-5.664,0l0,23.424Z" style="fill:#fff;fill-rule:nonzero;"/><path d="M49.266,97.654c4.416,0 9.12,-2.4 9.12,-7.824c0,-8.592 -11.904,-6.48 -11.904,-10.032c0,-1.104 1.152,-1.872 3.024,-1.872c2.544,0 3.84,1.392 4.656,2.832l4.08,-2.208c-1.536,-2.736 -4.464,-5.136 -8.784,-5.136c-4.176,0 -8.448,2.208 -8.448,7.152c0,8.208 11.76,5.616 11.76,9.552c0,1.248 -1.152,2.784 -3.792,2.784c-3.12,0 -4.368,-2.16 -4.992,-3.84l-4.56,2.016c1.152,3.6 4.896,6.576 9.84,6.576Z" style="fill:#fff;fill-rule:nonzero;"/><path d="M69.906,97.654c4.416,0 9.12,-2.4 9.12,-7.824c0,-8.592 -11.904,-6.48 -11.904,-10.032c0,-1.104 1.152,-1.872 3.024,-1.872c2.544,0 3.84,1.392 4.656,2.832l4.08,-2.208c-1.536,-2.736 -4.464,-5.136 -8.784,-5.136c-4.176,0 -8.448,2.208 -8.448,7.152c0,8.208 11.76,5.616 11.76,9.552c0,1.248 -1.152,2.784 -3.792,2.784c-3.12,0 -4.368,-2.16 -4.992,-3.84l-4.56,2.016c1.152,3.6 4.896,6.576 9.84,6.576Z" style="fill:#fff;fill-rule:nonzero;"/><path d="M91.458,97.702c2.544,0 5.088,-1.056 6.768,-3.264l0,2.736l5.808,0l0,-23.424l-5.808,0l0,12.96c0,2.928 -2.736,5.568 -5.904,5.568c-2.976,0 -3.744,-2.16 -3.744,-5.04l0,-13.488l-5.808,0l0,13.776c0,5.088 2.544,10.176 8.688,10.176Z" style="fill:#fff;fill-rule:nonzero;"/><path d="M120.306,97.462c3.888,0 7.008,-1.104 9.744,-4.032l-3.936,-3.456c-1.68,1.728 -3.312,2.16 -5.856,2.16c-3.408,0 -5.232,-1.92 -5.616,-4.8l16.08,0c0,0 0.192,-0.72 0.192,-1.776c0,-6.048 -2.496,-12.096 -11.04,-12.096c-7.632,0 -11.28,6 -11.28,12.144c0,6.24 3.888,11.856 11.712,11.856ZM114.642,83.206c0.48,-2.832 2.064,-4.944 5.232,-4.944c3.408,0 5.04,1.776 5.424,4.944l-10.656,0Z" style="fill:#fff;fill-rule:nonzero;"/><path d="M142.434,97.654c4.416,0 9.12,-2.4 9.12,-7.824c0,-8.592 -11.904,-6.48 -11.904,-10.032c0,-1.104 1.152,-1.872 3.024,-1.872c2.544,0 3.84,1.392 4.656,2.832l4.08,-2.208c-1.536,-2.736 -4.464,-5.136 -8.784,-5.136c-4.176,0 -8.448,2.208 -8.448,7.152c0,8.208 11.76,5.616 11.76,9.552c0,1.248 -1.152,2.784 -3.792,2.784c-3.12,0 -4.368,-2.16 -4.992,-3.84l-4.56,2.016c1.152,3.6 4.896,6.576 9.84,6.576Z" style="fill:#fff;fill-rule:nonzero;"/><path d="M176.466,97.702c2.544,0 5.088,-1.056 6.768,-3.264l0,2.736l5.808,0l0,-23.424l-5.808,0l0,12.96c0,2.928 -2.736,5.568 -5.904,5.568c-2.976,0 -3.744,-2.16 -3.744,-5.04l0,-13.488l-5.808,0l0,13.776c0,5.088 2.544,10.176 8.688,10.176Z" style="fill:#fff;fill-rule:nonzero;"/><path d="M195.522,97.174l5.808,0l0,-12.816c0,-2.928 2.688,-5.664 5.856,-5.664c2.976,0 3.744,2.256 3.744,5.136l0,13.344l5.808,0l0,-14.064c0,-4.896 -2.496,-9.744 -8.64,-9.744c-2.304,0 -4.896,0.816 -6.768,3.12l0,-2.736l-5.808,0l0,23.424Z" style="fill:#fff;fill-rule:nonzero;"/><path d="M230.178,97.654c4.416,0 9.12,-2.4 9.12,-7.824c0,-8.592 -11.904,-6.48 -11.904,-10.032c0,-1.104 1.152,-1.872 3.024,-1.872c2.544,0 3.84,1.392 4.656,2.832l4.08,-2.208c-1.536,-2.736 -4.464,-5.136 -8.784,-5.136c-4.176,0 -8.448,2.208 -8.448,7.152c0,8.208 11.76,5.616 11.76,9.552c0,1.248 -1.152,2.784 -3.792,2.784c-3.12,0 -4.368,-2.16 -4.992,-3.84l-4.56,2.016c1.152,3.6 4.896,6.576 9.84,6.576Z" style="fill:#fff;fill-rule:nonzero;"/><path d="M253.698,97.654c7.248,0 12.24,-5.472 12.24,-12.096c0,-6.624 -4.992,-12.096 -12.24,-12.096c-7.248,0 -12.24,5.472 -12.24,12.096c0,6.624 4.992,12.096 12.24,12.096ZM253.698,92.71c-4.32,0 -6.048,-3.312 -6.048,-7.152c0,-3.84 1.728,-7.152 6.048,-7.152c4.32,0 6.048,3.312 6.048,7.152c0,3.84 -1.728,7.152 -6.048,7.152Z" style="fill:#fff;fill-rule:nonzero;"/><path d="M275.538,97.654c1.728,0 4.128,-0.48 4.128,-0.48l0,-4.8c0,0 -1.056,0.144 -1.44,0.144c-1.344,0 -2.016,-0.48 -2.016,-1.584l0,-26.88l-5.712,0l0,28.464c0,4.176 2.208,5.136 5.04,5.136Z" style="fill:#fff;fill-rule:nonzero;"/><path d="M289.89,97.174l4.704,0l9.552,-23.424l-6.192,0l-5.712,16.032l-5.664,-16.032l-6.24,0l9.552,23.424Z" style="fill:#fff;fill-rule:nonzero;"/><path d="M317.298,97.462c3.888,0 7.008,-1.104 9.744,-4.032l-3.936,-3.456c-1.68,1.728 -3.312,2.16 -5.856,2.16c-3.408,0 -5.232,-1.92 -5.616,-4.8l16.08,0c0,0 0.192,-0.72 0.192,-1.776c0,-6.048 -2.496,-12.096 -11.04,-12.096c-7.632,0 -11.28,6 -11.28,12.144c0,6.24 3.888,11.856 11.712,11.856ZM311.634,83.206c0.48,-2.832 2.064,-4.944 5.232,-4.944c3.408,0 5.04,1.776 5.424,4.944l-10.656,0Z" style="fill:#fff;fill-rule:nonzero;"/><path d="M340.29,97.654c2.496,0 4.944,-0.672 6.72,-2.832l0,2.352l5.808,0l0,-33.12l-5.808,0l0,12.048c-1.632,-2.016 -4.176,-2.832 -6.72,-2.832c-6.384,0 -9.984,5.712 -9.984,12.192c0,6.48 3.6,12.192 9.984,12.192ZM341.73,92.374c-3.792,0 -5.616,-2.976 -5.616,-6.912c0,-3.888 1.824,-7.008 5.616,-7.008c3.84,0 5.52,3.072 5.52,7.008c0,3.984 -1.68,6.912 -5.52,6.912Z" style="fill:#fff;fill-rule:nonzero;"/><rect x="357.906" y="90.982" width="5.76" height="6.192" style="fill:#fff;fill-rule:nonzero;"/><path d="M387.303,60.916l0,14.343l-5.25,0l0,-14.343l5.25,0ZM374.811,60.916l0,14.343l-5.25,0l0,-14.343l5.25,0Z" style="fill:#8aea41;fill-rule:nonzero;"/></g></svg>