<?xml version="1.0" standalone="no"?><!DOCTYPE svg PUBLIC "-//W3C//DTD SVG 1.1//EN" "http://www.w3.org/Graphics/SVG/1.1/DTD/svg11.dtd"><svg width="100%" height="100%" viewBox="0 0 168 169" version="1.1" xmlns="http://www.w3.org/2000/svg" xmlns:xlink="http://www.w3.org/1999/xlink" xml:space="preserve" style="fill-rule:evenodd;clip-rule:evenodd;stroke-linecap:round;stroke-linejoin:round;stroke-miterlimit:1.41421;"><g id="icon 拷贝 2"><path id="圆角矩形 2" d="M158.129,0.71l0.129,0.003l0.128,0.004l0.128,0.005l0.128,0.008l0.127,0.009l0.127,0.01l0.126,0.012l0.126,0.014l0.125,0.015l0.125,0.016l0.124,0.019l0.124,0.019l0.123,0.022l0.123,0.022l0.122,0.025l0.122,0.025l0.121,0.028l0.121,0.028l0.12,0.03l0.119,0.032l0.119,0.033l0.119,0.034l0.117,0.036l0.117,0.037l0.117,0.039l0.116,0.04l0.115,0.042l0.114,0.042l0.114,0.044l0.113,0.046l0.113,0.047l0.112,0.048l0.111,0.049l0.11,0.051l0.11,0.052l0.109,0.053l0.108,0.055l0.107,0.056l0.107,0.057l0.106,0.058l0.105,0.06l0.104,0.061l0.104,0.062l0.102,0.063l0.102,0.065l0.101,0.065l0.1,0.067l0.1,0.068l0.098,0.069l0.098,0.071l0.097,0.071l0.095,0.073l0.095,0.073l0.094,0.075l0.093,0.076l0.093,0.077l0.091,0.078l0.09,0.079l0.089,0.08l0.089,0.082l0.087,0.082l0.086,0.083l0.086,0.085l0.084,0.085l0.083,0.086l0.083,0.088l0.081,0.088l0.08,0.089l0.079,0.091l0.078,0.091l0.077,0.092l0.076,0.093l0.075,0.094l0.074,0.095l0.072,0.096l0.072,0.096l0.07,0.098l0.069,0.099l0.068,0.099l0.067,0.1l0.066,0.101l0.064,0.102l0.063,0.103l0.062,0.103l0.061,0.104l0.06,0.106l0.058,0.105l0.057,0.107l0.056,0.107l0.055,0.109l0.053,0.109l0.052,0.109l0.051,0.111l0.05,0.111l0.048,0.111l0.046,0.113l0.046,0.113l0.044,0.114l0.043,0.114l0.041,0.116l0.04,0.115l0.039,0.117l0.037,0.117l0.036,0.118l0.034,0.118l0.033,0.119l0.032,0.119l0.03,0.12l0.029,0.121l0.027,0.121l0.026,0.122l0.024,0.122l0.023,0.123l0.021,0.123l0.02,0.124l0.018,0.125l0.017,0.124l0.015,0.126l0.013,0.126l0.012,0.126l0.011,0.126l0.009,0.128l0.007,0.127l0.006,0.128l0.004,0.128l0.002,0.129l0.001,0.129l0,148l-0.001,0.129l-0.002,0.129l-0.004,0.129l-0.006,0.128l-0.007,0.127l-0.009,0.127l-0.011,0.127l-0.012,0.126l-0.013,0.126l-0.015,0.125l-0.017,0.125l-0.018,0.124l-0.02,0.124l-0.021,0.124l-0.023,0.122l-0.024,0.123l-0.026,0.121l-0.027,0.122l-0.029,0.12l-0.03,0.12l-0.032,0.12l-0.033,0.119l-0.034,0.118l-0.036,0.118l-0.037,0.117l-0.039,0.116l-0.04,0.116l-0.041,0.115l-0.043,0.115l-0.044,0.114l-0.046,0.113l-0.046,0.112l-0.048,0.112l-0.05,0.111l-0.051,0.11l-0.052,0.11l-0.053,0.109l-0.055,0.108l-0.056,0.108l-0.057,0.106l-0.058,0.106l-0.06,0.105l-0.061,0.105l-0.062,0.103l-0.063,0.103l-0.064,0.102l-0.066,0.101l-0.067,0.1l-0.068,0.099l-0.069,0.099l-0.07,0.097l-0.072,0.097l-0.072,0.096l-0.074,0.095l-0.075,0.094l-0.076,0.093l-0.077,0.092l-0.078,0.091l-0.079,0.09l-0.08,0.09l-0.081,0.088l-0.083,0.087l-0.083,0.087l-0.084,0.085l-0.086,0.084l-0.086,0.084l-0.087,0.082l-0.089,0.081l-0.089,0.08l-0.09,0.08l-0.091,0.078l-0.093,0.077l-0.093,0.076l-0.094,0.074l-0.095,0.074l-0.095,0.073l-0.097,0.071l-0.098,0.07l-0.098,0.07l-0.1,0.068l-0.1,0.066l-0.101,0.066l-0.102,0.064l-0.102,0.064l-0.104,0.062l-0.104,0.061l-0.105,0.059l-0.106,0.059l-0.107,0.057l-0.107,0.056l-0.108,0.054l-0.109,0.054l-0.11,0.052l-0.11,0.05l-0.111,0.05l-0.112,0.048l-0.113,0.047l-0.113,0.045l-0.114,0.044l-0.114,0.043l-0.115,0.042l-0.116,0.04l-0.117,0.038l-0.117,0.037l-0.117,0.036l-0.119,0.035l-0.119,0.033l-0.119,0.031l-0.12,0.03l-0.121,0.029l-0.121,0.027l-0.122,0.026l-0.122,0.024l-0.123,0.023l-0.123,0.021l-0.124,0.02l-0.124,0.018l-0.125,0.017l-0.125,0.015l-0.126,0.014l-0.126,0.012l-0.127,0.01l-0.127,0.009l-0.128,0.007l-0.128,0.006l-0.128,0.004l-0.129,0.003l-0.129,0l-148,0l-0.129,0l-0.129,-0.003l-0.128,-0.004l-0.128,-0.006l-0.128,-0.007l-0.127,-0.009l-0.127,-0.01l-0.126,-0.012l-0.126,-0.014l-0.125,-0.015l-0.125,-0.017l-0.124,-0.018l-0.124,-0.02l-0.123,-0.021l-0.123,-0.023l-0.122,-0.024l-0.122,-0.026l-0.121,-0.027l-0.121,-0.029l-0.12,-0.03l-0.119,-0.031l-0.119,-0.033l-0.119,-0.035l-0.117,-0.036l-0.117,-0.037l-0.117,-0.038l-0.116,-0.04l-0.115,-0.042l-0.114,-0.043l-0.114,-0.044l-0.113,-0.045l-0.113,-0.047l-0.112,-0.048l-0.111,-0.05l-0.11,-0.05l-0.11,-0.052l-0.109,-0.054l-0.108,-0.054l-0.107,-0.056l-0.107,-0.057l-0.106,-0.059l-0.105,-0.059l-0.104,-0.061l-0.104,-0.062l-0.102,-0.064l-0.102,-0.064l-0.101,-0.066l-0.1,-0.066l-0.1,-0.068l-0.098,-0.07l-0.098,-0.07l-0.097,-0.071l-0.095,-0.073l-0.095,-0.074l-0.094,-0.074l-0.093,-0.076l-0.093,-0.077l-0.091,-0.078l-0.09,-0.08l-0.089,-0.08l-0.089,-0.081l-0.087,-0.082l-0.086,-0.084l-0.086,-0.084l-0.084,-0.085l-0.083,-0.087l-0.083,-0.087l-0.081,-0.088l-0.08,-0.09l-0.079,-0.09l-0.078,-0.091l-0.077,-0.092l-0.076,-0.093l-0.075,-0.094l-0.074,-0.095l-0.072,-0.096l-0.072,-0.097l-0.07,-0.097l-0.069,-0.099l-0.068,-0.099l-0.067,-0.1l-0.066,-0.101l-0.064,-0.102l-0.063,-0.103l-0.062,-0.103l-0.061,-0.105l-0.06,-0.105l-0.058,-0.106l-0.057,-0.106l-0.056,-0.108l-0.055,-0.108l-0.053,-0.109l-0.052,-0.11l-0.051,-0.11l-0.05,-0.111l-0.048,-0.112l-0.046,-0.112l-0.046,-0.113l-0.044,-0.114l-0.043,-0.115l-0.041,-0.115l-0.04,-0.116l-0.039,-0.116l-0.037,-0.117l-0.036,-0.118l-0.034,-0.118l-0.033,-0.119l-0.032,-0.12l-0.03,-0.12l-0.029,-0.12l-0.027,-0.122l-0.026,-0.121l-0.024,-0.123l-0.023,-0.122l-0.021,-0.124l-0.02,-0.124l-0.018,-0.124l-0.017,-0.125l-0.015,-0.125l-0.013,-0.126l-0.012,-0.126l-0.011,-0.127l-0.009,-0.127l-0.007,-0.127l-0.006,-0.128l-0.004,-0.129l-0.002,-0.129l-0.001,-0.129l0,-148l0.001,-0.129l0.002,-0.129l0.004,-0.128l0.006,-0.128l0.007,-0.127l0.009,-0.128l0.011,-0.126l0.012,-0.126l0.013,-0.126l0.015,-0.126l0.017,-0.124l0.018,-0.125l0.02,-0.124l0.021,-0.123l0.023,-0.123l0.024,-0.122l0.026,-0.122l0.027,-0.121l0.029,-0.121l0.03,-0.12l0.032,-0.119l0.033,-0.119l0.034,-0.118l0.036,-0.118l0.037,-0.117l0.039,-0.117l0.04,-0.115l0.041,-0.116l0.043,-0.114l0.044,-0.114l0.046,-0.113l0.046,-0.113l0.048,-0.111l0.05,-0.111l0.051,-0.111l0.052,-0.109l0.053,-0.109l0.055,-0.109l0.056,-0.107l0.057,-0.107l0.058,-0.105l0.06,-0.106l0.061,-0.104l0.062,-0.103l0.063,-0.103l0.064,-0.102l0.066,-0.101l0.067,-0.1l0.068,-0.099l0.069,-0.099l0.07,-0.098l0.072,-0.096l0.072,-0.096l0.074,-0.095l0.075,-0.094l0.076,-0.093l0.077,-0.092l0.078,-0.091l0.079,-0.091l0.08,-0.089l0.081,-0.088l0.083,-0.088l0.083,-0.086l0.084,-0.085l0.086,-0.085l0.086,-0.083l0.087,-0.082l0.089,-0.082l0.089,-0.08l0.09,-0.079l0.091,-0.078l0.093,-0.077l0.093,-0.076l0.094,-0.075l0.095,-0.073l0.095,-0.073l0.097,-0.071l0.098,-0.071l0.098,-0.069l0.1,-0.068l0.1,-0.067l0.101,-0.065l0.102,-0.065l0.102,-0.063l0.104,-0.062l0.104,-0.061l0.105,-0.06l0.106,-0.058l0.107,-0.057l0.107,-0.056l0.108,-0.055l0.109,-0.053l0.11,-0.052l0.11,-0.051l0.111,-0.049l0.112,-0.048l0.113,-0.047l0.113,-0.046l0.114,-0.044l0.114,-0.042l0.115,-0.042l0.116,-0.04l0.117,-0.039l0.117,-0.037l0.117,-0.036l0.119,-0.034l0.119,-0.033l0.119,-0.032l0.12,-0.03l0.121,-0.028l0.121,-0.028l0.122,-0.025l0.122,-0.025l0.123,-0.022l0.123,-0.022l0.124,-0.019l0.124,-0.019l0.125,-0.016l0.125,-0.015l0.126,-0.014l0.126,-0.012l0.127,-0.01l0.127,-0.009l0.128,-0.008l0.128,-0.005l0.128,-0.004l0.129,-0.003l0.129,-0.001l148,0l0.129,0.001ZM10.008,2.709l-0.113,0.001l-0.104,0.002l-0.099,0.003l-0.104,0.005l-0.102,0.006l-0.102,0.007l-0.106,0.009l-0.101,0.009l-0.096,0.01l-0.1,0.012l-0.099,0.014l-0.103,0.015l-0.098,0.015l-0.097,0.017l-0.101,0.019l-0.097,0.019l-0.095,0.02l-0.096,0.022l-0.098,0.023l-0.098,0.025l-0.094,0.024l-0.092,0.026l-0.096,0.028l-0.096,0.029l-0.091,0.029l-0.094,0.032l-0.093,0.032l-0.093,0.033l-0.092,0.034l-0.088,0.034l-0.09,0.037l-0.091,0.037l-0.089,0.039l-0.092,0.041l-0.085,0.039l-0.087,0.041l-0.09,0.044l-0.083,0.042l-0.088,0.046l-0.085,0.045l-0.084,0.047l-0.086,0.048l-0.083,0.049l-0.081,0.048l-0.081,0.05l-0.083,0.053l-0.082,0.054l-0.082,0.054l-0.078,0.053l-0.077,0.054l-0.079,0.057l-0.078,0.058l-0.075,0.057l-0.077,0.059l-0.076,0.061l-0.075,0.061l-0.074,0.062l-0.071,0.06l-0.072,0.064l-0.074,0.067l-0.071,0.064l-0.068,0.064l-0.068,0.067l-0.071,0.069l-0.067,0.068l-0.067,0.069l-0.067,0.072l-0.064,0.07l-0.064,0.071l-0.063,0.071l-0.062,0.073l-0.063,0.075l-0.061,0.076l-0.059,0.073l-0.06,0.078l-0.059,0.077l-0.056,0.076l-0.055,0.077l-0.057,0.08l-0.054,0.08l-0.054,0.08l-0.053,0.082l-0.05,0.08l-0.051,0.082l-0.05,0.083l-0.048,0.083l-0.048,0.085l-0.047,0.084l-0.046,0.087l-0.045,0.086l-0.043,0.084l-0.042,0.087l-0.042,0.089l-0.041,0.089l-0.04,0.088l-0.037,0.087l-0.038,0.092l-0.037,0.091l-0.035,0.09l-0.034,0.091l-0.033,0.093l-0.032,0.093l-0.031,0.092l-0.029,0.093l-0.029,0.094l-0.028,0.095l-0.026,0.095l-0.025,0.096l-0.024,0.095l-0.023,0.096l-0.022,0.097l-0.02,0.097l-0.02,0.098l-0.018,0.098l-0.017,0.1l-0.016,0.098l-0.014,0.098l-0.013,0.101l-0.013,0.1l-0.011,0.101l-0.009,0.101l-0.009,0.101l-0.007,0.102l-0.006,0.103l-0.004,0.102l-0.003,0.103l-0.002,0.104l-0.001,0.11l0,147.987l0.001,0.11l0.002,0.104l0.003,0.102l0.004,0.103l0.006,0.103l0.007,0.101l0.009,0.102l0.009,0.101l0.011,0.1l0.013,0.101l0.013,0.1l0.014,0.099l0.016,0.098l0.017,0.099l0.018,0.099l0.02,0.097l0.02,0.098l0.022,0.097l0.023,0.095l0.024,0.096l0.025,0.096l0.026,0.095l0.028,0.095l0.029,0.093l0.029,0.094l0.031,0.092l0.032,0.093l0.033,0.093l0.034,0.091l0.035,0.09l0.037,0.091l0.038,0.091l0.037,0.087l0.04,0.088l0.041,0.09l0.042,0.088l0.042,0.087l0.043,0.085l0.046,0.087l0.045,0.086l0.046,0.082l0.049,0.086l0.048,0.084l0.05,0.083l0.051,0.082l0.05,0.08l0.053,0.081l0.054,0.081l0.054,0.079l0.057,0.081l0.055,0.076l0.056,0.076l0.059,0.078l0.06,0.077l0.06,0.076l0.06,0.074l0.061,0.073l0.064,0.074l0.063,0.072l0.064,0.071l0.064,0.07l0.067,0.071l0.067,0.069l0.067,0.068l0.071,0.07l0.068,0.066l0.068,0.064l0.071,0.065l0.074,0.067l0.072,0.063l0.071,0.061l0.074,0.062l0.075,0.061l0.076,0.06l0.077,0.06l0.075,0.056l0.078,0.058l0.079,0.057l0.077,0.055l0.078,0.053l0.082,0.054l0.082,0.053l0.083,0.053l0.081,0.05l0.081,0.049l0.083,0.048l0.086,0.049l0.084,0.046l0.085,0.045l0.088,0.047l0.086,0.043l0.087,0.043l0.084,0.039l0.088,0.041l0.092,0.041l0.089,0.038l0.091,0.038l0.09,0.036l0.088,0.034l0.092,0.035l0.097,0.034l0.089,0.032l0.091,0.029l0.094,0.031l0.096,0.028l0.096,0.029l0.092,0.025l0.094,0.025l0.098,0.024l0.098,0.024l0.096,0.021l0.095,0.021l0.097,0.019l0.101,0.018l0.097,0.017l0.098,0.016l0.103,0.015l0.099,0.013l0.1,0.012l0.1,0.011l0.097,0.009l0.102,0.008l0.106,0.008l0.102,0.006l0.104,0.004l0.099,0.004l0.104,0.001l0.113,0.001l147.984,0l0.113,-0.001l0.104,-0.001l0.1,-0.004l0.103,-0.004l0.102,-0.006l0.106,-0.008l0.102,-0.008l0.097,-0.009l0.1,-0.011l0.1,-0.012l0.099,-0.013l0.103,-0.015l0.098,-0.016l0.098,-0.017l0.1,-0.018l0.097,-0.019l0.096,-0.021l0.095,-0.021l0.098,-0.024l0.098,-0.024l0.093,-0.025l0.093,-0.026l0.096,-0.028l0.096,-0.029l0.095,-0.03l0.089,-0.029l0.09,-0.032l0.097,-0.034l0.092,-0.035l0.088,-0.034l0.09,-0.036l0.091,-0.038l0.089,-0.038l0.092,-0.041l0.089,-0.041l0.083,-0.039l0.087,-0.043l0.086,-0.043l0.088,-0.047l0.085,-0.044l0.084,-0.047l0.086,-0.049l0.082,-0.048l0.082,-0.049l0.081,-0.05l0.083,-0.052l0.082,-0.054l0.082,-0.054l0.078,-0.053l0.077,-0.055l0.079,-0.057l0.079,-0.058l0.074,-0.056l0.077,-0.06l0.076,-0.06l0.075,-0.061l0.074,-0.062l0.07,-0.061l0.073,-0.063l0.075,-0.067l0.07,-0.065l0.067,-0.063l0.069,-0.067l0.071,-0.07l0.067,-0.068l0.067,-0.069l0.067,-0.071l0.064,-0.07l0.064,-0.071l0.063,-0.072l0.063,-0.074l0.062,-0.073l0.06,-0.074l0.06,-0.076l0.06,-0.077l0.059,-0.077l0.056,-0.077l0.056,-0.077l0.055,-0.079l0.055,-0.08l0.054,-0.081l0.053,-0.081l0.05,-0.08l0.051,-0.082l0.05,-0.083l0.048,-0.083l0.049,-0.087l0.046,-0.083l0.046,-0.085l0.045,-0.086l0.043,-0.086l0.042,-0.087l0.042,-0.088l0.042,-0.09l0.039,-0.087l0.037,-0.088l0.038,-0.091l0.036,-0.091l0.036,-0.09l0.034,-0.092l0.033,-0.093l0.032,-0.092l0.031,-0.092l0.03,-0.094l0.028,-0.093l0.028,-0.095l0.026,-0.095l0.025,-0.096l0.024,-0.096l0.023,-0.096l0.022,-0.097l0.02,-0.096l0.02,-0.098l0.018,-0.099l0.017,-0.098l0.016,-0.099l0.014,-0.099l0.013,-0.099l0.013,-0.102l0.011,-0.101l0.009,-0.1l0.009,-0.102l0.007,-0.101l0.005,-0.103l0.005,-0.103l0.003,-0.102l0.002,-0.104l0.001,-0.111l0,-147.985l-0.001,-0.111l-0.002,-0.105l-0.003,-0.101l-0.005,-0.103l-0.005,-0.103l-0.007,-0.102l-0.009,-0.101l-0.009,-0.1l-0.011,-0.102l-0.013,-0.101l-0.013,-0.099l-0.014,-0.099l-0.016,-0.099l-0.017,-0.098l-0.018,-0.099l-0.02,-0.099l-0.02,-0.095l-0.022,-0.098l-0.023,-0.096l-0.024,-0.095l-0.025,-0.096l-0.026,-0.095l-0.028,-0.096l-0.028,-0.092l-0.03,-0.094l-0.031,-0.093l-0.032,-0.092l-0.033,-0.092l-0.034,-0.092l-0.036,-0.091l-0.036,-0.09l-0.038,-0.092l-0.037,-0.087l-0.039,-0.087l-0.042,-0.09l-0.042,-0.089l-0.042,-0.086l-0.043,-0.086l-0.045,-0.085l-0.046,-0.086l-0.047,-0.085l-0.048,-0.085l-0.048,-0.083l-0.05,-0.083l-0.051,-0.083l-0.05,-0.079l-0.053,-0.081l-0.054,-0.081l-0.055,-0.08l-0.055,-0.08l-0.056,-0.077l-0.056,-0.076l-0.059,-0.077l-0.06,-0.078l-0.058,-0.073l-0.062,-0.076l-0.063,-0.076l-0.062,-0.072l-0.063,-0.071l-0.064,-0.071l-0.064,-0.07l-0.067,-0.072l-0.067,-0.068l-0.067,-0.068l-0.071,-0.07l-0.069,-0.067l-0.067,-0.064l-0.07,-0.064l-0.075,-0.067l-0.073,-0.064l-0.07,-0.06l-0.074,-0.062l-0.075,-0.061l-0.076,-0.06l-0.077,-0.06l-0.074,-0.057l-0.079,-0.058l-0.079,-0.057l-0.077,-0.054l-0.078,-0.053l-0.082,-0.054l-0.082,-0.054l-0.083,-0.052l-0.081,-0.051l-0.082,-0.049l-0.082,-0.047l-0.086,-0.049l-0.084,-0.047l-0.085,-0.045l-0.088,-0.046l-0.083,-0.042l-0.09,-0.044l-0.087,-0.041l-0.085,-0.039l-0.092,-0.041l-0.089,-0.039l-0.091,-0.037l-0.09,-0.037l-0.088,-0.034l-0.092,-0.034l-0.093,-0.033l-0.094,-0.033l-0.093,-0.031l-0.091,-0.029l-0.096,-0.029l-0.096,-0.028l-0.093,-0.026l-0.093,-0.024l-0.098,-0.025l-0.098,-0.023l-0.095,-0.022l-0.096,-0.02l-0.097,-0.019l-0.1,-0.019l-0.098,-0.017l-0.098,-0.015l-0.103,-0.015l-0.099,-0.014l-0.1,-0.012l-0.096,-0.01l-0.101,-0.009l-0.106,-0.009l-0.102,-0.007l-0.102,-0.006l-0.103,-0.005l-0.1,-0.003l-0.104,-0.002l-0.113,-0.001l-147.984,0Z" style="fill:#bdbdbd;"/><g id="box"><path d="M84,67.155l-53.585,-15.783l0,65.217l53.585,15.783l0,-65.217Z" style="fill:#e6e6e6;"/><path d="M81.609,36.686c1.567,-0.419 3.215,-0.419 4.782,0c8.351,2.234 36.296,9.707 46.986,12.567c2.482,0.663 4.208,2.912 4.208,5.481c0,11.644 0,43.538 0,57.349c0,3.851 -2.572,7.227 -6.284,8.251c-11.914,3.284 -37.286,10.278 -45.017,12.409c-1.495,0.412 -3.073,0.412 -4.568,0c-8.003,-2.206 -34.905,-9.622 -46.22,-12.741c-3.001,-0.827 -5.081,-3.558 -5.081,-6.671c0,-13.069 0,-46.769 0,-58.694c0,-2.512 1.688,-4.71 4.114,-5.359c10.62,-2.841 38.704,-10.352 47.08,-12.592Z" style="fill:none;stroke-width:4px;stroke:#666;"/><path d="M84,132.372l0,-65.698l-53.585,-15.302l53.585,15.302l53.585,-15.302" style="fill:none;stroke-width:2px;stroke:#666;"/><path d="M57.208,43.795l53.584,15.154" style="fill:none;stroke-width:2px;stroke:#666;"/></g></g></svg>