<?xml version="1.0" standalone="no"?><!DOCTYPE svg PUBLIC "-//W3C//DTD SVG 1.1//EN" "http://www.w3.org/Graphics/SVG/1.1/DTD/svg11.dtd"><svg width="100%" height="100%" viewBox="0 0 30 129" version="1.1" xmlns="http://www.w3.org/2000/svg" xmlns:xlink="http://www.w3.org/1999/xlink" xml:space="preserve" style="fill-rule:evenodd;clip-rule:evenodd;stroke-linejoin:round;stroke-miterlimit:1.41421;"><path d="M26.1,87.634l-21.6,0l0,-87.48l21.6,0l0,87.48ZM0.9,114.994c0,-3.84 1.41,-7.14 4.23,-9.9c2.82,-2.76 6.21,-4.14 10.17,-4.14c3.84,0 7.2,1.32 10.08,3.96c2.88,2.64 4.32,5.88 4.32,9.72c0,3.84 -1.41,7.14 -4.23,9.9c-2.82,2.76 -6.21,4.14 -10.17,4.14c-1.92,0 -3.75,-0.36 -5.49,-1.08c-1.74,-0.72 -3.27,-1.68 -4.59,-2.88c-1.32,-1.2 -2.37,-2.64 -3.15,-4.32c-0.78,-1.68 -1.17,-3.48 -1.17,-5.4Z" style="fill:#000;fill-rule:nonzero;"/></svg>