<?xml version="1.0" standalone="no"?><!DOCTYPE svg PUBLIC "-//W3C//DTD SVG 1.1//EN" "http://www.w3.org/Graphics/SVG/1.1/DTD/svg11.dtd"><svg width="100%" height="100%" viewBox="0 0 1100 430" version="1.1" xmlns="http://www.w3.org/2000/svg" xmlns:xlink="http://www.w3.org/1999/xlink" xml:space="preserve" style="fill-rule:evenodd;clip-rule:evenodd;stroke-linecap:round;stroke-linejoin:round;stroke-miterlimit:1.41421;"><g><g><path d="M334.152,16.5c0,-8.93 -7.25,-16.18 -16.18,-16.18l-301.632,0c-8.93,0 -16.18,7.25 -16.18,16.18l0,353.805c0,8.931 7.25,16.181 16.18,16.181l301.632,0c8.93,0 16.18,-7.25 16.18,-16.181l0,-353.805Z" style="fill:#293043;"/><g><path d="M305.551,76.868c0,-5.69 -4.62,-10.31 -10.31,-10.31l-256.17,0c-5.69,0 -10.31,4.62 -10.31,10.31l0,65.077c0,5.69 4.62,10.31 10.31,10.31l256.17,0c5.69,0 10.31,-4.62 10.31,-10.31l0,-65.077Z" style="fill:#1f2533;"/><text x="103.166px" y="113.654px" style="font-family:'HKGrotesk-Light';font-size:20px;fill:#fff;">Sensor System</text></g><g><path d="M305.551,179.238c0,-5.69 -4.62,-10.31 -10.31,-10.31l-256.17,0c-5.69,0 -10.31,4.62 -10.31,10.31l0,65.077c0,5.69 4.62,10.31 10.31,10.31l256.17,0c5.69,0 10.31,-4.62 10.31,-10.31l0,-65.077Z" style="fill:#1f2533;"/><text x="109.486px" y="216.024px" style="font-family:'HKGrotesk-Light';font-size:20px;fill:#fff;">External APIs</text></g><g><path d="M305.551,281.609c0,-5.691 -4.62,-10.311 -10.31,-10.311l-256.17,0c-5.69,0 -10.31,4.62 -10.31,10.311l0,65.076c0,5.691 4.62,10.31 10.31,10.31l256.17,0c5.69,0 10.31,-4.619 10.31,-10.31l0,-65.076Z" style="fill:#1f2533;"/><text x="107.766px" y="318.394px" style="font-family:'HKGrotesk-Light';font-size:20px;fill:#fff;">Data Memory</text></g><text x="25.357px" y="41.64px" style="font-family:'HKGrotesk-Bold';font-size:16px;fill:#8fdaff;">D<tspan x="36.013px 45.357px 53.293px 63.597px 67.757px 78.861px 90.605px 98.445px 106.285px 115.357px 126.461px 135.357px 139.581px 151.325px " y="41.64px 41.64px 41.64px 41.64px 41.64px 41.64px 41.64px 41.64px 41.64px 41.64px 41.64px 41.64px 41.64px 41.64px ">ATA COLLECTION</tspan></text></g><g><path d="M716.996,16.5c0,-8.93 -7.25,-16.18 -16.18,-16.18l-301.632,0c-8.93,0 -16.18,7.25 -16.18,16.18l0,353.805c0,8.931 7.25,16.181 16.18,16.181l301.632,0c8.93,0 16.18,-7.25 16.18,-16.181l0,-353.805Z" style="fill:#293043;"/><g><path d="M688.395,76.868c0,-5.69 -4.62,-10.31 -10.31,-10.31l-256.17,0c-5.69,0 -10.31,4.62 -10.31,10.31l0,65.077c0,5.69 4.62,10.31 10.31,10.31l256.17,0c5.69,0 10.31,-4.62 10.31,-10.31l0,-65.077Z" style="fill:#1f2533;"/><text x="458.7px" y="113.654px" style="font-family:'HKGrotesk-Light';font-size:20px;fill:#fff;">User Behavior Model</text></g><g><path d="M688.395,179.238c0,-5.69 -4.62,-10.31 -10.31,-10.31l-256.17,0c-5.69,0 -10.31,4.62 -10.31,10.31l0,65.077c0,5.69 4.62,10.31 10.31,10.31l256.17,0c5.69,0 10.31,-4.62 10.31,-10.31l0,-65.077Z" style="fill:#1f2533;"/><text x="463.06px" y="216.024px" style="font-family:'HKGrotesk-Light';font-size:20px;fill:#fff;">Environment Model</text></g><g><path d="M688.395,281.609c0,-5.691 -4.62,-10.311 -10.31,-10.311l-256.17,0c-5.69,0 -10.31,4.62 -10.31,10.311l0,65.076c0,5.691 4.62,10.31 10.31,10.31l256.17,0c5.69,0 10.31,-4.619 10.31,-10.31l0,-65.076Z" style="fill:#1f2533;"/><text x="451.77px" y="318.394px" style="font-family:'HKGrotesk-Light';font-size:20px;fill:#fff;">Contextual Perception</text></g><text x="408.201px" y="41.64px" style="font-family:'HKGrotesk-Bold';font-size:16px;fill:#8fdaff;">P<tspan x="416.697px 425.801px 437.545px 448.649px 457.721px 466.313px 474.905px 479.129px 489.881px 501.753px 505.913px 516.217px 526.969px 537.625px 541.785px 550.281px 559.353px 568.457px 579.561px 588.633px 597.129px 606.025px 610.249px 621.993px " y="41.64px 41.64px 41.64px 41.64px 41.64px 41.64px 41.64px 41.64px 41.64px 41.64px 41.64px 41.64px 41.64px 41.64px 41.64px 41.64px 41.64px 41.64px 41.64px 41.64px 41.64px 41.64px 41.64px 41.64px ">ROCESSING AND PERCEPTION</tspan></text></g><g><path d="M1100,16.5c0,-8.93 -7.25,-16.18 -16.18,-16.18l-301.632,0c-8.93,0 -16.18,7.25 -16.18,16.18l0,353.805c0,8.931 7.25,16.181 16.18,16.181l301.632,0c8.93,0 16.18,-7.25 16.18,-16.181l0,-353.805Z" style="fill:#293043;"/><g><path d="M1071.4,76.868c0,-5.69 -4.62,-10.31 -10.31,-10.31l-256.17,0c-5.69,0 -10.31,4.62 -10.31,10.31l0,65.077c0,5.69 4.62,10.31 10.31,10.31l256.17,0c5.69,0 10.31,-4.62 10.31,-10.31l0,-65.077Z" style="fill:#1f2533;"/><text x="837.024px" y="113.654px" style="font-family:'HKGrotesk-Light';font-size:20px;fill:#fff;">Proactive Suggestions</text></g><g><path d="M1071.4,179.238c0,-5.69 -4.62,-10.31 -10.31,-10.31l-256.17,0c-5.69,0 -10.31,4.62 -10.31,10.31l0,65.077c0,5.69 4.62,10.31 10.31,10.31l256.17,0c5.69,0 10.31,-4.62 10.31,-10.31l0,-65.077Z" style="fill:#1f2533;"/><text x="862.414px" y="216.024px" style="font-family:'HKGrotesk-Light';font-size:20px;fill:#fff;">Input Prediction</text></g><g><path d="M1071.4,281.609c0,-5.691 -4.62,-10.311 -10.31,-10.311l-256.17,0c-5.69,0 -10.31,4.62 -10.31,10.311l0,65.076c0,5.691 4.62,10.31 10.31,10.31l256.17,0c5.69,0 10.31,-4.619 10.31,-10.31l0,-65.076Z" style="fill:#1f2533;"/><text x="820.774px" y="318.394px" style="font-family:'HKGrotesk-Light';font-size:20px;fill:#fff;">Confirmation Mechanism</text></g><text x="791.205px" y="41.64px" style="font-family:'HKGrotesk-Bold';font-size:16px;fill:#8fdaff;">P<tspan x="799.701px 808.805px 820.549px 830.853px 841.957px 850.853px 855.077px 865.381px 874.453px 878.613px 882.837px 893.589px 902.485px 911.557px 920.661px 929.605px 939.909px 951.013px " y="41.64px 41.64px 41.64px 41.64px 41.64px 41.64px 41.64px 41.64px 41.64px 41.64px 41.64px 41.64px 41.64px 41.64px 41.64px 41.64px 41.64px 41.64px ">ROACTIVE INTERFACE</tspan></text></g><path d="M933.004,356.995c0,0 0,31.401 0,52.282c0,4.826 -1.917,9.454 -5.329,12.866c-3.412,3.412 -8.04,5.329 -12.866,5.329c-104.291,0 -625.167,0 -729.458,0c-4.826,0 -9.454,-1.917 -12.866,-5.329c-3.412,-3.412 -5.329,-8.04 -5.329,-12.866c0,-20.881 0,-52.282 0,-52.282" style="fill:none;stroke-width:2px;stroke:#8fdaff;"/><path d="M363.698,210.844c0.32,0.202 0.514,0.554 0.514,0.933c0,0.378 -0.194,0.73 -0.514,0.932c-2.053,1.296 -5.759,3.636 -7.921,5c-0.339,0.215 -0.769,0.227 -1.121,0.033c-0.351,-0.194 -0.57,-0.564 -0.57,-0.965c0,-2.661 0,-7.339 0,-10c0,-0.402 0.219,-0.772 0.57,-0.966c0.352,-0.194 0.782,-0.181 1.121,0.033c2.162,1.365 5.868,3.704 7.921,5Z" style="fill:#8fdaff;"/><path d="M166.224,356.608c0.202,-0.32 0.554,-0.514 0.932,-0.514c0.379,0 0.731,0.194 0.933,0.514c1.295,2.053 3.635,5.759 4.999,7.92c0.215,0.34 0.228,0.77 0.034,1.121c-0.194,0.352 -0.564,0.571 -0.966,0.571c-2.661,0 -7.339,0 -10,0c-0.401,0 -0.771,-0.219 -0.965,-0.571c-0.194,-0.351 -0.182,-0.781 0.033,-1.121c1.364,-2.161 3.704,-5.867 5,-7.92Z" style="fill:#8fdaff;"/><path d="M746.796,210.844c0.32,0.202 0.514,0.554 0.514,0.933c0,0.378 -0.194,0.73 -0.514,0.932c-2.053,1.296 -5.759,3.636 -7.92,5c-0.34,0.215 -0.77,0.227 -1.121,0.033c-0.352,-0.194 -0.571,-0.564 -0.571,-0.965c0,-2.661 0,-7.339 0,-10c0,-0.402 0.219,-0.772 0.571,-0.966c0.351,-0.194 0.781,-0.181 1.121,0.033c2.161,1.365 5.867,3.704 7.92,5Z" style="fill:#8fdaff;"/></g></svg>