<?xml version="1.0" standalone="no"?><!DOCTYPE svg PUBLIC "-//W3C//DTD SVG 1.1//EN" "http://www.w3.org/Graphics/SVG/1.1/DTD/svg11.dtd"><svg width="100%" height="100%" viewBox="0 0 181 181" version="1.1" xmlns="http://www.w3.org/2000/svg" xmlns:xlink="http://www.w3.org/1999/xlink" xml:space="preserve" style="fill-rule:evenodd;clip-rule:evenodd;stroke-linejoin:round;stroke-miterlimit:1.41421;"><g><circle cx="90.24" cy="90.136" r="90" style="fill:#fff;"/><g><path d="M87.284,78.888c-0.6,-0.018 -1.156,0.327 -1.406,0.873l-14.983,31.462c-0.112,0.214 -0.17,0.452 -0.17,0.694c0,0.823 0.677,1.5 1.5,1.5c0.598,0 1.14,-0.357 1.377,-0.905l14.983,-31.462c0.101,-0.206 0.154,-0.433 0.154,-0.663c0,-0.806 -0.649,-1.475 -1.455,-1.499l0,0Z" style="fill:#bababa;"/><path d="M87.217,78.885c-0.814,0.012 -1.477,0.686 -1.477,1.5c0,0.008 0,0.015 0,0.023l0,38.956c0,0.007 0,0.015 0,0.022c0,0.823 0.677,1.5 1.5,1.5c0.823,0 1.5,-0.677 1.5,-1.5c0,-0.007 0,-0.015 0,-0.022l0,-38.956c0,-0.008 0,-0.015 0,-0.023c0,-0.823 -0.677,-1.5 -1.5,-1.5c-0.008,0 -0.016,0 -0.023,0Z" style="fill:#bababa;"/><path d="M87.152,78.888c-0.788,0.046 -1.412,0.708 -1.412,1.497c0,0.231 0.053,0.458 0.155,0.665l14.983,31.462c0.237,0.548 0.779,0.905 1.377,0.905c0.823,0 1.5,-0.677 1.5,-1.5c0,-0.242 -0.058,-0.48 -0.17,-0.694l-14.983,-31.462c-0.257,-0.561 -0.834,-0.909 -1.45,-0.873Z" style="fill:#bababa;"/><path d="M97.74,59.386c-0.828,0 -1.5,0.672 -1.5,1.5l0,3l-19.5,0c-0.828,0 -1.5,0.672 -1.5,1.5l0,1.5l-19.5,0c-0.828,0 -1.5,0.672 -1.5,1.5l0,9c0,0.829 0.672,1.5 1.5,1.5l19.5,0l0,1.5c0,0.829 0.672,1.5 1.5,1.5l19.5,0l0,3c0,0.829 0.672,1.5 1.5,1.5l27,0c0.828,0 1.5,-0.671 1.5,-1.5l0,-24c0,-0.828 -0.672,-1.5 -1.5,-1.5l-27,0ZM99.24,62.386l24,0l0,21l-24,0l0,-21ZM78.24,66.886l18,0l0,12l-18,0l0,-12ZM57.24,69.886l18,0l0,6l-18,0l0,-6Z" style="fill:#000;fill-rule:nonzero;"/></g></g></svg>