<?xml version="1.0" standalone="no"?><!DOCTYPE svg PUBLIC "-//W3C//DTD SVG 1.1//EN" "http://www.w3.org/Graphics/SVG/1.1/DTD/svg11.dtd"><svg width="100%" height="100%" viewBox="0 0 1100 336" version="1.1" xmlns="http://www.w3.org/2000/svg" xmlns:xlink="http://www.w3.org/1999/xlink" xml:space="preserve" style="fill-rule:evenodd;clip-rule:evenodd;stroke-linecap:round;stroke-linejoin:round;stroke-miterlimit:1.41421;"><g><g><path d="M188.16,29.317c0,-3.913 -3.177,-7.09 -7.089,-7.09l-173.822,0c-3.912,0 -7.089,3.177 -7.089,7.09l0,46.09c0,3.912 3.177,7.089 7.089,7.089l173.822,0c3.912,0 7.089,-3.177 7.089,-7.089l0,-46.09Z" style="fill:#293043;"/><text x="32.048px" y="57.361px" style="font-family:'HKGrotesk-Bold';font-size:16px;fill:#fff;">U<tspan x="42.128px 51.2px 55.36px 64.432px 74.544px 83.04px 92.112px 103.216px 111.152px 120.496px 129.392px 133.616px 145.36px " y="57.361px 57.361px 57.361px 57.361px 57.361px 57.361px 57.361px 57.361px 57.361px 57.361px 57.361px 57.361px 57.361px ">E EXPECTATION</tspan></text></g><g transform="matrix(1,-2.23881e-18,-2.21853e-18,1,-32.33,-920.777)"><text x="32.49px" y="1035.81px" style="font-family:'HKGrotesk-Light';font-size:20px;fill:#297399;">Safe</text><text x="32.49px" y="1077.81px" style="font-family:'HKGrotesk-Light';font-size:20px;fill:#297399;">Quick</text><text x="32.49px" y="1119.81px" style="font-family:'HKGrotesk-Light';font-size:20px;fill:#297399;">Intelligent</text><text x="32.49px" y="1161.81px" style="font-family:'HKGrotesk-Light';font-size:20px;fill:#297399;">Customizable</text><text x="32.49px" y="1203.81px" style="font-family:'HKGrotesk-Light';font-size:20px;fill:#297399;">Inspirational</text></g><g transform="matrix(1,-2.23881e-18,-2.21853e-18,1,197.096,-920.977)"><text x="32.49px" y="1035.81px" style="font-family:'HKGrotesk-Light';font-size:20px;fill:#297399;">Emotion detection</text><text x="32.49px" y="1071.81px" style="font-family:'HKGrotesk-Light';font-size:20px;fill:#297399;">User behavior</text><text x="32.49px" y="1095.81px" style="font-family:'HKGrotesk-Light';font-size:20px;fill:#297399;">monitering</text><text x="32.49px" y="1131.81px" style="font-family:'HKGrotesk-Light';font-size:20px;fill:#297399;">Environmental</text><text x="32.49px" y="1155.81px" style="font-family:'HKGrotesk-Light';font-size:20px;fill:#297399;">sensing</text><text x="32.49px" y="1191.81px" style="font-family:'HKGrotesk-Light';font-size:20px;fill:#297399;">Lighting sensing</text><text x="32.49px" y="1227.81px" style="font-family:'HKGrotesk-Light';font-size:20px;fill:#297399;">T<tspan x="42.07px " y="1227.81px ">i</tspan>me and location</text><text x="32.49px" y="1251.81px" style="font-family:'HKGrotesk-Light';font-size:20px;fill:#297399;">monitering</text></g><g transform="matrix(1,-2.23881e-18,-2.21853e-18,1,423.51,-921.057)"><text x="32.49px" y="1035.81px" style="font-family:'HKGrotesk-Light';font-size:20px;fill:#297399;">Information</text><text x="32.49px" y="1071.81px" style="font-family:'HKGrotesk-Light';font-size:20px;fill:#297399;">Entertainment</text><text x="32.49px" y="1107.81px" style="font-family:'HKGrotesk-Light';font-size:20px;fill:#297399;">Driving assistance</text><text x="32.49px" y="1143.81px" style="font-family:'HKGrotesk-Light';font-size:20px;fill:#297399;">Third-party services</text></g><g transform="matrix(1,-2.23881e-18,-2.21853e-18,1,651.822,-921.257)"><text x="32.49px" y="1035.81px" style="font-family:'HKGrotesk-Light';font-size:20px;fill:#297399;">Proactive virtual</text><text x="32.49px" y="1059.81px" style="font-family:'HKGrotesk-Light';font-size:20px;fill:#297399;">assistant</text><text x="32.49px" y="1095.81px" style="font-family:'HKGrotesk-Light';font-size:20px;fill:#297399;">GUI</text><text x="32.49px" y="1131.81px" style="font-family:'HKGrotesk-Light';font-size:20px;fill:#297399;">HVAC</text><text x="32.49px" y="1167.81px" style="font-family:'HKGrotesk-Light';font-size:20px;fill:#297399;">Other interior</text><text x="32.49px" y="1191.81px" style="font-family:'HKGrotesk-Light';font-size:20px;fill:#297399;">equipments</text></g><g transform="matrix(1,-2.23881e-18,-2.21853e-18,1,879.51,-921.057)"><text x="32.49px" y="1035.81px" style="font-family:'HKGrotesk-Light';font-size:20px;fill:#297399;">Manual confirm</text><text x="32.49px" y="1071.81px" style="font-family:'HKGrotesk-Light';font-size:20px;fill:#297399;">Initiative</text><text x="32.49px" y="1107.81px" style="font-family:'HKGrotesk-Light';font-size:20px;fill:#297399;">Delayed</text><text x="32.49px" y="1143.81px" style="font-family:'HKGrotesk-Light';font-size:20px;fill:#297399;">Initiative (realtime</text><text x="32.49px" y="1167.81px" style="font-family:'HKGrotesk-Light';font-size:20px;fill:#297399;">auto adjust)</text></g><g><path d="M416.12,29.317c0,-3.913 -3.177,-7.09 -7.089,-7.09l-173.822,0c-3.912,0 -7.089,3.177 -7.089,7.09l0,46.09c0,3.912 3.177,7.089 7.089,7.089l173.822,0c3.912,0 7.089,-3.177 7.089,-7.089l0,-46.09Z" style="fill:#293043;stroke-width:2px;stroke:#ff6c00;"/><text x="280.68px" y="12.099px" style="font-family:'HKGrotesk-Bold';font-size:16px;fill:#ff6c00;">P<tspan x="289.176px 298.28px 310.024px 320.328px 331.432px 340.328px 344.552px 354.856px " y="12.099px 12.099px 12.099px 12.099px 12.099px 12.099px 12.099px 12.099px ">ROACTIVE</tspan></text><g transform="matrix(1,-3.58977e-17,-3.13089e-17,1,56.1533,-1122.03)"><text x="201.175px" y="1166.82px" style="font-family:'HKGrotesk-Bold';font-size:16px;fill:#fff;">P<tspan x="209.671px 218.775px 230.519px 241.623px 250.695px 259.287px 267.879px 272.103px 282.855px 294.727px 298.887px 309.191px 319.943px " y="1166.82px 1166.82px 1166.82px 1166.82px 1166.82px 1166.82px 1166.82px 1166.82px 1166.82px 1166.82px 1166.82px 1166.82px 1166.82px ">ROCESSING AND</tspan></text><text x="220.407px" y="1190.82px" style="font-family:'HKGrotesk-Bold';font-size:16px;fill:#fff;">P<tspan x="228.903px 237.975px 247.079px 258.183px 267.255px 275.751px 284.647px 288.871px 300.615px " y="1190.82px 1190.82px 1190.82px 1190.82px 1190.82px 1190.82px 1190.82px 1190.82px 1190.82px ">ERCEPTION</tspan></text></g></g><g><path d="M644.08,29.317c0,-3.913 -3.177,-7.09 -7.089,-7.09l-173.822,0c-3.912,0 -7.089,3.177 -7.089,7.09l0,46.09c0,3.912 3.177,7.089 7.089,7.089l173.822,0c3.912,0 7.089,-3.177 7.089,-7.089l0,-46.09Z" style="fill:#293043;"/><text x="472.616px" y="57.361px" style="font-family:'HKGrotesk-Bold';font-size:16px;fill:#fff;">F<tspan x="481.56px 491.64px 502.392px 513.496px 522.392px 526.616px 538.36px 549.112px 553.272px 563.576px 574.328px 584.984px 589.144px 599.8px 609.144px 617.08px " y="57.361px 57.361px 57.361px 57.361px 57.361px 57.361px 57.361px 57.361px 57.361px 57.361px 57.361px 57.361px 57.361px 57.361px 57.361px 57.361px ">UNCTION AND DATA</tspan></text></g><g><path d="M872.04,29.317c0,-3.913 -3.177,-7.09 -7.089,-7.09l-173.822,0c-3.912,0 -7.089,3.177 -7.089,7.09l0,46.09c0,3.912 3.177,7.089 7.089,7.089l173.822,0c3.912,0 7.089,-3.177 7.089,-7.089l0,-46.09Z" style="fill:#293043;stroke-width:2px;stroke:#ff6c00;"/><text x="736.336px" y="11.923px" style="font-family:'HKGrotesk-Bold';font-size:16px;fill:#ff6c00;">P<tspan x="744.832px 753.936px 765.68px 775.984px 787.088px 795.984px 800.208px 810.512px " y="11.923px 11.923px 11.923px 11.923px 11.923px 11.923px 11.923px 11.923px ">ROACTIVE</tspan></text><text x="748.864px" y="57.361px" style="font-family:'HKGrotesk-Bold';font-size:16px;fill:#fff;">O<tspan x="760.608px 770.688px 779.584px 788.08px 798.16px " y="57.361px 57.361px 57.361px 57.361px 57.361px ">UTPUT</tspan></text></g><g><path d="M1100,29.317c0,-3.913 -3.177,-7.09 -7.089,-7.09l-173.822,0c-3.912,0 -7.089,3.177 -7.089,7.09l0,46.09c0,3.912 3.177,7.089 7.089,7.089l173.822,0c3.912,0 7.089,-3.177 7.089,-7.089l0,-46.09Z" style="fill:#293043;"/><g transform="matrix(1,-3.58977e-17,-3.13089e-17,1,740.033,-1121.5)"><text x="208.751px" y="1166.82px" style="font-family:'HKGrotesk-Bold';font-size:16px;fill:#fff;">C<tspan x="219.855px 231.599px 242.351px 251.295px 255.519px 264.623px 278.063px 287.407px 296.303px 300.527px 312.271px " y="1166.82px 1166.82px 1166.82px 1166.82px 1166.82px 1166.82px 1166.82px 1166.82px 1166.82px 1166.82px 1166.82px ">ONFIRMATION</tspan></text><text x="219.903px" y="1190.82px" style="font-family:'HKGrotesk-Bold';font-size:16px;fill:#fff;">M<tspan x="233.343px 242.415px 253.519px 264.559px 274.863px 285.615px 289.839px 298.431px " y="1190.82px 1190.82px 1190.82px 1190.82px 1190.82px 1190.82px 1190.82px 1190.82px ">ECHANISM</tspan></text></g></g></g></svg>