<?xml version="1.0" standalone="no"?><!DOCTYPE svg PUBLIC "-//W3C//DTD SVG 1.1//EN" "http://www.w3.org/Graphics/SVG/1.1/DTD/svg11.dtd"><svg width="100%" height="100%" viewBox="0 0 181 181" version="1.1" xmlns="http://www.w3.org/2000/svg" xmlns:xlink="http://www.w3.org/1999/xlink" xml:space="preserve" style="fill-rule:evenodd;clip-rule:evenodd;stroke-linejoin:round;stroke-miterlimit:1.41421;"><g><circle cx="90.947" cy="90.136" r="90" style="fill:#fff;"/><g><path d="M96.86,85.636c-0.789,0.047 -1.413,0.708 -1.413,1.498c0,0.54 0.292,1.04 0.762,1.306l17.967,10.48c0.238,0.15 0.515,0.229 0.796,0.229c0.823,0 1.501,-0.677 1.501,-1.5c0,-0.549 -0.302,-1.057 -0.786,-1.319l-17.966,-10.48c-0.259,-0.156 -0.559,-0.231 -0.861,-0.214l0,0Z" style="fill:#000;"/><path d="M58.648,98.914c-0.702,-0.427 -0.912,-1.344 -0.467,-2.036c6.096,-9.743 15.918,-16.036 25.297,-15.734c0.661,0.024 1.227,0.466 1.393,1.088c0.21,0.783 -0.281,1.606 -1.088,1.822c-0.146,0.039 -0.297,0.057 -0.449,0.052c-7.888,-0.254 -16.937,5.292 -22.566,14.288c-0.204,0.337 -0.536,0.584 -0.922,0.688c-0.408,0.109 -0.843,0.048 -1.198,-0.168l0,0Z" style="fill:#bababa;fill-rule:nonzero;"/><path d="M93.179,119.905c-0.693,-0.447 -0.936,-1.407 -0.537,-2.127c4.979,-9.316 5.666,-20.005 2.132,-26.876c-0.061,-0.113 -0.109,-0.233 -0.143,-0.358c-0.219,-0.822 0.232,-1.668 1.001,-1.873c0.661,-0.177 1.37,0.169 1.69,0.824c4.226,8.213 3.237,19.828 -2.132,29.872c-0.187,0.361 -0.506,0.622 -0.884,0.723c-0.379,0.102 -0.786,0.034 -1.127,-0.185Z" style="fill:#bababa;fill-rule:nonzero;"/><path d="M87.932,88.634c-0.494,0.005 -0.955,0.254 -1.231,0.665l-13.477,19.466c-0.174,0.251 -0.268,0.549 -0.268,0.855c0,0.823 0.678,1.5 1.501,1.5c0.492,0 0.954,-0.242 1.234,-0.647l13.478,-19.466c0.182,-0.255 0.28,-0.56 0.28,-0.873c0,-0.823 -0.677,-1.5 -1.501,-1.5c-0.005,0 -0.01,0 -0.016,0Z" style="fill:#bababa;"/><path d="M94.7,77.635c-3.575,-2.064 -8.19,-0.827 -10.254,2.748c-2.064,3.575 -0.828,8.189 2.747,10.253c3.575,2.064 8.191,0.828 10.255,-2.747c2.064,-3.575 0.827,-8.19 -2.748,-10.254l0,0ZM93.2,80.233c2.171,1.254 2.903,3.985 1.649,6.156c-1.253,2.17 -3.985,2.902 -6.155,1.649c-2.171,-1.253 -2.903,-3.985 -1.65,-6.155c1.254,-2.171 3.985,-2.903 6.156,-1.65l0,0Z" style="fill:#000;fill-rule:nonzero;"/><path d="M61.588,60.334c-0.712,-0.411 -1.637,-0.163 -2.049,0.549l-4.393,7.61c-0.412,0.712 -0.164,1.637 0.549,2.049l7.607,4.392c0.713,0.411 1.638,0.163 2.049,-0.549l4.394,-7.61c0.411,-0.713 0.163,-1.637 -0.549,-2.049l-7.608,-4.392l0,0ZM61.387,63.683l5.009,2.891l-2.893,5.011l-5.009,-2.891l2.893,-5.011Z" style="fill:#000;fill-rule:nonzero;"/><path d="M118.591,93.337c-0.712,-0.411 -1.637,-0.163 -2.049,0.549l-4.392,7.607c-0.411,0.713 -0.163,1.638 0.549,2.049l7.607,4.392c0.713,0.411 1.638,0.164 2.05,-0.549l4.392,-7.607c0.411,-0.713 0.163,-1.637 -0.549,-2.049l-7.608,-4.392ZM118.39,96.686l5.009,2.891l-2.892,5.009l-5.009,-2.892l2.892,-5.008Z" style="fill:#000;fill-rule:nonzero;"/><path d="M66.86,69.136c-0.79,0.044 -1.415,0.706 -1.415,1.497c0,0.54 0.291,1.04 0.762,1.306l17.966,10.48c0.239,0.15 0.515,0.23 0.797,0.23c0.823,0 1.5,-0.678 1.5,-1.501c0,-0.549 -0.302,-1.057 -0.785,-1.319l-17.967,-10.48c-0.258,-0.156 -0.557,-0.23 -0.858,-0.213l0,0Z" style="fill:#000;"/></g></g></svg>